<?xml version="1.0" encoding="utf-8"?>
<!-- Generator: Adobe Illustrator 21.0.2, SVG Export Plug-In . SVG Version: 6.00 Build 0)  -->
<svg version="1.1" id="Layer_2" xmlns="http://www.w3.org/2000/svg" xmlns:xlink="http://www.w3.org/1999/xlink" x="0px" y="0px"
	 viewBox="0 0 3857.2 2000" style="enable-background:new 0 0 3857.2 2000;" xml:space="preserve">
<style type="text/css">
	.st0{fill:#5FBBE8;}
	.st1{fill:#5FAEDE;}
	.st2{fill:#B1ECED;}
	.st3{fill:#294F81;}
	.st4{fill:#33487A;}
	.st5{fill:#393760;}
	.st6{fill:#46AED2;}
	.st7{fill:#2F4572;}
	.st8{fill:#296ABD;}
	.st9{fill:#D87F3B;}
	.st10{fill:#FFDB5E;}
	.st11{fill:#FFCF56;}
	.st12{fill:#FF5E56;}
	.st13{fill:#FFEADE;}
	.st14{fill:#E2474C;}
	.st15{fill:#6D9F37;}
	.st16{fill:#BB75CF;}
	.st17{fill:#B15BBA;}
	.st18{fill:#F8EF57;}
	.st19{fill:#C9EAFF;}
</style>
<g>
	<g>
		<g>
			<path class="st0" d="M1611.6,1153.2c-14.9,29.3-49.9,15.1-93-19.6c-51.4-41.5-110.4-155.8-74.3-225.9c0,0,0,0,0,0
				c3.3-6.4,7.3-12.4,12.3-18c59.2-66.7,163.9,187.2,162.8,224.2C1618.8,1131.4,1616.1,1144.3,1611.6,1153.2z"/>
			<path class="st1" d="M1611.6,1153.2c-14.9,29.3-49.9,15.1-93-19.6c-51.4-41.5-110.4-155.8-74.3-225.9
				C1453.7,978.3,1488.2,1096.5,1611.6,1153.2z"/>
			<path class="st2" d="M1526.2,939.6c10,18.5,23.6,50.6,17.5,54.5c-6.2,4-33.2-21.4-48.1-52.3c-10.2-21.1-16.5-48.6-10.7-51.5
				C1491.5,887,1513.2,915.5,1526.2,939.6z"/>
		</g>
		<g>
			<path class="st0" d="M2188.3,1439.9c0,133.8-93.8,290.9-243,290.9c-92.4,0-168.4-56.6-212.9-132.2
				c-27.3-46.4-42.7-100.1-42.7-152.2c0-137,149.6-130.5,244.4-130.5c104,0,227.4-8,250.4,88.9
				C2187,1415.2,2188.3,1426.9,2188.3,1439.9z"/>
			<path class="st1" d="M2188.3,1439.9c0,133.8-93.8,290.9-243,290.9c-92.4,0-168.4-56.6-212.9-132.2
				c92.6,43.6,356.4,133.9,452-193.8C2187,1415.2,2188.3,1426.9,2188.3,1439.9z"/>
			<path class="st2" d="M1741.4,1393.3c-19.4,31.6-5.7,76.5,27.6,94.2c35.2,18.6,83,1.9,96-35.1c12.4-35.2-11.5-74.7-45.8-85.8
				C1791.8,1357.7,1757.5,1367.1,1741.4,1393.3z"/>
		</g>
		<g>
			<path class="st0" d="M2360.3,1116.8c-42.6,44.3-78.5,62.4-95.4,20.4c-2.9-7.2-5.3-16.2-7-27.1c-5.8-36.6,65.9-301.7,133-243
				c17.3,15.2,27,35.7,31,58.7C2433.2,991.8,2397.4,1078.2,2360.3,1116.8z"/>
			<path class="st1" d="M2360.3,1116.8c-42.6,44.3-78.5,62.4-95.4,20.4c31.7-15.1,91-62.5,157-211.4
				C2433.2,991.8,2397.4,1078.2,2360.3,1116.8z"/>
			<path class="st2" d="M2331.3,970.6c-13.6,39.3-40.4,104.9-47.8,102.6c-6.7-2.1,1.5-59.8,25.9-112.8
				c13.6-29.5,33.7-60.6,38.6-58.4C2354.1,904.7,2335.5,958.4,2331.3,970.6z"/>
		</g>
		<g>
			<path class="st0" d="M1675.7,1031.1c-8.8-8.9-15.5-19.1-20.2-30c-10.8-25.1-10.6-54,1.8-78.8c12.5-25.2,36-43,63.2-49.3
				c7.7-1.8,15.7-2.7,23.8-2.5C1762.2,976.7,1675.7,1031.1,1675.7,1031.1z"/>
			<path class="st1" d="M1675.7,1031.1c-8.8-8.9-15.5-19.1-20.2-30c10.9-18.8,21.9-38.9,32.8-60.2c12-23.4,22.6-46.2,32.1-67.9
				c7.7-1.8,15.7-2.7,23.8-2.5C1721.4,924,1698.5,977.6,1675.7,1031.1z"/>
			<path class="st0" d="M2199.1,1141c-10.3,132.5-314.5,174.5-456.1,93.6c-39.4-22.5-66.2-54.5-70.7-96.6
				c-20.7-193.9,108.6-370.6,256-369.8c53.4,0.3,116.1,21.1,167.8,66.7C2162.3,893.3,2210.7,992.4,2199.1,1141z"/>
			<path class="st1" d="M2199.1,1141c-10.3,132.5-314.5,174.5-456.1,93.6c86.8,14.9,345.1,48.1,392.3-76.2
				c40.6-106.9-8-250.1-39.3-323.4C2162.3,893.3,2210.7,992.4,2199.1,1141z"/>
			<path class="st2" d="M1757.6,897.7c7.8,10.4,56.2-11,88.8-34.7c31.2-22.7,63.1-58.6,56.2-68.8c-6.2-9.1-41.9,3.6-64.4,15.4
				C1787.9,835.9,1749.2,886.3,1757.6,897.7z"/>
			<path class="st2" d="M1686.1,1103.5c0.9,35.4,22.4,69.1,31.2,66.9c9.2-2.4,5.7-44.7,1.6-67.9c-1.2-6.7-8.4-47.5-17.9-47.4
				C1693.4,1055.1,1685.5,1080.6,1686.1,1103.5z"/>
			<g>
				<path class="st3" d="M2120.9,966.5c-0.2,26.6-29.4,42.8-67.1,52.3c-39.7,10-88.7,12.6-122.8,12.1
					c-48.8-0.8-142.9-9.8-176.7-40.9c-7.9-7.3-12.5-15.8-12.5-25.7c0.2-28.8,12.3-54.8,31.8-73.6c19.5-18.8,46.4-30.3,76-30.1
					l164.6,1c34.4,0.2,65,16.2,84.5,40.8C2112.7,920.1,2121,942.4,2120.9,966.5z"/>
				<path class="st4" d="M2120.9,966.5c-0.2,26.6-29.4,42.8-67.1,52.3c-39.7,10-88.7,12.6-122.8,12.1
					c-48.8-0.8-142.9-9.8-176.7-40.9c96.7-2.3,261.2-17.3,344.5-87.7C2112.7,920.1,2121,942.4,2120.9,966.5z"/>
				<g>
					<g>
						<path class="st5" d="M2087.3,943.9c-0.2,26.5-21.7,47.8-48.2,47.6c-20.5-0.1-37.8-13-44.6-31.1c-2-5.3-3.1-11.1-3-17.1
							c0.2-26.5,21.7-47.8,48.2-47.6c19.5,0.1,36.2,11.8,43.5,28.6C2085.9,930.3,2087.4,936.9,2087.3,943.9z"/>
						<path class="st6" d="M2039.4,895.7c19.5,0.1,36.5,11.8,43.8,28.6c2.7,6,4.1,12.6,4.1,19.6c-0.2,26.4-21.6,47.6-47.9,47.6
							c-0.1,0-0.2,0-0.3,0c-20.5-0.1-37.8-13-44.6-31.1c-2-5.3-3.1-11.1-3-17.1C1991.7,917,2013.1,895.7,2039.4,895.7L2039.4,895.7z
							 M2039.4,887.5L2039.4,887.5c-30.8,0-55.9,25-56.1,55.8c0,6.9,1.2,13.6,3.6,20c8.1,21.6,29.1,36.3,52.2,36.4l0.3,0
							c30.8,0,55.9-25,56.1-55.8c0-8-1.6-15.7-4.8-23c-8.9-20.2-28.9-33.3-51-33.4L2039.4,887.5L2039.4,887.5z"/>
					</g>
					<path class="st7" d="M2083.2,924.2c-18.1,43.1-62.5,41.6-88.6,36.4c-2-5.3-3.1-11.1-3.1-17.1c0.1-26.5,21.6-47.9,48-47.8
						C2059.1,895.7,2075.8,907.4,2083.2,924.2z"/>
					
						<ellipse transform="matrix(5.776179e-03 -1 1 5.776179e-03 1082.2709 2943.718)" class="st2" cx="2021.5" cy="927.6" rx="15.9" ry="15.9"/>
					<path class="st2" d="M2077,953.1c2.6,1.8-1,18.4-12.9,24.8c-10.6,5.6-24.5,1.4-24.8-1.7c-0.2-2.3,7-2.8,19.2-10.1
						C2071.1,958.4,2075.1,951.9,2077,953.1z"/>
				</g>
				<g>
					<g>
						<path class="st5" d="M1874.8,942.6c-0.2,26.5-21.7,47.8-48.2,47.6c-20.5-0.1-37.8-13-44.6-31.1c-2-5.3-3.1-11.1-3-17.1
							c0.2-26.5,21.7-47.8,48.2-47.6c19.5,0.1,36.2,11.8,43.5,28.6C1873.4,929,1874.8,935.7,1874.8,942.6z"/>
						<path class="st6" d="M1827.3,894.3c19.5,0.1,36.1,12,43.4,28.7c2.7,6,4.1,12.6,4.1,19.6c-0.2,26.4-21.6,47.6-47.9,47.6
							c-0.1,0-0.2,0-0.3,0c-20.5-0.1-37.8-13-44.6-31.1c-2-5.3-3.1-11.1-3-17.1C1779.1,915.7,1800.9,894.3,1827.3,894.3
							L1827.3,894.3z M1826.9,886.3L1826.9,886.3c-30.8,0-55.9,25-56.1,55.8c0,6.9,1.2,13.6,3.6,20c8.1,21.6,29.1,36.3,52.2,36.4
							l0.3,0c30.8,0,55.9-25,56.1-55.8c0-8-1.6-15.7-4.8-23c-8.9-20.2-28.9-33.3-51-33.4L1826.9,886.3L1826.9,886.3z"/>
					</g>
					<path class="st7" d="M1870.6,922.9c-18.1,43.1-62.5,41.6-88.6,36.4c-2-5.3-3.1-11.1-3.1-17.1c0.1-26.5,21.6-47.9,48-47.8
						C1846.5,894.5,1863.2,906.2,1870.6,922.9z"/>
					
						<ellipse transform="matrix(5.776175e-03 -1 1 5.776175e-03 872.162 2729.9294)" class="st2" cx="1809" cy="926.4" rx="15.9" ry="15.9"/>
					<path class="st2" d="M1864.4,951.9c2.6,1.8-1,18.4-12.9,24.8c-10.6,5.6-24.5,1.4-24.8-1.7c-0.2-2.3,7-2.8,19.2-10.1
						C1858.6,957.2,1862.6,950.7,1864.4,951.9z"/>
				</g>
				<path class="st8" d="M1946.1,872.1c0.4,3.2-21.1,10.6-43.4,12.5c-36.2,3.1-69.3-8.5-68.8-12.5c0.2-1.8,23.1-1.9,68.9-2
					C1939.5,869.9,1945.9,870.4,1946.1,872.1z"/>
			</g>
			<g>
				<path class="st0" d="M1658,939.7c-1-0.8-23.6-19.2-37.4-55.1c-12.6-32.8-19.8-87.1,17.4-159.3l12.7,6.6
					c-27.5,53.4-33.3,104.4-16.8,147.6c12.4,32.3,32.8,48.9,33,49.1L1658,939.7z"/>
				
					<ellipse transform="matrix(0.1835 -0.983 0.983 0.1835 648.0583 2207.1985)" class="st3" cx="1652.7" cy="713.5" rx="33.4" ry="33.4"/>
				
					<ellipse transform="matrix(4.719241e-03 -1 1 4.719241e-03 938.1537 2350.219)" class="st8" cx="1649.7" cy="703.8" rx="17.9" ry="17.9"/>
			</g>
			<g>
				<path class="st3" d="M1930.1,1112.9c-23,0.5-41.1-6.6-54.3-16c-23.7-16.9-31.6-41.1-24.2-41.8c11.6-1.1,39.6,11.1,70.8,10.4
					c35.9-0.8,60.2-9.7,78.7-10.8c0.8-0.1,1.6-0.1,2.4-0.1C2022.4,1054.1,2000.7,1111.4,1930.1,1112.9z"/>
				<path class="st4" d="M1930.1,1112.9c-23,0.5-41.1-6.6-54.3-16c31.2-4.5,92.3-16.2,125.3-42.3c0.8-0.1,1.6-0.1,2.4-0.1
					C2022.4,1054.1,2000.7,1111.4,1930.1,1112.9z"/>
			</g>
		</g>
	</g>
	<g>
		<g>
			<rect x="1639.6" y="201.8" class="st9" width="215.3" height="301.5"/>
			<rect x="1609.1" y="201.8" class="st10" width="215.3" height="301.5"/>
			<path class="st11" d="M1824.4,201.8v301.5h-215.3v-68.4c71-3.7,165.1-44.6,170.3-233.1H1824.4z"/>
			<rect x="1625.9" y="201.8" class="st12" width="19.7" height="301.5"/>
			<rect x="1824.4" y="208.5" class="st13" width="13.6" height="289.4"/>
			<g>
				<path class="st14" d="M1794,411.1h-18.1l-14.8-42.5H1702l-13.9,42.5h-18.2l53.5-151.7h16.9L1794,411.1z M1755.8,352.6
					l-21.9-64.6c-0.7-2.1-1.4-5.5-2.1-10.2h-0.4c-0.6,4.3-1.4,7.7-2.2,10.2l-21.7,64.6H1755.8z"/>
			</g>
		</g>
		<g>
			<rect x="2061.5" y="202.4" class="st15" width="215.3" height="301.5"/>
			<rect x="2031" y="202.4" class="st16" width="215.3" height="301.5"/>
			<path class="st17" d="M2246.3,202.4v301.5H2031v-68.4c71-3.7,165.1-44.6,170.3-233.1H2246.3z"/>
			<rect x="2047.9" y="202.4" class="st18" width="19.7" height="301.5"/>
			<rect x="2246.4" y="209.1" class="st13" width="13.6" height="289.4"/>
			<path class="st14" d="M2198.6,336.8c7.7-16.2,9.7-31,10.1-40.2c8,0.7,16,1.5,24,2.6l1.7-12c-26.3-3.6-53-4.9-79.5-3.8
				c-2.7,0.1-5.3,0.3-8,0.4l10.6-32.6l-11.5-3.7l-12.1,37.3c-17.1,1.5-34.1,4-50.9,7.4l2.4,11.8c14.6-3,29.5-5.3,44.4-6.7l-19.2,59
				l37.4,17.9c-14.2,8.7-31.4,15.3-51.5,19.9l2.7,11.8c26.4-6,46.4-15.2,61.5-25.6l52.7,25.2l5.2-10.9l-47.2-22.6
				C2184.9,360.3,2193.3,347.7,2198.6,336.8z M2125.2,350l17.5-53.8c4.2-0.3,8.4-0.5,12.5-0.7c13.7-0.6,27.5-0.4,41.3,0.3
				c-0.3,7.9-2,21.6-9.2,36.3c-6.5,13.3-15.8,24.7-28,34.2L2125.2,350z"/>
		</g>
		<path class="st0" d="M2067.5,154.4h113l-24.8-104.7l-11.8,2.8l18.6,78.5c-52.6-39.4-107.8-64.1-164.5-73.5
			c-48.4-8-97.8-5-146.9,9.1c-83.5,23.9-136.3,70.7-138.5,72.7l8.1,9c0.5-0.5,53.3-47.1,134.2-70.2c105.2-30,207-8.3,302.7,64.4
			h-90.1V154.4z"/>
		<path class="st0" d="M1825.7,562.8h-113l24.8,104.7l11.8-2.8l-18.6-78.5c52.6,39.4,107.8,64.1,164.5,73.5c48.4,8,97.8,5,146.9-9.1
			c83.5-23.9,136.3-70.7,138.5-72.7l-8.1-9c-0.5,0.5-53.3,47.1-134.2,70.2c-105.2,30-207,8.3-302.7-64.4h90.1V562.8z"/>
	</g>
	<ellipse class="st19" cx="1946.1" cy="1840.1" rx="259" ry="67.2"/>
</g>
</svg>
