<?xml version="1.0" encoding="utf-8"?>
<!-- Generator: Adobe Illustrator 21.0.2, SVG Export Plug-In . SVG Version: 6.00 Build 0)  -->
<svg version="1.1" id="Layer_2" xmlns="http://www.w3.org/2000/svg" xmlns:xlink="http://www.w3.org/1999/xlink" x="0px" y="0px"
	 viewBox="0 0 3857.2 2000" style="enable-background:new 0 0 3857.2 2000;" xml:space="preserve">
<style type="text/css">
	.st0{fill:#5FBBE8;}
	.st1{fill:#5FAEDE;}
	.st2{fill:#B1ECED;}
	.st3{fill:#294F81;}
	.st4{fill:#33487A;}
	.st5{fill:#393760;}
	.st6{fill:#46AED2;}
	.st7{fill:#2F4572;}
	.st8{fill:#296ABD;}
	.st9{fill:#BBE1F4;}
	.st10{fill:#B1D3F0;}
	.st11{fill:#BBDAF4;}
	.st12{fill:#CAEFF9;}
	.st13{fill:#C9EAFF;}
</style>
<g>
	<g>
		<path class="st0" d="M1570,1176.2c-7.7,34.1-47.5,28.6-101,4.1c-63.9-29.3-154.6-131.7-135.8-213.5c0,0,0,0,0,0
			c1.7-7.4,4.3-14.7,8-21.7c43.6-84.2,217.9,150.2,226.5,188.6C1571.8,1151.8,1572.4,1165.8,1570,1176.2z"/>
		<path class="st1" d="M1570,1176.2c-7.7,34.1-47.5,28.6-101,4.1c-63.9-29.3-154.6-131.7-135.8-213.5
			C1361.4,1037.1,1427.9,1150,1570,1176.2z"/>
		<path class="st2" d="M1426.1,978.3c15.1,16.5,37.5,46,32.3,51.6c-5.4,5.7-39.8-13.4-63.2-41.3c-16-19.1-29.8-45.8-24.5-50.3
			C1376.6,933.1,1406.4,956.8,1426.1,978.3z"/>
	</g>
	<g>
		<path class="st0" d="M2147.5,1265.7c0,142.3-99.8,309.5-258.5,309.5c-98.3,0-179.2-60.2-226.5-140.6
			c-29.1-49.4-45.5-106.4-45.5-161.9c0-145.8,159.1-138.8,260-138.8c110.6,0,241.9-8.5,266.4,94.5
			C2146.1,1239.4,2147.5,1251.9,2147.5,1265.7z"/>
		<path class="st1" d="M2147.5,1265.7c0,142.3-99.8,309.5-258.5,309.5c-98.3,0-179.2-60.2-226.5-140.6
			c98.5,46.4,379.1,142.4,480.8-206.2C2146.1,1239.4,2147.5,1251.9,2147.5,1265.7z"/>
		<path class="st2" d="M1672.1,1216.1c-20.6,33.6-6,81.4,29.3,100.2c37.4,19.8,88.3,2.1,102.2-37.4c13.2-37.5-12.2-79.5-48.7-91.2
			C1725.6,1178.2,1689.2,1188.2,1672.1,1216.1z"/>
	</g>
	<g>
		<path class="st0" d="M2367,1369c-1.6,65.4-16.8,105.3-60.2,84.5c-7.4-3.6-15.7-8.9-24.9-16.2c-30.8-24.6-165-284.1-70.2-286.3
			c24.5-0.6,46.8,8.6,66.4,23.8C2334.4,1218.5,2368.4,1312.1,2367,1369z"/>
		<path class="st1" d="M2367,1369c-1.6,65.4-16.8,105.3-60.2,84.5c14-34.6,26.5-114.4-28.6-278.7
			C2334.4,1218.5,2368.4,1312.1,2367,1369z"/>
		<path class="st2" d="M2239.2,1275.1c17.5,40.6,43.6,111.4,36.1,114.9c-6.8,3.1-41.8-48-60.7-107.1c-10.5-32.9-17.1-71.7-11.6-73.6
			C2209.8,1207,2233.8,1262.5,2239.2,1275.1z"/>
	</g>
	<g>
		<path class="st0" d="M1605.6,834.2c-9.4-9.4-16.6-20.2-21.7-31.8c-11.6-26.6-11.6-57.4,1.4-83.8c13.2-26.9,38-46,66.9-52.8
			c8.2-2,16.7-2.9,25.4-2.8C1697.3,775.8,1605.6,834.2,1605.6,834.2z"/>
		<path class="st1" d="M1605.6,834.2c-9.4-9.4-16.6-20.2-21.7-31.8c11.5-20.1,23.1-41.5,34.5-64.2c12.6-25,23.8-49.2,33.8-72.5
			c8.2-2,16.7-2.9,25.4-2.8C1653.6,720,1629.6,777.1,1605.6,834.2z"/>
		<path class="st0" d="M2163.1,947.9c-10.2,141-333.4,187.6-484.7,102.4c-42-23.7-70.7-57.5-75.8-102.4
			C1579.4,741.8,1715.9,553,1872.7,553c56.8,0,123.6,21.8,178.9,70C2122.4,684.7,2174.5,789.7,2163.1,947.9z"/>
		<path class="st0" d="M1596.4,735.6c-1.2-0.6-28.4-15.5-49.8-50.4c-19.6-31.9-37.7-87.3-12.9-170l14.6,4.4
			c-18.5,61.7-14.9,114.5,10.9,156.9c19.2,31.6,44.2,45.5,44.5,45.6L1596.4,735.6z"/>
		<circle class="st3" cx="1546.8" cy="500.1" r="35.5"/>
		<path class="st3" d="M2079.2,823.4c0,28.3-31.1,45.7-71.1,56.1c-42.2,10.9-94.3,14-130.6,13.6c-51.9-0.5-152.1-9.5-188.3-42.4
			c-8.5-7.7-13.4-16.7-13.4-27.3c0-30.6,12.8-58.4,33.4-78.5c20.6-20.1,49.2-32.5,80.7-32.5h175.1c36.6,0,69.2,16.8,90.1,42.9
			C2070.2,774.1,2079.2,797.7,2079.2,823.4z"/>
		<path class="st4" d="M2079.2,823.4c0,28.3-31.1,45.7-71.1,56.1c-42.2,10.9-94.3,14-130.6,13.6c-51.9-0.5-152.1-9.5-188.3-42.4
			c102.9-3.1,277.8-20,365.9-95.4C2070.2,774.1,2079.2,797.7,2079.2,823.4z"/>
		<path class="st3" d="M1882.3,1020.3c-33.2,0-59.1-11.8-77.8-27c-33.6-27.2-44.3-65.5-33.5-66.4c16.8-1.3,56.8,18.7,102,18.7
			c51.9,0,87.3-13.1,114-14.2c1.2-0.1,2.4-0.1,3.5-0.1C2017.5,931.4,1984.3,1020.3,1882.3,1020.3z"/>
		<path class="st1" d="M2163.1,947.9c-10.2,141-333.4,187.6-484.7,102.4c92.4,15.3,367.4,49,416.9-83.5
			c42.6-114-10.1-266-43.8-343.8C2122.4,684.7,2174.5,789.7,2163.1,947.9z"/>
		<path class="st2" d="M1692,691.7c8.4,11,59.7-12,94.2-37.4c33.1-24.3,66.8-62.7,59.4-73.6c-6.6-9.6-44.5,4.1-68.4,16.8
			C1723.8,625.9,1682.9,679.7,1692,691.7z"/>
		<path class="st2" d="M1617.1,911.1c1.2,37.7,24.2,73.4,33.5,71c9.8-2.6,5.8-47.5,1.3-72.3c-1.3-7.1-9.2-50.5-19.4-50.3
			C1624.6,859.7,1616.3,886.8,1617.1,911.1z"/>
		<g>
			<g>
				<path class="st5" d="M2043.4,799.5c0,28.2-22.8,51-51,51c-21.8,0-40.3-13.6-47.6-32.8c-2.2-5.6-3.3-11.8-3.3-18.2
					c0-28.2,22.8-51,51-51c20.7,0,38.6,12.4,46.5,30.1C2041.8,785,2043.4,792.1,2043.4,799.5z"/>
				<path class="st6" d="M1992.4,748.6c20.7,0,38.6,12.4,46.5,30.1c2.9,6.4,4.5,13.4,4.5,20.9c0,28.2-22.8,51-51,51
					c-21.8,0-40.3-13.6-47.6-32.8c-2.2-5.6-3.3-11.8-3.3-18.2C1941.4,771.4,1964.2,748.6,1992.4,748.6L1992.4,748.6z M1992.4,739.8
					c-32.9,0-59.7,26.8-59.7,59.7c0,7.3,1.3,14.5,3.9,21.3c8.8,23,31.2,38.4,55.8,38.4c32.9,0,59.7-26.8,59.7-59.7
					c0-8.5-1.8-16.7-5.2-24.4C2037.2,753.7,2015.9,739.8,1992.4,739.8L1992.4,739.8z"/>
			</g>
			<path class="st7" d="M2038.8,778.6c-19,46-66.2,44.6-94,39.3c-2.2-5.6-3.4-11.8-3.4-18.2c-0.1-28.2,22.7-51,50.8-51.1
				C2013,748.5,2030.8,760.9,2038.8,778.6z"/>
			<circle class="st2" cx="1973.2" cy="782.6" r="16.9"/>
			<path class="st2" d="M2032.4,809.4c2.8,1.9-1,19.6-13.6,26.4c-11.2,6-26.1,1.6-26.4-1.7c-0.3-2.4,7.4-3.1,20.3-10.9
				C2026.2,815.1,2030.4,808.1,2032.4,809.4z"/>
		</g>
		<g>
			<g>
				<path class="st5" d="M1817.2,799.5c0,28.2-22.8,51-51,51c-21.8,0-40.3-13.6-47.6-32.8c-2.2-5.6-3.3-11.8-3.3-18.2
					c0-28.2,22.8-51,51-51c20.7,0,38.6,12.4,46.5,30.1C1815.6,785,1817.2,792.1,1817.2,799.5z"/>
				<path class="st6" d="M1766.2,748.6c20.7,0,38.6,12.4,46.5,30.1c2.9,6.4,4.5,13.4,4.5,20.9c0,28.2-22.8,51-51,51
					c-21.8,0-40.3-13.6-47.6-32.8c-2.2-5.6-3.3-11.8-3.3-18.2C1715.3,771.4,1738.1,748.6,1766.2,748.6L1766.2,748.6z M1766.2,739.8
					c-32.9,0-59.7,26.8-59.7,59.7c0,7.3,1.3,14.5,3.9,21.3c8.8,23,31.2,38.4,55.8,38.4c32.9,0,59.7-26.8,59.7-59.7
					c0-8.5-1.8-16.7-5.2-24.4C1811.1,753.7,1789.7,739.8,1766.2,739.8L1766.2,739.8z"/>
			</g>
			<path class="st7" d="M1812.7,778.6c-19,46-66.2,44.6-94,39.3c-2.2-5.6-3.4-11.8-3.4-18.2c-0.1-28.2,22.7-51,50.8-51.1
				C1786.8,748.5,1804.7,760.8,1812.7,778.6z"/>
			<circle class="st2" cx="1747.1" cy="782.6" r="16.9"/>
			<path class="st2" d="M1806.2,809.4c2.8,1.9-1,19.6-13.6,26.4c-11.2,6-26.1,1.6-26.4-1.7c-0.3-2.4,7.4-3.1,20.3-10.9
				C1800.1,815.1,1804.3,808.1,1806.2,809.4z"/>
		</g>
		<path class="st8" d="M1892.7,724c0.5,3.4-22.4,11.4-46.1,13.6c-38.5,3.5-73.8-8.6-73.2-12.9c0.2-2,24.6-2.2,73.2-2.6
			C1885.6,721.8,1892.4,722.2,1892.7,724z"/>
		
			<ellipse transform="matrix(0.9839 -0.1789 0.1789 0.9839 -62.8849 283.7127)" class="st8" cx="1541.8" cy="490.6" rx="19" ry="19"/>
		<path class="st4" d="M1882.3,1020.3c-33.2,0-59.1-11.8-77.8-27c45.1-5.9,133.8-22.2,182.4-61.8c1.2-0.1,2.4-0.1,3.5-0.1
			C2017.5,931.4,1984.3,1020.3,1882.3,1020.3z"/>
	</g>
	<g>
		<path class="st9" d="M2242,510.2c3.6,33.1,2.2,103.6-63.7,152.7c0,0,0,0,0,0c34.6-58.1-2.9-137.6-21.6-170.4L2242,510.2z"/>
		<path class="st9" d="M2525.1,338.7c-166.6,232.5-545.1,86.4-679.4,24.4c-17-33.2-23.2-72.2-15-111.6c9.5-46,36.7-83.7,73.1-107.5
			c36.3-23.9,81.7-33.9,127.7-24.3l359.6,74.5C2463.9,209.2,2516.1,268.9,2525.1,338.7z"/>
		<path class="st10" d="M2522.9,394.9c-9.5,45.9-36.7,83.6-73.1,107.5c-36.3,23.8-81.8,33.9-127.7,24.3l-0.3-0.1l-34.9-7.3v0
			c-7.5,84.3-105.4,141.6-108.5,143.4c65.9-49,67.3-119.6,63.7-152.7l-85.3-17.7l-194.2-40.2c-52.5-10.9-94.3-44.9-116.8-89.2
			c134.3,62,512.7,208.1,679.4-24.4C2527.4,357,2526.8,375.9,2522.9,394.9z"/>
		<polygon class="st11" points="2321.8,526.7 2286.9,519.5 2286.9,519.4 		"/>
		
			<ellipse transform="matrix(0.106 -0.9944 0.9944 0.106 1589.4502 2245.998)" class="st12" cx="2043.8" cy="239" rx="103.1" ry="164.1"/>
		<g>
			<path class="st3" d="M2055,356.9l-14.6-3.1l12.1-56.9l-64.5-13.7l-12.1,56.9l-14.6-3.1l26.4-124.7l14.6,3.1l-11.6,54.7l64.5,13.7
				l11.6-54.7l14.6,3.1L2055,356.9z"/>
			<path class="st3" d="M2166.1,337.6l-62.9-13.3c-1.9,10-0.8,18.2,3.1,24.7c4,6.5,10.4,10.7,19.3,12.6c10,2.1,20,0.8,29.8-4.1
				l-2.8,13.4c-9,4-20,4.7-32.9,1.9c-12.6-2.7-21.6-8.8-27.1-18.4c-5.5-9.6-6.7-21.8-3.5-36.4c2.9-13.9,9.3-24.3,19-31.4
				c9.7-7.1,20.4-9.4,32-6.9c11.7,2.5,19.9,8.2,24.7,17c4.8,8.9,5.8,20,2.9,33.4L2166.1,337.6z M2154,322.4
				c1.7-8.2,1.1-15.1-1.9-20.5c-2.9-5.4-7.9-8.9-14.9-10.3c-6.7-1.4-12.9-0.2-18.7,3.6c-5.7,3.8-10,9.5-12.7,17L2154,322.4z"/>
			<path class="st3" d="M2193.2,386.2l-14.3-3l28-131.9l14.3,3L2193.2,386.2z"/>
			<path class="st3" d="M2236.4,395.3l-14.3-3l28-131.9l14.3,3L2236.4,395.3z"/>
			<path class="st3" d="M2302,411.4c-13.2-2.8-22.8-9.2-28.9-19.2c-6.1-10-7.7-21.9-4.8-35.6c3.2-15,9.7-25.8,19.7-32.5
				c10-6.7,21.9-8.5,35.8-5.6c13.3,2.8,22.8,9.1,28.5,18.9c5.7,9.8,7,21.9,4,36.4c-3,14.2-9.4,24.7-19.3,31.6
				C2327.2,412.3,2315.6,414.3,2302,411.4z M2320.3,330.4c-9.2-1.9-17.1-0.4-23.7,4.7c-6.7,5.1-11.1,13.1-13.5,24.1
				c-2.2,10.6-1.3,19.4,2.8,26.7c4.1,7.2,10.7,11.8,19.7,13.7c9.2,2,16.9,0.5,23.2-4.5c6.2-4.9,10.5-12.9,12.8-23.9
				c2.4-11.1,1.7-20.2-2-27.3C2336,336.9,2329.5,332.4,2320.3,330.4z"/>
			<path class="st3" d="M2380.2,427.4c-2.7-0.6-4.7-2-6.2-4.2c-1.5-2.3-2-4.7-1.4-7.4c0.6-2.7,2-4.7,4.3-6.2
				c2.3-1.5,4.8-1.9,7.4-1.4c2.6,0.6,4.7,2,6.2,4.3c1.5,2.3,2,4.8,1.4,7.4c-0.6,2.7-2,4.7-4.3,6.2
				C2385.3,427.5,2382.8,428,2380.2,427.4z M2414.3,302.7l-20.6,89.2l-11.7-2.5l17.4-89.9L2414.3,302.7z"/>
		</g>
	</g>
	<polygon class="st9" points="2321.8,526.7 2286.9,519.5 2286.9,519.4 	"/>
	<ellipse class="st13" cx="1883.2" cy="1681.7" rx="275.6" ry="71.4"/>
</g>
</svg>
