<?xml version="1.0" encoding="utf-8"?>
<!-- Generator: Adobe Illustrator 21.0.2, SVG Export Plug-In . SVG Version: 6.00 Build 0)  -->
<svg version="1.1" id="Layer_2" xmlns="http://www.w3.org/2000/svg" xmlns:xlink="http://www.w3.org/1999/xlink" x="0px" y="0px"
	 viewBox="0 0 3857.2 2000" style="enable-background:new 0 0 3857.2 2000;" xml:space="preserve">
<style type="text/css">
	.st0{fill:#5FBBE8;}
	.st1{fill:#5FAEDE;}
	.st2{fill:#B1ECED;}
	.st3{fill:#294F81;}
	.st4{fill:#33487A;}
	.st5{fill:#393760;}
	.st6{fill:#46AED2;}
	.st7{fill:#2F4572;}
	.st8{fill:#296ABD;}
	.st9{fill:#9FBFD9;}
	.st10{fill:#FFE06D;}
	.st11{fill:#FFB455;}
	.st12{fill:#779AB6;}
	.st13{fill:#FFF088;}
	.st14{fill:#FFFFB8;}
	.st15{fill:#C9EAFF;}
</style>
<g>
	<g>
		<g>
			<path class="st0" d="M1663.3,1135.7c30.4,19.1,11.6,55.8-30.3,99.3c-50.1,52-180.1,105.1-252.9,59.1c0,0,0,0,0,0
				c-6.6-4.2-12.8-9.2-18.4-15.1c-66.8-70.8,219.5-160.2,259.6-155.5C1640.3,1125.7,1654.1,1129.9,1663.3,1135.7z"/>
			<path class="st1" d="M1663.3,1135.7c30.4,19.1,11.6,55.8-30.3,99.3c-50.1,52-180.1,105.1-252.9,59.1
				C1457.8,1290.6,1589.8,1264.5,1663.3,1135.7z"/>
			<path class="st2" d="M1422.7,1208c21.1-9.1,57.3-20.8,61-13.8c3.7,7.2-26.5,34.1-61.5,47.3c-23.9,9-54.5,13.3-57.1,6.7
				C1362.1,1240.7,1395.2,1219.8,1422.7,1208z"/>
		</g>
		<g>
			<path class="st0" d="M2273.2,1251.3c0,146.1-102.5,317.7-265.4,317.7c-100.9,0-184-61.8-232.5-144.4
				c-29.9-50.7-46.7-109.3-46.7-166.2c0-149.7,163.4-142.5,266.9-142.5c113.5,0,248.3-8.7,273.5,97
				C2271.8,1224.3,2273.2,1237,2273.2,1251.3z"/>
			<path class="st1" d="M2273.2,1251.3c0,146.1-102.5,317.7-265.4,317.7c-100.9,0-184-61.8-232.5-144.4
				c101.1,47.6,389.2,146.2,493.7-211.7C2271.8,1224.3,2273.2,1237,2273.2,1251.3z"/>
			<path class="st2" d="M1785,1200.4c-21.2,34.5-6.2,83.6,30.1,102.9c38.4,20.4,90.6,2.1,104.9-38.4c13.6-38.5-12.6-81.6-50-93.7
				C1840,1161.5,1802.6,1171.7,1785,1200.4z"/>
		</g>
		<g>
			<path class="st0" d="M2403.8,1028.3c-43.4,51.3-81.3,73.4-102.6,28.8c-3.7-7.7-6.8-17.3-9.5-29c-8.8-39.5,50.9-333.4,128.2-274.1
				c20,15.3,31.9,37,37.8,61.8C2474.6,887,2441.5,983.7,2403.8,1028.3z"/>
			<path class="st1" d="M2403.8,1028.3c-43.4,51.3-81.3,73.4-102.6,28.8c33.5-18.6,94.8-74.4,156.5-241.3
				C2474.6,887,2441.5,983.7,2403.8,1028.3z"/>
			<path class="st2" d="M2362,871c-12.1,43.8-36.8,117.2-45,115.1c-7.4-1.9-2.5-65.3,20.4-124.7c12.8-33.1,32.5-68.4,38.1-66.3
				C2382.4,797.6,2365.8,857.4,2362,871z"/>
		</g>
		<g>
			<path class="st0" d="M1661.6,827.4c-10.3-8.9-18.5-19.5-24.5-31c-13.8-26.5-15.9-57.9-4.5-86c11.6-28.4,35.6-49.8,64.7-58.9
				c8.2-2.6,16.9-4.2,25.8-4.7C1751.3,761,1661.6,827.4,1661.6,827.4z"/>
			<path class="st1" d="M1661.6,827.4c-10.3-8.9-18.5-19.5-24.5-31c10.4-21.4,20.7-44.1,30.8-68.2c11.1-26.5,20.9-52.1,29.4-76.6
				c8.2-2.6,16.9-4.2,25.8-4.7C1702.6,707,1682.1,767.2,1661.6,827.4z"/>
			<path class="st0" d="M2240.6,904.2c-0.4,145.1-328.2,215.9-489.1,139.3c-44.7-21.3-76.5-53.9-84.9-99.5
				c-38.5-209.5,87.9-412.5,248.5-423.7c58.2-4,128.1,13.5,188.2,58.9C2180.2,637.4,2241.1,741.3,2240.6,904.2z"/>
			<path class="st3" d="M2145.8,782.6c2,29-28.6,49-68.8,62.5c-42.4,14.2-95.6,21-132.8,23.3c-53.2,3.2-156.5,1.1-195.8-30.1
				c-9.2-7.3-14.9-16.2-15.7-27c-2.2-31.4,8.9-60.7,28.6-82.8c19.7-22,48.1-36.8,80.3-39l179.4-12.5c37.5-2.6,72.1,12.3,95.3,37.5
				C2133.2,732.8,2144,756.3,2145.8,782.6z"/>
			<path class="st4" d="M2145.8,782.6c2,29-28.6,49-68.8,62.5c-42.4,14.2-95.6,21-132.8,23.3c-53.2,3.2-156.5,1.1-195.8-30.1
				c105.2-10.5,283.1-40.2,368-123.7C2133.2,732.8,2144,756.3,2145.8,782.6z"/>
			<path class="st1" d="M2240.6,904.2c-0.4,145.1-328.2,215.9-489.1,139.3c95.7,9.1,379.8,24.1,421.1-115.2
				c35.5-119.7-29.2-271.7-69.3-349C2180.2,637.4,2241.1,741.3,2240.6,904.2z"/>
			<path class="st2" d="M1739.9,675.3c9.3,10.7,60.3-16.6,93.8-45c32.1-27.3,64-69,55.6-79.6c-7.5-9.4-45.3,7.4-68.9,22.1
				C1767.8,605.6,1729.7,663.7,1739.9,675.3z"/>
			<path class="st2" d="M1678.9,905.4c3.9,38.5,30,73.5,39.4,70.3c9.8-3.3,2.6-49.1-3.8-74.1c-1.8-7.2-13-51.1-23.4-50.2
				C1682.9,852.1,1676.3,880.4,1678.9,905.4z"/>
			<g>
				<g>
					<path class="st5" d="M2107.5,760.7c2,28.8-19.7,53.8-48.6,55.8c-22.3,1.5-42.3-11.1-51.1-30.2c-2.6-5.6-4.3-11.8-4.7-18.4
						c-2-28.8,19.7-53.8,48.6-55.8c21.2-1.5,40.4,9.9,49.8,27.5C2104.8,746,2106.9,753.1,2107.5,760.7z"/>
					<path class="st6" d="M2055.2,712c19.7,0,37.3,11.1,46.2,27.7c3.4,6.3,5.5,13.4,6.1,21c2,28.8-19.7,53.8-48.6,55.8
						c-1.2,0.1-2.5,0.1-3.7,0.1c-20.8,0-39.1-12.3-47.4-30.3c-2.6-5.6-4.3-11.8-4.7-18.4c-2-28.8,19.7-53.8,48.6-55.8
						C2052.9,712,2054,712,2055.2,712L2055.2,712z M2055.3,703.1L2055.3,703.1c-1.4,0-2.9,0.1-4.3,0.1c-16.3,1.1-31.3,8.6-42,20.9
						c-10.7,12.3-16,28.1-14.9,44.5c0.5,7.5,2.4,14.7,5.5,21.5c10,21.6,31.8,35.5,55.6,35.5c1.4,0,2.9-0.1,4.3-0.1
						c16.3-1.1,31.2-8.6,42-20.9c10.7-12.3,16-28.1,14.9-44.5c-0.6-8.7-3-17-7.1-24.7C2098.6,715.5,2077.9,703.1,2055.3,703.1
						L2055.3,703.1z"/>
				</g>
				<path class="st7" d="M2101.3,739.6c-16.2,48.5-64.7,50.4-93.5,46.9c-2.6-5.6-4.3-11.8-4.8-18.4c-2.1-28.8,19.6-53.9,48.4-56
					C2072.7,710.6,2091.9,722,2101.3,739.6z"/>
				
					<ellipse transform="matrix(0.9976 -6.929391e-02 6.929391e-02 0.9976 -46.9676 142.7727)" class="st2" cx="2034.4" cy="748.4" rx="17.4" ry="17.4"/>
				<path class="st2" d="M2096.9,771.6c3,1.7,0.4,20.2-12.1,28c-11.1,7-26.6,3.5-27.2,0.2c-0.4-2.4,7.4-3.7,20-12.6
					C2091,777.9,2094.8,770.4,2096.9,771.6z"/>
			</g>
			<g>
				<g>
					<path class="st5" d="M1875.8,776.8c2,28.8-19.7,53.8-48.6,55.8c-22.3,1.5-42.3-11.1-51.1-30.2c-2.6-5.6-4.3-11.8-4.7-18.4
						c-2-28.8,19.7-53.8,48.6-55.8c21.2-1.5,40.4,9.9,49.8,27.5C1873.2,762.1,1875.3,769.2,1875.8,776.8z"/>
					<path class="st6" d="M1823.8,728.1c19.7,0,37.1,11.1,46,27.7c3.4,6.3,5.5,13.4,6.1,21c2,28.8-19.7,53.8-48.6,55.8
						c-1.2,0.1-2.5,0.1-3.7,0.1c-20.8,0-39.1-12.3-47.4-30.3c-2.6-5.6-4.3-11.8-4.7-18.4c-2-28.8,19.7-53.8,48.6-55.8
						C1821.2,728.1,1822.6,728.1,1823.8,728.1L1823.8,728.1z M1823.7,719.1L1823.7,719.1c-1.4,0-2.9,0.1-4.3,0.1
						c-16.3,1.1-31.3,8.6-42,20.9c-10.7,12.3-16,28.1-14.9,44.5c0.5,7.5,2.4,14.7,5.5,21.5c10,21.6,31.8,35.5,55.6,35.5
						c1.4,0,2.9-0.1,4.3-0.1c33.7-2.3,59.2-31.7,56.9-65.4c-0.6-8.7-3-17-7.1-24.7C1867,731.6,1846.3,719.1,1823.7,719.1
						L1823.7,719.1z"/>
				</g>
				<path class="st7" d="M1869.8,755.8c-16.2,48.5-64.7,50.3-93.5,46.8c-2.6-5.6-4.3-11.8-4.8-18.4c-2.1-28.8,19.6-53.9,48.4-56
					C1841.1,726.7,1860.3,738.2,1869.8,755.8z"/>
				
					<ellipse transform="matrix(0.9976 -6.929391e-02 6.929391e-02 0.9976 -48.6388 126.7618)" class="st2" cx="1802.8" cy="764.5" rx="17.4" ry="17.4"/>
				<path class="st2" d="M1865.3,787.7c3,1.7,0.4,20.2-12.1,28c-11.1,7-26.6,3.5-27.2,0.2c-0.4-2.4,7.4-3.7,20-12.6
					C1859.4,794,1863.2,786.5,1865.3,787.7z"/>
			</g>
			<path class="st8" d="M1947.8,694.1c0.7,3.4-22.1,13.2-46.3,17.2c-39.2,6.4-76.2-3.6-75.9-8c0.1-2,25-4,74.8-7.9
				C1940.4,692.3,1947.4,692.3,1947.8,694.1z"/>
			<g>
				<path class="st0" d="M1634.8,729.3c-1.1-0.8-27.3-19-45.2-57c-16.4-34.7-28.7-93.3,5.9-174.9l14.4,6.1
					c-25.8,60.9-28,115.2-6.5,161.4c16,34.4,40,51.4,40.3,51.5L1634.8,729.3z"/>
				
					<ellipse transform="matrix(0.1092 -0.994 0.994 0.1092 954.2142 2031.4403)" class="st3" cx="1610.6" cy="483.3" rx="36.4" ry="36.4"/>
				
					<ellipse transform="matrix(0.9975 -7.034408e-02 7.034408e-02 0.9975 -29.2956 114.1798)" class="st8" cx="1606.5" cy="473" rx="19.6" ry="19.6"/>
			</g>
			<g>
				<path class="st3" d="M1953.7,996.6c-25,2.5-45.6-7.7-61.3-21.8c-28-25.4-39.9-63.7-31.9-65.3c12.5-2.5,44.6,15,78.6,11.6
					c39.1-3.8,64.4-19.8,84.3-22.9c0.9-0.2,1.8-0.3,2.6-0.3C2046.5,895.9,2030.5,989.1,1953.7,996.6z"/>
				<path class="st4" d="M1953.7,996.6c-25,2.5-45.6-7.7-61.3-21.8c33.4-9.4,98.5-32.5,131.1-76.6c0.9-0.2,1.8-0.3,2.6-0.3
					C2046.5,895.9,2030.5,989.1,1953.7,996.6z"/>
			</g>
		</g>
	</g>
	<g>
		<path class="st9" d="M2233.3,534.6l-73.9-21.8c-4.8-1.4-7.5-6.4-6.1-11.2l29.4-99.8c1.4-4.8,6.4-7.5,11.2-6.1l73.9,21.8
			c4.8,1.4,7.5,6.4,6.1,11.2l-29.4,99.8C2243.1,533.3,2238.1,536,2233.3,534.6z"/>
		<g>
			<path class="st10" d="M2370.8,308.7c-8.1,27.5-27.7,48.6-52.6,60.3c-8.1,3.8-14.3,10.9-16.8,19.5l-10.6,35.9
				c-4.9,16.6-22.3,26.1-38.9,21.2l-59.9-17.6c-16.6-4.9-26.1-22.3-21.2-38.9l10.6-35.9c2.5-8.6,1.2-17.9-3.6-25.5
				c-14.6-23.3-19.6-51.7-11.6-79.2c15.6-52.9,74-82.4,130.5-65.8C2353.2,199.3,2386.4,255.7,2370.8,308.7z"/>
			<path class="st11" d="M2296.8,182.7c56.5,16.6,89.6,73,74,126c-8.1,27.5-27.7,48.6-52.6,60.3c-8.1,3.8-14.3,10.9-16.8,19.5
				l-10.6,35.9c-4.9,16.6-22.3,26.1-38.9,21.2l-59.9-17.6c-16.6-4.9-26.1-22.3-21.2-38.9l10.6-35.9c2.5-8.6,1.2-17.9-3.6-25.5
				c-14.6-23.3-19.6-51.7-11.6-79.2C2181.9,195.5,2240.3,166.1,2296.8,182.7L2296.8,182.7z M2299.6,173.2
				c-29.7-8.8-60.9-6.1-87.8,7.5c-27.1,13.7-46.6,36.8-54.9,65c-4.4,14.8-5.4,30.1-3,45.5c2.3,14.7,7.6,28.8,15.7,41.8
				c3.3,5.2,4.2,11.6,2.4,17.5l-10.6,35.9c-6.4,21.8,6.1,44.7,27.9,51.1l59.9,17.6c21.8,6.4,44.7-6.1,51.1-27.9l10.6-35.9
				c1.7-5.9,5.9-10.8,11.5-13.4c13.9-6.5,25.9-15.4,35.8-26.6c10.3-11.6,17.7-25,22.1-39.8c8.3-28.3,4.4-58.2-11-84.4
				C2354.1,201.1,2329.3,182,2299.6,173.2L2299.6,173.2z"/>
		</g>
		<path class="st12" d="M2260.4,477.8l-93-27.4c-2.4-0.7-3.8-3.3-3.1-5.7l0,0c0.7-2.4,3.3-3.8,5.7-3.1l93,27.4
			c2.4,0.7,3.8,3.3,3.1,5.7l0,0C2265.4,477.1,2262.9,478.5,2260.4,477.8z"/>
		<path class="st12" d="M2254.5,498l-93-27.4c-2.4-0.7-3.8-3.3-3.1-5.7l0,0c0.7-2.4,3.3-3.8,5.7-3.1l93,27.4
			c2.4,0.7,3.8,3.3,3.1,5.7l0,0C2259.4,497.3,2256.9,498.7,2254.5,498z"/>
		<path class="st12" d="M2248.5,518.2l-93-27.4c-2.4-0.7-3.8-3.3-3.1-5.7l0,0c0.7-2.4,3.3-3.8,5.7-3.1l93,27.4
			c2.4,0.7,3.8,3.3,3.1,5.7l0,0C2253.5,517.5,2251,518.9,2248.5,518.2z"/>
		<g>
			<g>
				
					<ellipse transform="matrix(0.2824 -0.9593 0.9593 0.2824 1363.0126 2375.2651)" class="st13" cx="2269.1" cy="276.6" rx="82.4" ry="82.4"/>
			</g>
		</g>
		<path class="st14" d="M2257.1,317.5c-27.6-8.1-41.2-29.6-44.7-36.1c-1-1.9-0.4-4.3,1.6-5.4c1.9-1,4.3-0.3,5.4,1.6
			c3.2,5.9,15.7,25.6,41.1,32.6c23.5,6.5,42.8-1.9,50-5.8c1.9-1,4.3-0.3,5.4,1.6c1,1.9,0.3,4.3-1.6,5.4c-8,4.4-29.6,13.7-55.9,6.4
			C2257.9,317.7,2257.5,317.6,2257.1,317.5z"/>
		<path class="st14" d="M2189.7,409.1c-2.1-0.6-3.3-2.8-2.7-4.9l13.5-45.8c0.6-2.1,2.8-3.3,4.9-2.7c2.1,0.6,3.3,2.8,2.7,4.9
			l-13.5,45.8C2194,408.5,2191.8,409.7,2189.7,409.1z"/>
		<path class="st11" d="M2172,151.1c-1.3-0.4-2.5-1.3-3.1-2.7l-36.7-82.3c-1.1-2.5,0-5.4,2.5-6.5c2.5-1.1,5.4,0,6.5,2.5l36.7,82.3
			c1.1,2.5,0,5.4-2.5,6.5C2174.3,151.4,2173.1,151.4,2172,151.1z"/>
		<path class="st11" d="M2271.9,125.2c-2-0.6-3.5-2.5-3.5-4.7l-0.5-90.1c0-2.7,2.2-4.9,4.9-5c2.7,0,4.9,2.2,5,4.9l0.5,90.1
			c0,2.7-2.2,4.9-4.9,5C2272.8,125.4,2272.3,125.4,2271.9,125.2z"/>
		<path class="st11" d="M2343.9,146.9c-0.5-0.1-1-0.4-1.4-0.7c-2.2-1.6-2.8-4.6-1.2-6.9l51.7-73.8c1.6-2.2,4.6-2.8,6.9-1.2
			c2.2,1.6,2.8,4.6,1.2,6.9l-51.7,73.8C2348,146.7,2345.8,147.4,2343.9,146.9z"/>
		<path class="st11" d="M2405.4,212.7c-1.4-0.4-2.6-1.5-3.2-3c-1-2.5,0.3-5.4,2.8-6.4l84.1-32.4c2.5-1,5.4,0.3,6.4,2.8
			c1,2.5-0.3,5.4-2.8,6.4l-84.1,32.4C2407.5,212.9,2406.4,213,2405.4,212.7z"/>
	</g>
	<ellipse class="st15" cx="2017.1" cy="1712" rx="282.9" ry="73.3"/>
</g>
</svg>
