<?xml version="1.0" encoding="utf-8"?>
<!-- Generator: Adobe Illustrator 21.0.2, SVG Export Plug-In . SVG Version: 6.00 Build 0)  -->
<svg version="1.1" id="Layer_2" xmlns="http://www.w3.org/2000/svg" xmlns:xlink="http://www.w3.org/1999/xlink" x="0px" y="0px"
	 viewBox="0 0 3857.2 2000" style="enable-background:new 0 0 3857.2 2000;" xml:space="preserve">
<style type="text/css">
	.st0{fill:#5FBBE8;}
	.st1{fill:#5FAEDE;}
	.st2{fill:#294F81;}
	.st3{fill:#33487A;}
	.st4{fill:#B1ECED;}
	.st5{fill:#393760;}
	.st6{fill:#46AED2;}
	.st7{fill:#2F4572;}
	.st8{fill:#296ABD;}
	.st9{fill:#D36E52;}
	.st10{fill:#E4B166;}
	.st11{fill:#F3E0B3;}
	.st12{fill:#F48B4D;}
	.st13{fill:#C9EAFF;}
</style>
<g>
	<g>
		<path class="st0" d="M1487.8,676.1c-10.8-10.8-19.2-23.3-25-36.7c-13.4-30.8-13.4-66.2,1.6-96.8c15.2-31,43.9-53.1,77.2-61
			c9.4-2.3,19.3-3.4,29.3-3.2C1593.7,608.6,1487.8,676.1,1487.8,676.1z"/>
		<path class="st1" d="M1487.8,676.1c-10.8-10.8-19.2-23.3-25-36.7c13.3-23.2,26.7-47.9,39.8-74.1c14.5-28.9,27.5-56.8,39-83.7
			c9.4-2.3,19.3-3.4,29.3-3.2C1543.2,544.2,1515.5,610.2,1487.8,676.1z"/>
		<path class="st0" d="M2131.5,807.4c-11.7,162.8-385,216.6-559.6,118.2c-48.5-27.3-81.7-66.4-87.5-118.2
			c-26.8-238,130.8-456,311.8-456c65.6,0,142.7,25.1,206.5,80.8C2084.5,503.4,2144.7,624.7,2131.5,807.4z"/>
		<path class="st0" d="M1477.2,562.3c-1.3-0.7-32.8-17.9-57.5-58.1c-22.6-36.8-43.5-100.8-14.9-196.2l16.9,5.1
			c-21.4,71.2-17.2,132.2,12.6,181.2c22.2,36.5,51.1,52.5,51.4,52.6L1477.2,562.3z"/>
		<circle class="st2" cx="1419.9" cy="290.3" r="41"/>
		<path class="st2" d="M2034.6,663.6c0,32.7-35.9,52.8-82.1,64.7c-48.7,12.6-108.9,16.1-150.8,15.7c-60-0.6-175.6-11-217.4-49
			c-9.8-8.9-15.5-19.3-15.5-31.5c0-35.4,14.7-67.4,38.6-90.6c23.8-23.2,56.8-37.5,93.2-37.5h202.2c42.3,0,79.9,19.4,104,49.5
			C2024.3,606.7,2034.6,634,2034.6,663.6z"/>
		<path class="st3" d="M2034.6,663.6c0,32.7-35.9,52.8-82.1,64.7c-48.7,12.6-108.9,16.1-150.8,15.7c-60-0.6-175.6-11-217.4-49
			c118.8-3.6,320.7-23.1,422.5-110.1C2024.3,606.7,2034.6,634,2034.6,663.6z"/>
		<path class="st1" d="M2131.5,807.4c-11.7,162.8-385,216.6-559.6,118.2c106.7,17.7,424.2,56.6,481.3-96.4
			c49.1-131.6-11.6-307.1-50.5-397C2084.5,503.4,2144.7,624.7,2131.5,807.4z"/>
		<path class="st4" d="M1587.6,511.6c9.6,12.7,69-13.9,108.8-43.2c38.2-28.1,77.1-72.4,68.5-84.9c-7.6-11.1-51.4,4.7-79,19.4
			C1624.3,435.6,1577.1,497.7,1587.6,511.6z"/>
		<path class="st4" d="M1501.2,764.9c1.4,43.5,28,84.8,38.7,82c11.3-3,6.7-54.9,1.5-83.4c-1.5-8.2-10.6-58.3-22.4-58.1
			C1509.8,705.5,1500.2,736.8,1501.2,764.9z"/>
		<g>
			<g>
				<path class="st5" d="M1993.3,636.1c0,32.5-26.3,58.9-58.9,58.9c-25.1,0-46.6-15.7-55-37.9c-2.5-6.5-3.9-13.6-3.9-21
					c0-32.5,26.3-58.9,58.9-58.9c23.9,0,44.5,14.3,53.7,34.8C1991.4,619.3,1993.3,627.5,1993.3,636.1z"/>
				<path class="st6" d="M1934.4,577.2c23.9,0,44.5,14.3,53.7,34.8c3.3,7.4,5.2,15.5,5.2,24.1c0,32.5-26.3,58.9-58.9,58.9
					c-25.1,0-46.6-15.7-55-37.9c-2.5-6.5-3.9-13.6-3.9-21C1875.5,603.6,1901.9,577.2,1934.4,577.2L1934.4,577.2z M1934.4,567.2
					c-38,0-68.9,30.9-68.9,68.9c0,8.4,1.5,16.7,4.5,24.6c10.1,26.5,36,44.3,64.4,44.3c38,0,68.9-30.9,68.9-68.9
					c0-9.8-2-19.3-6.1-28.2C1986.2,583.1,1961.5,567.2,1934.4,567.2L1934.4,567.2z"/>
			</g>
			<path class="st7" d="M1988.1,611.8c-22,53.1-76.5,51.6-108.6,45.4c-2.5-6.5-3.9-13.6-3.9-21c-0.1-32.5,26.2-58.9,58.7-59
				C1958.2,577.1,1978.8,591.3,1988.1,611.8z"/>
			<circle class="st4" cx="1912.3" cy="616.5" r="19.5"/>
			<path class="st4" d="M1980.6,647.5c3.2,2.1-1.2,22.6-15.7,30.5c-12.9,7-30.1,1.9-30.5-1.9c-0.3-2.8,8.6-3.5,23.5-12.5
				C1973.5,654.1,1978.3,646,1980.6,647.5z"/>
		</g>
		<g>
			<g>
				<path class="st5" d="M1732.2,636.1c0,32.5-26.3,58.9-58.9,58.9c-25.1,0-46.6-15.7-55-37.9c-2.5-6.5-3.9-13.6-3.9-21
					c0-32.5,26.3-58.9,58.9-58.9c23.9,0,44.5,14.3,53.7,34.8C1730.3,619.3,1732.2,627.5,1732.2,636.1z"/>
				<path class="st6" d="M1673.3,577.2c23.9,0,44.5,14.3,53.7,34.8c3.3,7.4,5.2,15.5,5.2,24.1c0,32.5-26.3,58.9-58.9,58.9
					c-25.1,0-46.6-15.7-55-37.9c-2.5-6.5-3.9-13.6-3.9-21C1614.4,603.6,1640.8,577.2,1673.3,577.2L1673.3,577.2z M1673.3,567.1
					c-38,0-68.9,30.9-68.9,68.9c0,8.4,1.5,16.7,4.5,24.6c10.1,26.5,36,44.3,64.4,44.3c38,0,68.9-30.9,68.9-68.9
					c0-9.8-2-19.3-6.1-28.2C1725.1,583.1,1700.4,567.1,1673.3,567.1L1673.3,567.1z"/>
			</g>
			<path class="st7" d="M1727,611.8c-22,53.1-76.5,51.6-108.6,45.4c-2.5-6.5-3.9-13.6-3.9-21c-0.1-32.5,26.2-58.9,58.7-59
				C1697.1,577.1,1717.7,591.3,1727,611.8z"/>
			<circle class="st4" cx="1651.2" cy="616.5" r="19.5"/>
			<path class="st4" d="M1719.5,647.5c3.2,2.1-1.2,22.6-15.7,30.5c-12.9,7-30.1,1.9-30.5-1.9c-0.3-2.8,8.6-3.5,23.5-12.5
				C1712.4,654.1,1717.2,646,1719.5,647.5z"/>
		</g>
		<path class="st8" d="M1819.3,548.9c0.6,3.9-25.9,13.1-53.3,15.6c-44.4,4.1-85.2-10-84.6-14.9c0.3-2.3,28.4-2.5,84.6-3
			C1811.2,546.3,1819,546.8,1819.3,548.9z"/>
		
			<ellipse transform="matrix(0.9839 -0.1789 0.1789 0.9839 -27.1579 257.4751)" class="st8" cx="1414.1" cy="279.3" rx="22" ry="22"/>
	</g>
	<g>
		<path class="st0" d="M2108,1179.5c0,164.3-115.3,357.3-298.4,357.3c-113.5,0-206.9-69.5-261.5-162.4
			c-33.6-57-52.5-122.9-52.5-186.9c0-168.3,183.7-160.3,300.1-160.3c127.7,0,279.3-9.8,307.5,109.1
			C2106.3,1149.2,2108,1163.5,2108,1179.5z"/>
		<path class="st1" d="M2108,1179.5c0,164.3-115.3,357.3-298.4,357.3c-113.5,0-206.9-69.5-261.5-162.4
			c113.7,53.5,437.7,164.4,555.2-238.1C2106.3,1149.2,2108,1163.5,2108,1179.5z"/>
		<path class="st4" d="M1559,1122.3c-23.8,38.8-7,94,33.9,115.7c43.2,22.9,101.9,2.4,118-43.2c15.3-43.3-14.1-91.7-56.2-105.3
			C1620.8,1078.5,1578.8,1090,1559,1122.3z"/>
	</g>
	<g>
		<path class="st0" d="M1432.7,1075.2c36.5,17.4,20.1,60.8-21.1,114.8c-49.2,64.5-187.6,140.7-274.9,98.7c0,0,0,0,0,0
			c-8-3.8-15.5-8.6-22.5-14.5c-83.8-70.4,224.5-207.3,270-207.2C1405.8,1067,1421.7,1069.9,1432.7,1075.2z"/>
		<path class="st1" d="M1432.7,1075.2c36.5,17.4,20.1,60.8-21.1,114.8c-49.2,64.5-187.6,140.7-274.9,98.7
			C1223.1,1274.8,1367.2,1228.6,1432.7,1075.2z"/>
		<path class="st4" d="M1173.3,1187c22.4-12.9,61.4-30.6,66.3-23.2c5.1,7.5-25.2,41.5-62.6,60.7c-25.5,13.2-59.1,21.9-62.9,14.8
			C1109.8,1231.3,1144.1,1203.8,1173.3,1187z"/>
	</g>
	<g>
		<path class="st0" d="M2156.9,1130.2c8.9,39.4,54.9,33,116.6,4.7c73.8-33.8,178.5-152.1,156.7-246.5c0,0,0,0,0,0
			c-2-8.6-5-17-9.2-25.1c-50.3-97.2-251.6,173.4-261.5,217.8C2154.8,1102.1,2154.2,1118.3,2156.9,1130.2z"/>
		<path class="st1" d="M2156.9,1130.2c8.9,39.4,54.9,33,116.6,4.7c73.8-33.8,178.5-152.1,156.7-246.5
			C2397.7,969.7,2320.9,1100,2156.9,1130.2z"/>
		<path class="st4" d="M2323.1,901.7c-17.5,19-43.3,53.1-37.3,59.6c6.2,6.6,46-15.4,73-47.7c18.5-22,34.4-52.9,28.3-58.1
			C2380.3,849.6,2345.8,876.9,2323.1,901.7z"/>
	</g>
	<path class="st3" d="M1670.7,773.2c10.5,5.7,21.1,10.7,31.8,15.1c10.7,4.5,21.6,8.5,32.5,11.8c21.9,6.7,44.4,10.7,66.8,11.2
		c11.2,0.2,22.5-0.5,33.6-1.9c11.2-1.6,22.1-4.2,33.1-7.4c21.7-6.8,42.6-16.9,63.2-28.9c-16,17.6-36.1,31.9-58.4,41.8
		c-11.3,4.7-23,8.5-35.1,10.8c-3,0.6-6.1,1-9.1,1.4c-3,0.5-6.1,0.8-9.2,1c-6.1,0.6-12.3,0.6-18.5,0.6c-24.6-0.6-48.9-6.3-71.2-15.9
		c-11.1-4.8-21.8-10.5-31.9-17.1c-5-3.3-9.9-6.8-14.5-10.6C1679.3,781.6,1674.8,777.6,1670.7,773.2z"/>
	<g>
		<path class="st9" d="M2546.4,1003.9L2546.4,1003.9c-11,19.1-35.5,25.6-54.6,14.6l-330.9-191c-19.1-11-25.6-35.5-14.6-54.6l0,0
			c11-19.1,35.5-25.6,54.6-14.6l330.9,191C2550.9,960.4,2557.4,984.8,2546.4,1003.9z"/>
		<path class="st3" d="M2236.1,627.1c0,140.6-114,254.6-254.6,254.6c-117.9,0-217-80.1-246-188.9c-5.6-21-8.6-43-8.6-65.7
			c0-140.6,114-254.6,254.6-254.6c88,0,165.6,44.7,211.4,112.6C2220.2,525.7,2236.1,574.5,2236.1,627.1z"/>
		<path class="st2" d="M2204.2,483.6c-16.4,27.8-35.6,52.1-56.9,73.2c-93.4,92.6-225.9,124.6-323.2,134.9
			c-35.3,3.8-65.9,4.7-88.4,4.6c-5.7-21.5-8.8-44-8.8-67.3c0-144,116.7-260.8,260.8-260.8C2077.9,368.3,2157.4,414,2204.2,483.6z"/>
		<path class="st0" d="M1828,757.6c0,0,138.8,38.7,299.8,0C2127.8,757.6,2012.5,906.6,1828,757.6z"/>
		<path class="st10" d="M2204.2,477.5c-48.2-71.6-129.9-118.7-222.7-118.7c-148.1,0-268.2,120.1-268.2,268.2c0,23.9,3.1,47.1,9,69.2
			c30.5,114.6,135,199,259.2,199c148.1,0,268.2-120.1,268.2-268.2C2249.8,571.7,2233,520.3,2204.2,477.5z M1981.5,807.3
			c-76.7,0-142.3-48.1-168.3-115.7c-7.7-20-11.9-41.8-11.9-64.5c0-99.4,80.8-180.2,180.2-180.2c72.9,0,135.8,43.5,164.2,105.9
			c10.3,22.7,16,47.8,16,74.3C2161.8,726.5,2080.9,807.3,1981.5,807.3z"/>
	</g>
	<g>
		<g>
			<path class="st5" d="M2096.2,627.1c0,63.3-51.3,114.6-114.6,114.6c-48.9,0-90.7-30.6-107.1-73.7c-4.8-12.7-7.5-26.5-7.5-40.9
				c0-63.3,51.3-114.6,114.7-114.6c46.6,0,86.7,27.8,104.5,67.7C2092.6,594.5,2096.2,610.4,2096.2,627.1z"/>
			<path class="st6" d="M1981.6,512.5c46.6,0,86.7,27.8,104.5,67.7c6.5,14.3,10.1,30.2,10.1,46.9c0,63.3-51.3,114.6-114.6,114.6
				c-48.9,0-90.7-30.6-107.1-73.7c-4.8-12.7-7.5-26.5-7.5-40.9C1866.9,563.8,1918.2,512.5,1981.6,512.5L1981.6,512.5z M1981.6,492.9
				c-74,0-134.2,60.2-134.2,134.2c0,16.4,3,32.5,8.8,47.9c19.7,51.6,70.1,86.3,125.4,86.3c74,0,134.2-60.2,134.2-134.2
				c0-19.1-4-37.6-11.8-55C2082.4,524,2034.4,492.9,1981.6,492.9L1981.6,492.9z"/>
		</g>
		<path class="st7" d="M2086,580c-42.8,103.4-148.9,100.4-211.3,88.3c-4.9-12.7-7.6-26.4-7.7-40.8c-0.2-63.3,50.9-114.8,114.3-115
			C2027.9,512.3,2068,540.1,2086,580z"/>
		<circle class="st4" cx="1938.5" cy="589.1" r="38"/>
		<path class="st4" d="M2071.4,649.4c6.2,4.2-2.3,44.1-30.6,59.4c-25.2,13.6-58.6,3.6-59.4-3.7c-0.6-5.4,16.7-6.9,45.7-24.4
			C2057.6,662.2,2067.1,646.4,2071.4,649.4z"/>
	</g>
	<path class="st0" d="M2340.5,838.9c0,0-10,103,103.2,59.6C2443.7,898.5,2444.8,806.9,2340.5,838.9z"/>
	<path class="st4" d="M2392,868.1c5.7,10.2,10.2,27.2,4,31.8c-8,6-35.7-7.8-41-29.1c-2.1-8.6-1.3-21.3,5.2-24.6
		C2368.7,842,2384.5,854.8,2392,868.1z"/>
	<path class="st11" d="M1750.4,673.2c-5.1,0-9.5-3.9-10-9.1c0-0.5-0.1-1.1-0.2-2c-10.2-87.2,17-166.6,74.7-217.9
		c77.1-68.5,169.4-65,195.8-62.2c5.5,0.6,9.5,5.5,9,11c-0.6,5.5-5.5,9.5-11,9c-24.4-2.5-109.4-5.8-180.4,57.3
		c-72.2,64.2-73.7,153.2-68.1,200.6c0.1,1,0.2,1.8,0.3,2.3c0.6,5.5-3.5,10.5-9,11C1751,673.2,1750.7,673.2,1750.4,673.2z"/>
	<path class="st11" d="M2121.8,805.5c-2.7,0-5.3-1.1-7.3-3.2c-3.8-4-3.6-10.4,0.4-14.2c56.5-53.4,81.9-128.6,67.9-201.3
		c-1.1-5.5,2.5-10.7,8-11.8c5.5-1,10.7,2.5,11.8,8c15.3,79.5-12.3,161.6-73.8,219.7C2126.7,804.6,2124.2,805.5,2121.8,805.5z"/>
	<path class="st11" d="M1981.2,847.5c-19.1,0-37-2.2-51.6-5.5c-5.4-1.2-8.8-6.6-7.6-12.1c1.2-5.4,6.6-8.8,12.1-7.6
		c40,9.2,99,7.1,140.6-18.3c4.7-2.9,10.9-1.4,13.8,3.4c2.9,4.7,1.4,10.9-3.4,13.8C2053.4,840.6,2015.2,847.5,1981.2,847.5z"/>
	<path class="st12" d="M2314,863.5c-1.5,0-3.1-0.4-4.5-1.2l-96.9-58c-4.2-2.5-5.5-7.9-3-12.1c2.5-4.2,7.9-5.5,12.1-3l96.9,58
		c4.2,2.5,5.5,7.9,3,12.1C2319.9,862,2317,863.5,2314,863.5z"/>
	<path class="st12" d="M2525.6,983.7c-1.4,0-2.8-0.3-4.1-1l-92.5-48.9c-4.3-2.3-5.9-7.6-3.7-11.9c2.3-4.3,7.6-5.9,11.9-3.7
		l92.5,48.9c4.3,2.3,5.9,7.6,3.7,11.9C2531.8,982,2528.8,983.7,2525.6,983.7z"/>
	<ellipse class="st13" cx="1819.3" cy="1694.5" rx="318.1" ry="82.5"/>
</g>
</svg>
