<?xml version="1.0" encoding="utf-8"?>
<!-- Generator: Adobe Illustrator 21.0.2, SVG Export Plug-In . SVG Version: 6.00 Build 0)  -->
<svg version="1.1" id="Layer_2" xmlns="http://www.w3.org/2000/svg" xmlns:xlink="http://www.w3.org/1999/xlink" x="0px" y="0px"
	 viewBox="0 0 3857.2 2000" style="enable-background:new 0 0 3857.2 2000;" xml:space="preserve">
<style type="text/css">
	.st0{fill:#FFFFFF;}
	.st1{fill:#5FBBE8;}
	.st2{fill:#5FAEDE;}
	.st3{fill:#B1ECED;}
	.st4{fill:#294F81;}
	.st5{fill:#33487A;}
	.st6{fill:#393760;}
	.st7{fill:#46AED2;}
	.st8{fill:#2F4572;}
	.st9{fill:#296ABD;}
	.st10{fill:#BBE1F4;}
	.st11{fill:#B1D3F0;}
	.st12{fill:#BBDAF4;}
	.st13{fill:#CAEFF9;}
	.st14{fill:#C9EAFF;}
	.st15{fill:#D36E52;}
	.st16{fill:#E4B166;}
	.st17{fill:#F3E0B3;}
	.st18{fill:#F48B4D;}
	.st19{fill:#9FBFD9;}
	.st20{fill:#FFE06D;}
	.st21{fill:#FFB455;}
	.st22{fill:#779AB6;}
	.st23{fill:#FFF088;}
	.st24{fill:#FFFFB8;}
	.st25{fill:#D7F5F6;}
	.st26{fill:#F6B35B;}
	.st27{fill:#EA4754;}
	.st28{fill:#92EF9A;}
	.st29{fill:#D87F3B;}
	.st30{fill:#FFDB5E;}
	.st31{fill:#FFCF56;}
	.st32{fill:#FF5E56;}
	.st33{fill:#FFEADE;}
	.st34{fill:#E2474C;}
	.st35{fill:#6D9F37;}
	.st36{fill:#BB75CF;}
	.st37{fill:#B15BBA;}
	.st38{fill:#F8EF57;}
	.st39{fill:#576BAE;}
	.st40{fill:#5776D2;}
	.st41{fill:#5B96DA;}
	.st42{fill:#D8E3FF;}
	.st43{fill:#E3EEFF;}
	.st44{fill:#5BACDA;}
	.st45{fill:#326BAB;}
	.st46{fill:#DEFFFF;}
	.st47{fill:#B2C6FA;}
	.st48{fill:#C2DDFF;}
</style>
<rect class="st0" width="3857.2" height="2000"/>
<g>
	<g>
		<path class="st1" d="M226.6,697.2c-4.5,19.7-27.5,16.5-58.4,2.4c-37-16.9-89.4-76.2-78.5-123.5c0,0,0,0,0,0
			c1-4.3,2.5-8.5,4.6-12.6c25.2-48.7,126.1,86.9,131,109.1C227.6,683.2,228,691.3,226.6,697.2z"/>
		<path class="st2" d="M226.6,697.2c-4.5,19.7-27.5,16.5-58.4,2.4c-37-16.9-89.4-76.2-78.5-123.5
			C105.9,616.8,144.4,682.1,226.6,697.2z"/>
		<path class="st3" d="M143.3,582.7c8.7,9.5,21.7,26.6,18.7,29.9c-3.1,3.3-23-7.7-36.6-23.9c-9.2-11-17.2-26.5-14.2-29.1
			C114.7,556.6,131.9,570.3,143.3,582.7z"/>
	</g>
	<g>
		<path class="st1" d="M560.7,749c0,82.3-57.8,179-149.5,179c-56.9,0-103.7-34.8-131-81.4c-16.8-28.6-26.3-61.6-26.3-93.7
			c0-84.3,92.1-80.3,150.4-80.3c64,0,139.9-4.9,154.1,54.7C559.9,733.8,560.7,741,560.7,749z"/>
		<path class="st2" d="M560.7,749c0,82.3-57.8,179-149.5,179c-56.9,0-103.7-34.8-131-81.4c57,26.8,219.3,82.4,278.2-119.3
			C559.9,733.8,560.7,741,560.7,749z"/>
		<path class="st3" d="M285.6,720.4c-11.9,19.4-3.5,47.1,17,58c21.6,11.5,51.1,1.2,59.1-21.6c7.6-21.7-7.1-46-28.2-52.8
			C316.6,698.4,295.5,704.2,285.6,720.4z"/>
	</g>
	<g>
		<path class="st1" d="M687.7,808.8c-0.9,37.8-9.7,60.9-34.9,48.9c-4.3-2.1-9.1-5.2-14.4-9.4C620.6,834.1,543,684,597.8,682.7
			c14.2-0.3,27.1,5,38.4,13.8C668.8,721.7,688.5,775.9,687.7,808.8z"/>
		<path class="st2" d="M687.7,808.8c-0.9,37.8-9.7,60.9-34.9,48.9c8.1-20,15.3-66.2-16.6-161.2C668.8,721.7,688.5,775.9,687.7,808.8
			z"/>
		<path class="st3" d="M613.7,754.5c10.1,23.5,25.3,64.4,20.9,66.5c-3.9,1.8-24.2-27.8-35.1-62c-6.1-19-9.9-41.5-6.7-42.6
			C596.7,715.1,610.6,747.2,613.7,754.5z"/>
	</g>
	<g>
		<path class="st1" d="M247.2,499.4c-5.4-5.4-9.6-11.7-12.5-18.4c-6.7-15.4-6.7-33.2,0.8-48.5c7.6-15.5,22-26.6,38.7-30.6
			c4.7-1.1,9.7-1.7,14.7-1.6C300.2,465.6,247.2,499.4,247.2,499.4z"/>
		<path class="st2" d="M247.2,499.4c-5.4-5.4-9.6-11.7-12.5-18.4c6.7-11.6,13.4-24,20-37.1c7.3-14.5,13.8-28.5,19.5-41.9
			c4.7-1.1,9.7-1.7,14.7-1.6C274.9,433.3,261,466.4,247.2,499.4z"/>
		<path class="st1" d="M569.7,565.2c-5.9,81.6-192.9,108.5-280.4,59.2c-24.3-13.7-40.9-33.3-43.8-59.2
			C232,445.9,311,336.7,401.7,336.7c32.9,0,71.5,12.6,103.5,40.5C546.2,412.9,576.3,473.7,569.7,565.2z"/>
		<path class="st1" d="M241.9,442.4c-0.7-0.4-16.5-9-28.8-29.1c-11.3-18.4-21.8-50.5-7.5-98.3l8.4,2.5c-10.7,35.7-8.6,66.2,6.3,90.8
			c11.1,18.3,25.6,26.3,25.7,26.4L241.9,442.4z"/>
		<circle class="st4" cx="213.1" cy="306.1" r="20.5"/>
		<path class="st4" d="M521.1,493.1c0,16.4-18,26.4-41.1,32.4c-24.4,6.3-54.5,8.1-75.5,7.9c-30.1-0.3-88-5.5-108.9-24.5
			c-4.9-4.5-7.8-9.7-7.8-15.8c0-17.7,7.4-33.8,19.3-45.4c11.9-11.6,28.5-18.8,46.7-18.8h101.3c21.2,0,40.1,9.7,52.1,24.8
			C516,464.6,521.1,478.3,521.1,493.1z"/>
		<path class="st5" d="M521.1,493.1c0,16.4-18,26.4-41.1,32.4c-24.4,6.3-54.5,8.1-75.5,7.9c-30.1-0.3-88-5.5-108.9-24.5
			c59.5-1.8,160.7-11.6,211.7-55.2C516,464.6,521.1,478.3,521.1,493.1z"/>
		<path class="st4" d="M407.3,607.1c-19.2,0-34.2-6.8-45-15.6c-19.5-15.8-25.6-37.9-19.4-38.4c9.7-0.7,32.8,10.8,59,10.8
			c30,0,50.5-7.6,65.9-8.2c0.7,0,1.4-0.1,2-0.1C485.4,555.7,466.3,607.1,407.3,607.1z"/>
		<path class="st2" d="M569.7,565.2c-5.9,81.6-192.9,108.5-280.4,59.2c53.5,8.9,212.6,28.4,241.2-48.3
			c24.6-65.9-5.8-153.9-25.3-198.9C546.2,412.9,576.3,473.7,569.7,565.2z"/>
		<path class="st3" d="M297.1,417c4.8,6.4,34.6-7,54.5-21.7c19.1-14.1,38.7-36.3,34.3-42.6c-3.8-5.6-25.8,2.4-39.6,9.7
			C315.5,378.9,291.9,410,297.1,417z"/>
		<path class="st3" d="M253.8,543.9c0.7,21.8,14,42.5,19.4,41.1c5.7-1.5,3.4-27.5,0.7-41.8c-0.7-4.1-5.3-29.2-11.2-29.1
			C258.2,514.1,253.4,529.8,253.8,543.9z"/>
		<g>
			<g>
				<path class="st6" d="M500.4,479.3c0,16.3-13.2,29.5-29.5,29.5c-12.6,0-23.3-7.9-27.6-19c-1.2-3.3-1.9-6.8-1.9-10.5
					c0-16.3,13.2-29.5,29.5-29.5c12,0,22.3,7.2,26.9,17.4C499.5,471,500.4,475,500.4,479.3z"/>
				<path class="st7" d="M470.9,449.8c12,0,22.3,7.2,26.9,17.4c1.7,3.7,2.6,7.8,2.6,12.1c0,16.3-13.2,29.5-29.5,29.5
					c-12.6,0-23.3-7.9-27.6-19c-1.2-3.3-1.9-6.8-1.9-10.5C441.4,463.1,454.6,449.8,470.9,449.8L470.9,449.8z M470.9,444.8
					c-19,0-34.5,15.5-34.5,34.5c0,4.2,0.8,8.4,2.3,12.3c5.1,13.3,18,22.2,32.3,22.2c19,0,34.5-15.5,34.5-34.5c0-4.9-1-9.7-3-14.1
					C496.9,452.8,484.5,444.8,470.9,444.8L470.9,444.8z"/>
			</g>
			<path class="st8" d="M497.8,467.2c-11,26.6-38.3,25.8-54.4,22.7c-1.3-3.3-2-6.8-2-10.5c-0.1-16.3,13.1-29.5,29.4-29.6
				C482.9,449.8,493.2,457,497.8,467.2z"/>
			<circle class="st3" cx="459.9" cy="469.5" r="9.8"/>
			<path class="st3" d="M494.1,485.1c1.6,1.1-0.6,11.3-7.9,15.3c-6.5,3.5-15.1,0.9-15.3-1c-0.1-1.4,4.3-1.8,11.8-6.3
				C490.5,488.4,492.9,484.3,494.1,485.1z"/>
		</g>
		<g>
			<g>
				<path class="st6" d="M369.6,479.3c0,16.3-13.2,29.5-29.5,29.5c-12.6,0-23.3-7.9-27.6-19c-1.2-3.3-1.9-6.8-1.9-10.5
					c0-16.3,13.2-29.5,29.5-29.5c12,0,22.3,7.2,26.9,17.4C368.7,471,369.6,475,369.6,479.3z"/>
				<path class="st7" d="M340.1,449.8c12,0,22.3,7.2,26.9,17.4c1.7,3.7,2.6,7.8,2.6,12.1c0,16.3-13.2,29.5-29.5,29.5
					c-12.6,0-23.3-7.9-27.6-19c-1.2-3.3-1.9-6.8-1.9-10.5C310.6,463.1,323.8,449.8,340.1,449.8L340.1,449.8z M340.1,444.8
					c-19,0-34.5,15.5-34.5,34.5c0,4.2,0.8,8.4,2.3,12.3c5.1,13.3,18,22.2,32.3,22.2c19,0,34.5-15.5,34.5-34.5c0-4.9-1-9.7-3-14.1
					C366.1,452.8,353.7,444.8,340.1,444.8L340.1,444.8z"/>
			</g>
			<path class="st8" d="M367,467.2c-11,26.6-38.3,25.8-54.4,22.7c-1.3-3.3-2-6.8-2-10.5c-0.1-16.3,13.1-29.5,29.4-29.6
				C352,449.8,362.3,457,367,467.2z"/>
			<circle class="st3" cx="329" cy="469.5" r="9.8"/>
			<path class="st3" d="M363.2,485.1c1.6,1.1-0.6,11.3-7.9,15.3c-6.5,3.5-15.1,0.9-15.3-1c-0.1-1.4,4.3-1.8,11.8-6.3
				C359.7,488.4,362.1,484.3,363.2,485.1z"/>
		</g>
		<path class="st9" d="M413.3,435.6c0.3,2-13,6.6-26.7,7.8c-22.3,2.1-42.7-5-42.4-7.5c0.1-1.1,14.2-1.3,42.4-1.5
			C409.2,434.3,413.1,434.6,413.3,435.6z"/>
		<ellipse transform="matrix(0.9839 -0.1789 0.1789 0.9839 -50.3792 42.4566)" class="st9" cx="210.2" cy="300.6" rx="11" ry="11"/>
		<path class="st5" d="M407.3,607.1c-19.2,0-34.2-6.8-45-15.6c26.1-3.4,77.4-12.8,105.5-35.7c0.7,0,1.4-0.1,2-0.1
			C485.4,555.7,466.3,607.1,407.3,607.1z"/>
	</g>
	<g>
		<path class="st10" d="M615.4,311.9c2.1,19.1,1.3,60-36.8,88.3c0,0,0,0,0,0c20-33.6-1.7-79.6-12.5-98.6L615.4,311.9z"/>
		<path class="st10" d="M779.1,212.7c-96.4,134.5-315.4,50-393,14.1c-9.8-19.2-13.4-41.8-8.7-64.5c5.5-26.6,21.3-48.4,42.3-62.2
			c21-13.8,47.3-19.6,73.9-14.1l208,43.1C743.7,137.8,773.9,172.3,779.1,212.7z"/>
		<path class="st11" d="M777.9,245.3c-5.5,26.6-21.3,48.4-42.3,62.2c-21,13.8-47.3,19.6-73.9,14.1l-0.2,0l-20.2-4.2v0
			c-4.3,48.8-61,81.9-62.8,83c38.1-28.4,38.9-69.2,36.8-88.3L566,301.7l-112.3-23.3c-30.4-6.3-54.5-26-67.6-51.6
			c77.7,35.9,296.6,120.4,393-14.1C780.5,223.3,780.1,234.2,777.9,245.3z"/>
		<polygon class="st12" points="661.5,321.5 641.3,317.3 641.3,317.3 		"/>
		
			<ellipse transform="matrix(0.106 -0.9944 0.9944 0.106 293.4343 636.5049)" class="st13" cx="500.7" cy="155.1" rx="59.6" ry="94.9"/>
		<g>
			<path class="st4" d="M507.2,223.2l-8.5-1.8l7-32.9l-37.3-7.9l-7,32.9l-8.5-1.8l15.3-72.2l8.5,1.8L470,173l37.3,7.9l6.7-31.7
				l8.5,1.8L507.2,223.2z"/>
			<path class="st4" d="M571.4,212.1l-36.4-7.7c-1.1,5.8-0.5,10.5,1.8,14.3c2.3,3.7,6,6.2,11.2,7.3c5.8,1.2,11.5,0.4,17.2-2.3
				l-1.6,7.8c-5.2,2.3-11.6,2.7-19,1.1c-7.3-1.5-12.5-5.1-15.7-10.7c-3.2-5.6-3.9-12.6-2.1-21.1c1.7-8,5.4-14.1,11-18.2
				c5.6-4.1,11.8-5.4,18.5-4c6.7,1.4,11.5,4.7,14.3,9.9c2.8,5.1,3.3,11.6,1.7,19.3L571.4,212.1z M564.5,203.3
				c1-4.8,0.6-8.7-1.1-11.9c-1.7-3.1-4.6-5.1-8.6-6c-3.9-0.8-7.5-0.1-10.8,2.1c-3.3,2.2-5.8,5.5-7.3,9.9L564.5,203.3z"/>
			<path class="st4" d="M587.1,240.2l-8.3-1.7l16.2-76.3l8.3,1.7L587.1,240.2z"/>
			<path class="st4" d="M612.1,245.5l-8.3-1.7l16.2-76.3l8.3,1.7L612.1,245.5z"/>
			<path class="st4" d="M650.1,254.8c-7.6-1.6-13.2-5.3-16.7-11.1c-3.5-5.8-4.4-12.6-2.8-20.6c1.8-8.7,5.6-14.9,11.4-18.8
				c5.8-3.9,12.7-4.9,20.7-3.2c7.7,1.6,13.2,5.3,16.5,10.9c3.3,5.6,4.1,12.7,2.3,21c-1.7,8.2-5.5,14.3-11.2,18.3
				C664.7,255.3,657.9,256.5,650.1,254.8z M660.7,207.9c-5.3-1.1-9.9-0.2-13.7,2.7c-3.9,3-6.4,7.6-7.8,13.9
				c-1.3,6.1-0.8,11.3,1.6,15.4c2.4,4.2,6.2,6.8,11.4,7.9c5.3,1.1,9.8,0.3,13.4-2.6c3.6-2.8,6.1-7.5,7.4-13.8
				c1.4-6.4,1-11.7-1.1-15.8C669.7,211.7,666,209.1,660.7,207.9z"/>
			<path class="st4" d="M695.3,264.1c-1.5-0.3-2.7-1.1-3.6-2.4c-0.9-1.3-1.1-2.7-0.8-4.3c0.3-1.5,1.2-2.7,2.5-3.6
				c1.3-0.9,2.8-1.1,4.3-0.8c1.5,0.3,2.7,1.1,3.6,2.5c0.9,1.3,1.2,2.8,0.8,4.3c-0.3,1.5-1.2,2.7-2.5,3.6
				C698.2,264.1,696.8,264.4,695.3,264.1z M715,191.9l-11.9,51.6l-6.8-1.4l10.1-52L715,191.9z"/>
		</g>
	</g>
	<polygon class="st10" points="661.5,321.5 641.3,317.3 641.3,317.3 	"/>
	<ellipse class="st14" cx="407.8" cy="989.7" rx="159.4" ry="41.3"/>
</g>
<g>
	<g>
		<path class="st1" d="M1294.3,463.2c-5.4-5.4-9.6-11.7-12.5-18.4c-6.7-15.4-6.7-33.2,0.8-48.5c7.6-15.5,22-26.6,38.7-30.6
			c4.7-1.1,9.7-1.7,14.7-1.6C1347.4,429.4,1294.3,463.2,1294.3,463.2z"/>
		<path class="st2" d="M1294.3,463.2c-5.4-5.4-9.6-11.7-12.5-18.4c6.7-11.6,13.4-24,20-37.1c7.3-14.5,13.8-28.5,19.5-41.9
			c4.7-1.1,9.7-1.7,14.7-1.6C1322,397.1,1308.2,430.1,1294.3,463.2z"/>
		<path class="st1" d="M1616.8,529c-5.9,81.6-192.9,108.5-280.4,59.2c-24.3-13.7-40.9-33.3-43.8-59.2
			c-13.4-119.3,65.5-228.5,156.2-228.5c32.9,0,71.5,12.6,103.5,40.5C1593.3,376.7,1623.4,437.4,1616.8,529z"/>
		<path class="st1" d="M1289,406.2c-0.7-0.4-16.5-9-28.8-29.1c-11.3-18.4-21.8-50.5-7.5-98.3l8.4,2.5c-10.7,35.7-8.6,66.2,6.3,90.8
			c11.1,18.3,25.6,26.3,25.7,26.4L1289,406.2z"/>
		<circle class="st4" cx="1260.3" cy="269.9" r="20.5"/>
		<path class="st4" d="M1568.3,456.9c0,16.4-18,26.4-41.1,32.4c-24.4,6.3-54.5,8.1-75.5,7.9c-30.1-0.3-88-5.5-108.9-24.5
			c-4.9-4.5-7.8-9.7-7.8-15.8c0-17.7,7.4-33.8,19.3-45.4c11.9-11.6,28.5-18.8,46.7-18.8h101.3c21.2,0,40.1,9.7,52.1,24.8
			C1563.1,428.4,1568.3,442.1,1568.3,456.9z"/>
		<path class="st5" d="M1568.3,456.9c0,16.4-18,26.4-41.1,32.4c-24.4,6.3-54.5,8.1-75.5,7.9c-30.1-0.3-88-5.5-108.9-24.5
			c59.5-1.8,160.7-11.6,211.7-55.2C1563.1,428.4,1568.3,442.1,1568.3,456.9z"/>
		<path class="st2" d="M1616.8,529c-5.9,81.6-192.9,108.5-280.4,59.2c53.5,8.9,212.6,28.4,241.2-48.3
			c24.6-65.9-5.8-153.9-25.3-198.9C1593.3,376.7,1623.4,437.4,1616.8,529z"/>
		<path class="st3" d="M1344.3,380.8c4.8,6.4,34.6-7,54.5-21.7c19.1-14.1,38.7-36.3,34.3-42.6c-3.8-5.6-25.8,2.4-39.6,9.7
			C1362.7,342.7,1339,373.8,1344.3,380.8z"/>
		<path class="st3" d="M1301,507.7c0.7,21.8,14,42.5,19.4,41.1c5.7-1.5,3.4-27.5,0.7-41.8c-0.7-4.1-5.3-29.2-11.2-29.1
			C1305.3,477.9,1300.5,493.6,1301,507.7z"/>
		<g>
			<g>
				<path class="st6" d="M1547.6,443.1c0,16.3-13.2,29.5-29.5,29.5c-12.6,0-23.3-7.9-27.6-19c-1.2-3.3-1.9-6.8-1.9-10.5
					c0-16.3,13.2-29.5,29.5-29.5c12,0,22.3,7.2,26.9,17.4C1546.6,434.7,1547.6,438.8,1547.6,443.1z"/>
				<path class="st7" d="M1518.1,413.6c12,0,22.3,7.2,26.9,17.4c1.7,3.7,2.6,7.8,2.6,12.1c0,16.3-13.2,29.5-29.5,29.5
					c-12.6,0-23.3-7.9-27.6-19c-1.2-3.3-1.9-6.8-1.9-10.5C1488.6,426.8,1501.8,413.6,1518.1,413.6L1518.1,413.6z M1518.1,408.6
					c-19,0-34.5,15.5-34.5,34.5c0,4.2,0.8,8.4,2.3,12.3c5.1,13.3,18,22.2,32.3,22.2c19,0,34.5-15.5,34.5-34.5c0-4.9-1-9.7-3-14.1
					C1544,416.6,1531.7,408.6,1518.1,408.6L1518.1,408.6z"/>
			</g>
			<path class="st8" d="M1545,431c-11,26.6-38.3,25.9-54.4,22.8c-1.3-3.3-2-6.8-2-10.5c-0.1-16.3,13.1-29.5,29.4-29.6
				C1530,413.6,1540.3,420.7,1545,431z"/>
			<circle class="st3" cx="1507" cy="433.3" r="9.8"/>
			<path class="st3" d="M1541.2,448.8c1.6,1.1-0.6,11.3-7.9,15.3c-6.5,3.5-15.1,0.9-15.3-1c-0.1-1.4,4.3-1.8,11.8-6.3
				C1537.6,452.1,1540.1,448.1,1541.2,448.8z"/>
		</g>
		<g>
			<g>
				<path class="st6" d="M1416.7,443.1c0,16.3-13.2,29.5-29.5,29.5c-12.6,0-23.3-7.9-27.6-19c-1.2-3.3-1.9-6.8-1.9-10.5
					c0-16.3,13.2-29.5,29.5-29.5c12,0,22.3,7.2,26.9,17.4C1415.8,434.7,1416.7,438.8,1416.7,443.1z"/>
				<path class="st7" d="M1387.2,413.6c12,0,22.3,7.2,26.9,17.4c1.7,3.7,2.6,7.8,2.6,12.1c0,16.3-13.2,29.5-29.5,29.5
					c-12.6,0-23.3-7.9-27.6-19c-1.2-3.3-1.9-6.8-1.9-10.5C1357.7,426.8,1370.9,413.6,1387.2,413.6L1387.2,413.6z M1387.2,408.6
					c-19,0-34.5,15.5-34.5,34.5c0,4.2,0.8,8.4,2.3,12.3c5.1,13.3,18,22.2,32.3,22.2c19,0,34.5-15.5,34.5-34.5c0-4.9-1-9.7-3-14.1
					C1413.2,416.6,1400.8,408.6,1387.2,408.6L1387.2,408.6z"/>
			</g>
			<path class="st8" d="M1414.1,431c-11,26.6-38.3,25.9-54.4,22.8c-1.3-3.3-2-6.8-2-10.5c-0.1-16.3,13.1-29.5,29.4-29.6
				C1399.2,413.6,1409.5,420.7,1414.1,431z"/>
			<circle class="st3" cx="1376.2" cy="433.3" r="9.8"/>
			<path class="st3" d="M1410.4,448.8c1.6,1.1-0.6,11.3-7.9,15.3c-6.5,3.5-15.1,0.9-15.3-1c-0.1-1.4,4.3-1.8,11.8-6.3
				C1406.8,452.1,1409.2,448.1,1410.4,448.8z"/>
		</g>
		<path class="st9" d="M1460.4,399.4c0.3,2-13,6.6-26.7,7.8c-22.3,2.1-42.7-5-42.4-7.5c0.1-1.1,14.2-1.3,42.4-1.5
			C1456.3,398.1,1460.2,398.4,1460.4,399.4z"/>
		
			<ellipse transform="matrix(0.9839 -0.1789 0.1789 0.9839 -27.0102 229.1901)" class="st9" cx="1257.4" cy="264.4" rx="11" ry="11"/>
	</g>
	<g>
		<path class="st1" d="M1605,715.4c0,82.3-57.8,179-149.5,179c-56.9,0-103.7-34.8-131-81.4c-16.8-28.6-26.3-61.6-26.3-93.7
			c0-84.3,92.1-80.3,150.4-80.3c64,0,139.9-4.9,154.1,54.7C1604.2,700.2,1605,707.4,1605,715.4z"/>
		<path class="st2" d="M1605,715.4c0,82.3-57.8,179-149.5,179c-56.9,0-103.7-34.8-131-81.4c57,26.8,219.3,82.4,278.2-119.3
			C1604.2,700.2,1605,707.4,1605,715.4z"/>
		<path class="st3" d="M1329.9,686.7c-11.9,19.4-3.5,47.1,17,58c21.6,11.5,51.1,1.2,59.1-21.6c7.6-21.7-7.1-46-28.2-52.8
			C1360.9,664.8,1339.9,670.6,1329.9,686.7z"/>
	</g>
	<g>
		<path class="st1" d="M1266.7,663.1c18.3,8.7,10.1,30.5-10.6,57.5c-24.7,32.3-94,70.5-137.7,49.5c0,0,0,0,0,0
			c-4-1.9-7.7-4.3-11.3-7.3c-42-35.3,112.5-103.9,135.3-103.8C1253.2,659.1,1261.1,660.5,1266.7,663.1z"/>
		<path class="st2" d="M1266.7,663.1c18.3,8.7,10.1,30.5-10.6,57.5c-24.7,32.3-94,70.5-137.7,49.5
			C1161.7,763.2,1233.8,740,1266.7,663.1z"/>
		<path class="st3" d="M1136.7,719.2c11.2-6.4,30.7-15.3,33.2-11.6c2.5,3.8-12.6,20.8-31.4,30.4c-12.8,6.6-29.6,11-31.5,7.4
			C1104.9,741.4,1122,727.6,1136.7,719.2z"/>
	</g>
	<g>
		<path class="st1" d="M1629.5,690.7c4.5,19.7,27.5,16.5,58.4,2.4c37-16.9,89.4-76.2,78.5-123.5c0,0,0,0,0,0
			c-1-4.3-2.5-8.5-4.6-12.6c-25.2-48.7-126.1,86.9-131,109.1C1628.5,676.7,1628.2,684.8,1629.5,690.7z"/>
		<path class="st2" d="M1629.5,690.7c4.5,19.7,27.5,16.5,58.4,2.4c37-16.9,89.4-76.2,78.5-123.5
			C1750.2,610.3,1711.8,675.6,1629.5,690.7z"/>
		<path class="st3" d="M1712.8,576.2c-8.7,9.5-21.7,26.6-18.7,29.9c3.1,3.3,23-7.7,36.6-23.9c9.2-11,17.2-26.5,14.2-29.1
			C1741.5,550.1,1724.2,563.8,1712.8,576.2z"/>
	</g>
	<path class="st5" d="M1385.9,511.9c5.3,2.8,10.6,5.3,15.9,7.6c5.4,2.2,10.8,4.2,16.3,5.9c11,3.3,22.2,5.3,33.5,5.6
		c5.6,0.1,11.3-0.2,16.8-1c5.6-0.8,11.1-2.1,16.6-3.7c10.9-3.4,21.3-8.5,31.7-14.5c-8,8.8-18.1,16-29.3,21
		c-5.6,2.4-11.5,4.2-17.6,5.4c-1.5,0.3-3,0.5-4.6,0.7c-1.5,0.3-3.1,0.4-4.6,0.5c-3.1,0.3-6.2,0.3-9.3,0.3c-12.3-0.3-24.5-3.2-35.7-8
		c-5.6-2.4-10.9-5.3-16-8.6c-2.5-1.7-5-3.4-7.3-5.3C1390.2,516,1388,514.1,1385.9,511.9z"/>
	<g>
		<path class="st15" d="M1824.7,627.5L1824.7,627.5c-5.5,9.6-17.8,12.9-27.3,7.3l-165.8-95.7c-9.6-5.5-12.8-17.8-7.3-27.3l0,0
			c5.5-9.6,17.8-12.9,27.3-7.3l165.8,95.7C1827,605.7,1830.3,617.9,1824.7,627.5z"/>
		<path class="st5" d="M1669.3,438.6c0,70.5-57.1,127.6-127.6,127.6c-59.1,0-108.8-40.2-123.3-94.7c-2.8-10.5-4.3-21.5-4.3-32.9
			c0-70.5,57.1-127.6,127.6-127.6c44.1,0,83,22.4,105.9,56.4C1661.3,387.8,1669.3,412.3,1669.3,438.6z"/>
		<path class="st4" d="M1653.3,366.7c-8.2,14-17.8,26.1-28.5,36.7c-46.8,46.4-113.2,62.4-162,67.6c-17.7,1.9-33,2.4-44.3,2.3
			c-2.9-10.8-4.4-22.1-4.4-33.7c0-72.2,58.5-130.7,130.7-130.7C1590,308.9,1629.8,331.9,1653.3,366.7z"/>
		<path class="st1" d="M1464.8,504c0,0,69.6,19.4,150.2,0C1615,504,1557.2,578.7,1464.8,504z"/>
		<path class="st16" d="M1653.3,363.7c-24.1-35.9-65.1-59.5-111.6-59.5c-74.2,0-134.4,60.2-134.4,134.4c0,12,1.6,23.6,4.5,34.7
			c15.3,57.4,67.6,99.7,129.9,99.7c74.2,0,134.4-60.2,134.4-134.4C1676.1,410.9,1667.7,385.1,1653.3,363.7z M1541.7,528.9
			c-38.4,0-71.3-24.1-84.3-58c-3.9-10-6-20.9-6-32.3c0-49.8,40.5-90.3,90.3-90.3c36.5,0,68.1,21.8,82.3,53.1c5.2,11.4,8,24,8,37.2
			C1632,488.4,1591.5,528.9,1541.7,528.9z"/>
	</g>
	<g>
		<g>
			<path class="st6" d="M1599.1,438.6c0,31.7-25.7,57.4-57.4,57.4c-24.5,0-45.4-15.3-53.7-36.9c-2.4-6.4-3.8-13.3-3.8-20.5
				c0-31.7,25.7-57.4,57.5-57.4c23.3,0,43.4,13.9,52.4,33.9C1597.3,422.3,1599.1,430.3,1599.1,438.6z"/>
			<path class="st7" d="M1541.7,381.2c23.3,0,43.4,13.9,52.4,33.9c3.2,7.2,5,15.1,5,23.5c0,31.7-25.7,57.4-57.4,57.4
				c-24.5,0-45.4-15.3-53.7-36.9c-2.4-6.4-3.8-13.3-3.8-20.5C1484.3,406.9,1510,381.2,1541.7,381.2L1541.7,381.2z M1541.7,371.4
				c-37.1,0-67.3,30.2-67.3,67.2c0,8.2,1.5,16.3,4.4,24c9.9,25.9,35.1,43.3,62.9,43.3c37.1,0,67.2-30.2,67.2-67.2
				c0-9.6-2-18.9-5.9-27.5C1592.2,387,1568.2,371.4,1541.7,371.4L1541.7,371.4z"/>
		</g>
		<path class="st8" d="M1594,415c-21.4,51.8-74.6,50.3-105.9,44.3c-2.4-6.4-3.8-13.3-3.8-20.5c-0.1-31.7,25.5-57.5,57.3-57.6
			C1564.9,381.1,1585,395.1,1594,415z"/>
		<circle class="st3" cx="1520.1" cy="419.6" r="19.1"/>
		<path class="st3" d="M1586.7,449.8c3.1,2.1-1.1,22.1-15.3,29.8c-12.6,6.8-29.4,1.8-29.8-1.9c-0.3-2.7,8.4-3.4,22.9-12.2
			C1579.8,456.2,1584.6,448.3,1586.7,449.8z"/>
	</g>
	<path class="st1" d="M1721.5,544.8c0,0-5,51.6,51.7,29.9C1773.3,574.7,1773.8,528.7,1721.5,544.8z"/>
	<path class="st3" d="M1747.4,559.4c2.9,5.1,5.1,13.6,2,15.9c-4,3-17.9-3.9-20.5-14.6c-1.1-4.3-0.6-10.7,2.6-12.3
		C1735.7,546.3,1743.6,552.7,1747.4,559.4z"/>
	<path class="st17" d="M1425.8,461.7c-2.6,0-4.8-1.9-5-4.5c0-0.2-0.1-0.6-0.1-1c-5.1-43.7,8.5-83.5,37.4-109.2
		c38.6-34.3,84.9-32.6,98.1-31.2c2.8,0.3,4.8,2.8,4.5,5.5c-0.3,2.8-2.8,4.8-5.5,4.5c-12.2-1.3-54.8-2.9-90.4,28.7
		c-36.2,32.2-36.9,76.8-34.1,100.5c0.1,0.5,0.1,0.9,0.1,1.2c0.3,2.8-1.7,5.2-4.5,5.5C1426.2,461.7,1426,461.7,1425.8,461.7z"/>
	<path class="st17" d="M1612,528c-1.3,0-2.7-0.5-3.7-1.6c-1.9-2-1.8-5.2,0.2-7.1c28.3-26.7,41-64.5,34-100.9c-0.5-2.7,1.3-5.4,4-5.9
		c2.7-0.5,5.4,1.3,5.9,4c7.7,39.8-6.1,81-37,110.1C1614.4,527.6,1613.2,528,1612,528z"/>
	<path class="st17" d="M1541.5,549.1c-9.6,0-18.5-1.1-25.9-2.8c-2.7-0.6-4.4-3.3-3.8-6c0.6-2.7,3.3-4.4,6-3.8
		c20,4.6,49.6,3.6,70.5-9.2c2.4-1.4,5.5-0.7,6.9,1.7c1.4,2.4,0.7,5.5-1.7,6.9C1577.7,545.6,1558.6,549.1,1541.5,549.1z"/>
	<path class="st18" d="M1708.3,557.1c-0.8,0-1.6-0.2-2.3-0.6l-48.5-29c-2.1-1.3-2.8-4-1.5-6c1.3-2.1,4-2.8,6-1.5l48.5,29
		c2.1,1.3,2.8,4,1.5,6C1711.3,556.3,1709.8,557.1,1708.3,557.1z"/>
	<path class="st18" d="M1814.3,617.3c-0.7,0-1.4-0.2-2.1-0.5l-46.3-24.5c-2.2-1.1-3-3.8-1.8-6c1.1-2.2,3.8-3,6-1.8l46.3,24.5
		c2.2,1.1,3,3.8,1.8,6C1817.4,616.4,1815.9,617.3,1814.3,617.3z"/>
	<ellipse class="st14" cx="1460.4" cy="973.5" rx="159.4" ry="41.3"/>
</g>
<g>
	<g>
		<g>
			<path class="st1" d="M2227.3,658.7c17.2,10.7,6.5,31.4-17.1,55.9c-28.2,29.3-101.5,59.2-142.5,33.3c0,0,0,0,0,0
				c-3.7-2.4-7.2-5.2-10.3-8.5c-37.7-39.9,123.7-90.3,146.3-87.6C2214.4,653.1,2222.1,655.4,2227.3,658.7z"/>
			<path class="st2" d="M2227.3,658.7c17.2,10.7,6.5,31.4-17.1,55.9c-28.2,29.3-101.5,59.2-142.5,33.3
				C2111.5,746,2185.9,731.3,2227.3,658.7z"/>
			<path class="st3" d="M2091.7,699.4c11.9-5.1,32.3-11.7,34.4-7.7c2.1,4-14.9,19.2-34.6,26.6c-13.5,5.1-30.7,7.5-32.2,3.8
				C2057.6,717.9,2076.2,706.1,2091.7,699.4z"/>
		</g>
		<g>
			<path class="st1" d="M2571,723.8c0,82.3-57.8,179-149.5,179c-56.9,0-103.7-34.8-131-81.4c-16.8-28.6-26.3-61.6-26.3-93.7
				c0-84.3,92.1-80.3,150.4-80.3c64,0,139.9-4.9,154.1,54.7C2570.2,708.6,2571,715.8,2571,723.8z"/>
			<path class="st2" d="M2571,723.8c0,82.3-57.8,179-149.5,179c-56.9,0-103.7-34.8-131-81.4c57,26.8,219.3,82.4,278.2-119.3
				C2570.2,708.6,2571,715.8,2571,723.8z"/>
			<path class="st3" d="M2295.9,695.1c-11.9,19.4-3.5,47.1,17,58c21.6,11.5,51.1,1.2,59.1-21.6c7.6-21.7-7.1-46-28.2-52.8
				C2326.9,673.2,2305.8,679,2295.9,695.1z"/>
		</g>
		<g>
			<path class="st1" d="M2644.6,598.2c-24.4,28.9-45.8,41.4-57.8,16.3c-2.1-4.3-3.9-9.7-5.3-16.4c-5-22.2,28.7-187.9,72.2-154.5
				c11.2,8.6,18,20.9,21.3,34.8C2684.5,518.6,2665.8,573.1,2644.6,598.2z"/>
			<path class="st2" d="M2644.6,598.2c-24.4,28.9-45.8,41.4-57.8,16.3c18.9-10.5,53.4-41.9,88.2-136
				C2684.5,518.6,2665.8,573.1,2644.6,598.2z"/>
			<path class="st3" d="M2621,509.5c-6.8,24.7-20.7,66-25.4,64.9c-4.2-1-1.4-36.8,11.5-70.3c7.2-18.6,18.3-38.5,21.5-37.4
				C2632.5,468.2,2623.2,501.9,2621,509.5z"/>
		</g>
		<g>
			<path class="st1" d="M2226.3,485c-5.8-5-10.4-11-13.8-17.5c-7.8-14.9-9-32.6-2.6-48.4c6.5-16,20.1-28.1,36.5-33.2
				c4.6-1.5,9.5-2.4,14.5-2.6C2276.9,447.5,2226.3,485,2226.3,485z"/>
			<path class="st2" d="M2226.3,485c-5.8-5-10.4-11-13.8-17.5c5.8-12.1,11.7-24.9,17.3-38.4c6.3-14.9,11.8-29.4,16.6-43.2
				c4.6-1.5,9.5-2.4,14.5-2.6C2249.4,417.1,2237.9,451,2226.3,485z"/>
			<path class="st1" d="M2552.6,528.2c-0.2,81.8-184.9,121.6-275.6,78.5c-25.2-12-43.1-30.4-47.8-56
				c-21.7-118.1,49.5-232.5,140-238.8c32.8-2.3,72.2,7.6,106,33.2C2518.6,377.9,2552.9,436.5,2552.6,528.2z"/>
			<path class="st4" d="M2499.2,459.7c1.1,16.3-16.1,27.6-38.8,35.2c-23.9,8-53.9,11.8-74.8,13.1c-30,1.8-88.2,0.6-110.4-16.9
				c-5.2-4.1-8.4-9.1-8.8-15.2c-1.2-17.7,5-34.2,16.1-46.6c11.1-12.4,27.1-20.7,45.3-22l101.1-7c21.1-1.5,40.6,6.9,53.7,21.1
				C2492.1,431.6,2498.2,444.9,2499.2,459.7z"/>
			<path class="st5" d="M2499.2,459.7c1.1,16.3-16.1,27.6-38.8,35.2c-23.9,8-53.9,11.8-74.8,13.1c-30,1.8-88.2,0.6-110.4-16.9
				c59.3-5.9,159.5-22.7,207.4-69.7C2492.1,431.6,2498.2,444.9,2499.2,459.7z"/>
			<path class="st2" d="M2552.6,528.2c-0.2,81.8-184.9,121.6-275.6,78.5c53.9,5.1,214,13.6,237.3-64.9c20-67.5-16.5-153.1-39-196.7
				C2518.6,377.9,2552.9,436.5,2552.6,528.2z"/>
			<path class="st3" d="M2270.5,399.3c5.3,6,34-9.3,52.9-25.4c18.1-15.4,36-38.9,31.3-44.8c-4.2-5.3-25.5,4.2-38.8,12.4
				C2286.2,360,2264.7,392.7,2270.5,399.3z"/>
			<path class="st3" d="M2236.1,528.9c2.2,21.7,16.9,41.4,22.2,39.6c5.5-1.9,1.4-27.7-2.2-41.8c-1-4-7.3-28.8-13.2-28.3
				C2238.3,498.9,2234.6,514.9,2236.1,528.9z"/>
			<g>
				<g>
					<path class="st6" d="M2477.6,447.4c1.1,16.2-11.1,30.3-27.4,31.5c-12.6,0.9-23.8-6.2-28.8-17c-1.5-3.2-2.4-6.7-2.7-10.4
						c-1.1-16.2,11.1-30.3,27.4-31.5c12-0.8,22.7,5.6,28,15.5C2476.1,439.1,2477.3,443.1,2477.6,447.4z"/>
					<path class="st7" d="M2448.2,419.9c11.1,0,21,6.2,26,15.6c1.9,3.6,3.1,7.6,3.4,11.9c1.1,16.2-11.1,30.3-27.4,31.5
						c-0.7,0-1.4,0.1-2.1,0.1c-11.7,0-22-6.9-26.7-17.1c-1.5-3.2-2.4-6.7-2.7-10.4c-1.1-16.2,11.1-30.3,27.4-31.5
						C2446.8,420,2447.5,419.9,2448.2,419.9L2448.2,419.9z M2448.2,414.9L2448.2,414.9c-0.8,0-1.6,0-2.4,0.1
						c-9.2,0.6-17.6,4.8-23.7,11.8c-6.1,7-9,15.9-8.4,25.1c0.3,4.2,1.3,8.3,3.1,12.1c5.6,12.2,17.9,20,31.3,20c0.8,0,1.6,0,2.4-0.1
						c9.2-0.6,17.6-4.8,23.7-11.8c6.1-7,9-15.9,8.4-25.1c-0.3-4.9-1.7-9.6-4-13.9C2472.6,421.9,2461,414.9,2448.2,414.9
						L2448.2,414.9z"/>
				</g>
				<path class="st8" d="M2474.2,435.5c-9.1,27.3-36.4,28.4-52.7,26.4c-1.5-3.2-2.4-6.7-2.7-10.3c-1.2-16.2,11-30.4,27.3-31.6
					C2458,419.2,2468.8,425.6,2474.2,435.5z"/>
				
					<ellipse transform="matrix(0.9976 -6.929391e-02 6.929391e-02 0.9976 -24.6634 169.8898)" class="st3" cx="2436.4" cy="440.4" rx="9.8" ry="9.8"/>
				<path class="st3" d="M2471.6,453.6c1.7,1,0.2,11.4-6.8,15.8c-6.2,3.9-15,2-15.3,0.1c-0.2-1.4,4.2-2.1,11.3-7.1
					C2468.3,457.1,2470.5,452.9,2471.6,453.6z"/>
			</g>
			<g>
				<g>
					<path class="st6" d="M2347.1,456.5c1.1,16.2-11.1,30.3-27.4,31.5c-12.6,0.9-23.8-6.2-28.8-17c-1.5-3.2-2.4-6.7-2.7-10.4
						c-1.1-16.2,11.1-30.3,27.4-31.5c12-0.8,22.7,5.6,28,15.5C2345.6,448.2,2346.8,452.2,2347.1,456.5z"/>
					<path class="st7" d="M2317.7,429c11.1,0,20.9,6.2,25.9,15.6c1.9,3.6,3.1,7.6,3.4,11.9c1.1,16.2-11.1,30.3-27.4,31.5
						c-0.7,0-1.4,0.1-2.1,0.1c-11.7,0-22-6.9-26.7-17.1c-1.5-3.2-2.4-6.7-2.7-10.4c-1.1-16.2,11.1-30.3,27.4-31.5
						C2316.3,429,2317.1,429,2317.7,429L2317.7,429z M2317.7,424L2317.7,424c-0.8,0-1.6,0-2.4,0.1c-9.2,0.6-17.6,4.8-23.7,11.8
						c-6.1,7-9,15.9-8.4,25.1c0.3,4.2,1.3,8.3,3.1,12.1c5.6,12.2,17.9,20,31.3,20c0.8,0,1.6,0,2.4-0.1c19-1.3,33.4-17.8,32.1-36.8
						c-0.3-4.9-1.7-9.6-4-13.9C2342.1,431,2330.4,424,2317.7,424L2317.7,424z"/>
				</g>
				<path class="st8" d="M2343.7,444.6c-9.1,27.3-36.5,28.4-52.7,26.4c-1.5-3.2-2.4-6.7-2.7-10.3c-1.2-16.2,11-30.4,27.3-31.6
					C2327.5,428.2,2338.3,434.7,2343.7,444.6z"/>
				
					<ellipse transform="matrix(0.9976 -6.929391e-02 6.929391e-02 0.9976 -25.6052 160.8675)" class="st3" cx="2305.9" cy="449.5" rx="9.8" ry="9.8"/>
				<path class="st3" d="M2341.1,462.6c1.7,1,0.2,11.4-6.8,15.8c-6.2,3.9-15,2-15.3,0.1c-0.2-1.4,4.2-2.1,11.3-7.1
					C2337.8,466.1,2340,461.9,2341.1,462.6z"/>
			</g>
			<path class="st9" d="M2387.6,409.8c0.4,1.9-12.5,7.5-26.1,9.7c-22.1,3.6-42.9-2-42.8-4.5c0.1-1.1,14.1-2.3,42.2-4.4
				C2383.5,408.8,2387.4,408.8,2387.6,409.8z"/>
			<g>
				<path class="st1" d="M2211.2,429.7c-0.6-0.4-15.4-10.7-25.5-32.1c-9.2-19.6-16.2-52.6,3.3-98.6l8.1,3.4
					c-14.5,34.3-15.8,64.9-3.7,90.9c9,19.4,22.6,28.9,22.7,29L2211.2,429.7z"/>
				
					<ellipse transform="matrix(0.1092 -0.994 0.994 0.1092 1668.2111 2443.7231)" class="st4" cx="2197.6" cy="291.1" rx="20.5" ry="20.5"/>
				
					<ellipse transform="matrix(0.9975 -7.034408e-02 7.034408e-02 0.9975 -14.6299 155.1335)" class="st9" cx="2195.3" cy="285.3" rx="11" ry="11"/>
			</g>
			<g>
				<path class="st4" d="M2391,580.3c-14.1,1.4-25.7-4.3-34.5-12.3c-15.8-14.3-22.5-35.9-18-36.8c7-1.4,25.1,8.4,44.3,6.5
					c22-2.2,36.3-11.1,47.5-12.9c0.5-0.1,1-0.1,1.5-0.2C2443.3,523.6,2434.2,576.1,2391,580.3z"/>
				<path class="st5" d="M2391,580.3c-14.1,1.4-25.7-4.3-34.5-12.3c18.8-5.3,55.5-18.3,73.9-43.2c0.5-0.1,1-0.1,1.5-0.2
					C2443.3,523.6,2434.2,576.1,2391,580.3z"/>
			</g>
		</g>
	</g>
	<g>
		<path class="st19" d="M2544.7,318.9l-34.1-10c-4.8-1.4-7.5-6.4-6.1-11.2l14.3-48.7c1.4-4.8,6.4-7.5,11.2-6.1l34.1,10
			c4.8,1.4,7.5,6.4,6.1,11.2l-14.3,48.7C2554.5,317.5,2549.5,320.3,2544.7,318.9z"/>
		<g>
			<path class="st20" d="M2626,192.7c-4.6,15.5-15.6,27.4-29.6,34c-4.6,2.1-8,6.1-9.5,11l-5.9,20.2c-2.8,9.4-12.6,14.7-21.9,11.9
				l-33.7-9.9c-9.4-2.8-14.7-12.6-11.9-21.9l5.9-20.2c1.4-4.9,0.7-10.1-2-14.4c-8.2-13.1-11.1-29.1-6.5-44.6
				c8.8-29.8,41.7-46.4,73.5-37.1C2616.1,131,2634.8,162.8,2626,192.7z"/>
			<path class="st21" d="M2584.3,121.7c31.8,9.4,50.5,41.2,41.7,71c-4.6,15.5-15.6,27.4-29.6,34c-4.6,2.1-8,6.1-9.5,11l-5.9,20.2
				c-2.8,9.4-12.6,14.7-21.9,11.9l-33.7-9.9c-9.4-2.8-14.7-12.6-11.9-21.9l5.9-20.2c1.4-4.9,0.7-10.1-2-14.4
				c-8.2-13.1-11.1-29.1-6.5-44.6C2519.5,128.9,2552.5,112.3,2584.3,121.7L2584.3,121.7z M2585.9,116.3c-16.8-4.9-34.3-3.4-49.5,4.2
				c-15.3,7.7-26.3,20.7-31,36.6c-2.5,8.4-3,17-1.7,25.6c1.3,8.3,4.3,16.2,8.8,23.5c1.9,3,2.4,6.5,1.4,9.9l-5.9,20.2
				c-3.6,12.3,3.4,25.2,15.7,28.8l33.7,9.9c12.3,3.6,25.2-3.4,28.8-15.7l5.9-20.2c1-3.3,3.3-6.1,6.5-7.5c7.8-3.7,14.6-8.7,20.2-15
				c5.8-6.5,10-14.1,12.4-22.5c4.7-15.9,2.5-32.8-6.2-47.6C2616.6,132,2602.6,121.3,2585.9,116.3L2585.9,116.3z"/>
		</g>
		<path class="st22" d="M2563.8,288l-52.4-15.4c-1.4-0.4-2.1-1.8-1.7-3.2l0,0c0.4-1.4,1.8-2.1,3.2-1.7l52.4,15.4
			c1.4,0.4,2.1,1.8,1.7,3.2l0,0C2566.6,287.6,2565.2,288.4,2563.8,288z"/>
		<path class="st22" d="M2560.5,299.4l-52.4-15.4c-1.4-0.4-2.1-1.8-1.7-3.2l0,0c0.4-1.4,1.8-2.1,3.2-1.7l52.4,15.4
			c1.4,0.4,2.1,1.8,1.7,3.2l0,0C2563.2,299,2561.8,299.8,2560.5,299.4z"/>
		<path class="st22" d="M2557.1,310.7l-52.4-15.4c-1.4-0.4-2.1-1.8-1.7-3.2l0,0c0.4-1.4,1.8-2.1,3.2-1.7l52.4,15.4
			c1.4,0.4,2.1,1.8,1.7,3.2l0,0C2559.9,310.4,2558.5,311.1,2557.1,310.7z"/>
		<g>
			<g>
				
					<ellipse transform="matrix(0.2824 -0.9593 0.9593 0.2824 1675.8433 2589.4446)" class="st23" cx="2568.7" cy="174.6" rx="46.4" ry="46.4"/>
			</g>
		</g>
		<path class="st24" d="M2561.9,197.6c-15.5-4.6-23.2-16.7-25.2-20.3c-0.6-1.1-0.2-2.4,0.9-3c1.1-0.6,2.4-0.2,3,0.9
			c1.8,3.3,8.9,14.4,23.2,18.4c13.3,3.7,24.1-1.1,28.2-3.2c1.1-0.6,2.4-0.2,3,0.9c0.6,1.1,0.2,2.4-0.9,3c-4.5,2.5-16.7,7.7-31.5,3.6
			C2562.4,197.8,2562.2,197.7,2561.9,197.6z"/>
		<path class="st24" d="M2523.9,249.2c-1.2-0.3-1.9-1.6-1.5-2.8l7.6-25.8c0.3-1.2,1.6-1.9,2.8-1.5c1.2,0.3,1.9,1.6,1.5,2.8
			l-7.6,25.8C2526.3,248.9,2525.1,249.6,2523.9,249.2z"/>
		<path class="st21" d="M2514,103.9c-0.8-0.2-1.4-0.8-1.8-1.5L2491.5,56c-0.6-1.4,0-3,1.4-3.7c1.4-0.6,3,0,3.7,1.4l20.7,46.4
			c0.6,1.4,0,3-1.4,3.7C2515.3,104,2514.6,104.1,2514,103.9z"/>
		<path class="st21" d="M2570.3,89.3c-1.1-0.3-2-1.4-2-2.7l-0.3-50.8c0-1.5,1.2-2.8,2.8-2.8c1.5,0,2.8,1.2,2.8,2.8l0.3,50.8
			c0,1.5-1.2,2.8-2.8,2.8C2570.8,89.4,2570.5,89.4,2570.3,89.3z"/>
		<path class="st21" d="M2610.8,101.5c-0.3-0.1-0.6-0.2-0.8-0.4c-1.3-0.9-1.6-2.6-0.7-3.9l29.1-41.6c0.9-1.3,2.6-1.6,3.9-0.7
			c1.3,0.9,1.6,2.6,0.7,3.9l-29.1,41.6C2613.2,101.4,2611.9,101.8,2610.8,101.5z"/>
		<path class="st21" d="M2645.5,138.6c-0.8-0.2-1.5-0.8-1.8-1.7c-0.6-1.4,0.2-3,1.6-3.6l47.4-18.2c1.4-0.6,3,0.2,3.6,1.6
			c0.6,1.4-0.2,3-1.6,3.6l-47.4,18.2C2646.7,138.7,2646.1,138.7,2645.5,138.6z"/>
	</g>
	<ellipse class="st14" cx="2426.7" cy="983.5" rx="159.4" ry="41.3"/>
</g>
<g>
	<g>
		<g>
			<path class="st1" d="M384.2,1561.2c19.4,5.7,14.8,28.4-1.2,58.5c-19.2,35.9-81.5,84.7-128,70.9c0,0,0,0,0,0
				c-4.2-1.3-8.3-3-12.3-5.4c-47.1-28.1,94.4-120.6,116.9-124.2C370.2,1559.3,378.3,1559.5,384.2,1561.2z"/>
			<path class="st2" d="M384.2,1561.2c19.4,5.7,14.8,28.4-1.2,58.5c-19.2,35.9-81.5,84.7-128,70.9
				C296.6,1676.8,364.1,1642.4,384.2,1561.2z"/>
			<path class="st3" d="M264.9,1637.4c10-8.2,27.9-20.1,30.9-16.8c3.1,3.3-9.1,22.5-26.1,35.1c-11.6,8.6-27.5,15.6-29.9,12.4
				C237.1,1664.4,251.8,1648,264.9,1637.4z"/>
		</g>
		<g>
			<path class="st1" d="M729.4,1618.5c0,82.3-57.8,179-149.5,179c-56.9,0-103.7-34.8-131-81.4c-16.8-28.6-26.3-61.6-26.3-93.7
				c0-84.3,92.1-80.3,150.4-80.3c64,0,139.9-4.9,154.1,54.7C728.6,1603.3,729.4,1610.5,729.4,1618.5z"/>
			<path class="st2" d="M729.4,1618.5c0,82.3-57.8,179-149.5,179c-56.9,0-103.7-34.8-131-81.4c57,26.8,219.3,82.4,278.2-119.3
				C728.6,1603.3,729.4,1610.5,729.4,1618.5z"/>
			<path class="st3" d="M454.3,1589.8c-11.9,19.4-3.5,47.1,17,58c21.6,11.5,51.1,1.2,59.1-21.6c7.6-21.7-7.1-46-28.2-52.8
				C485.3,1567.9,464.2,1573.7,454.3,1589.8z"/>
		</g>
		<g>
			<path class="st1" d="M898.2,1623.3c18.4,33.1,22.6,57.4-5.1,59.8c-4.8,0.4-10.5,0.2-17.2-0.8c-22.6-3.2-165.7-93-119.2-122
				c12-7.5,25.9-9.5,40.1-7.7C837.7,1557.9,882.2,1594.5,898.2,1623.3z"/>
			<path class="st2" d="M898.2,1623.3c18.4,33.1,22.6,57.4-5.1,59.8c-3.2-21.4-20.4-64.8-96.3-130.4
				C837.7,1557.9,882.2,1594.5,898.2,1623.3z"/>
			<path class="st3" d="M807,1614.1c20.7,15.1,54.5,42.7,51.8,46.6c-2.5,3.6-35-11.6-61.7-35.5c-14.9-13.3-29.6-30.7-27.4-33.2
				C772.3,1588.8,800.5,1609.4,807,1614.1z"/>
		</g>
		<g>
			<path class="st1" d="M376.8,1397.5c-6.2-4.5-11.4-10-15.4-16.1c-9.1-14.1-12-31.7-7.1-48c5-16.6,17.4-29.8,33.2-36.5
				c4.5-1.9,9.2-3.2,14.2-4C423.7,1355.6,376.8,1397.5,376.8,1397.5z"/>
			<path class="st2" d="M376.8,1397.5c-6.2-4.5-11.4-10-15.4-16.1c4.7-12.6,9.3-25.9,13.7-39.9c4.8-15.5,8.9-30.3,12.5-44.6
				c4.5-1.9,9.2-3.2,14.2-4C393.5,1327.8,385.2,1362.7,376.8,1397.5z"/>
			<path class="st1" d="M705.8,1410c7.5,81.4-172.7,138.5-267,104c-26.2-9.6-45.8-26.2-52.9-51.3c-32.7-115.5,27.5-236.1,117-250.8
				c32.4-5.3,72.6,0.8,108.7,23.1C657.8,1263.6,697.4,1318.6,705.8,1410z"/>
			<path class="st1" d="M362.3,1342.1c-0.7-0.2-17.7-6.2-33.2-24.1c-14.2-16.4-29.7-46.3-23.4-95.8l8.7,1.1
				c-4.8,37,2.3,66.8,21,88.6c13.9,16.3,29.5,21.8,29.7,21.8L362.3,1342.1z"/>
			
				<ellipse transform="matrix(0.9867 -0.1626 0.1626 0.9867 -192.9744 66.8396)" class="st4" cx="311.9" cy="1212.3" rx="20.5" ry="20.5"/>
			<path class="st4" d="M646.2,1346.8c2.7,16.2-13.4,29-35.3,38.7c-23,10.2-52.5,16.9-73.3,20.1c-29.7,4.6-87.7,8.9-111.5-6.5
				c-5.6-3.6-9.2-8.3-10.2-14.3c-2.9-17.5,1.8-34.5,11.7-48c9.9-13.4,25-23.2,43-26.1l100-16.5c20.9-3.4,41.1,3.1,55.5,16
				C636.4,1319.5,643.8,1332.2,646.2,1346.8z"/>
			<path class="st5" d="M646.2,1346.8c2.7,16.2-13.4,29-35.3,38.7c-23,10.2-52.5,16.9-73.3,20.1c-29.7,4.6-87.7,8.9-111.5-6.5
				c58.4-11.4,156.7-37.5,199.9-88.9C636.4,1319.5,643.8,1332.2,646.2,1346.8z"/>
			<path class="st2" d="M705.8,1410c7.5,81.4-172.7,138.5-267,104c54.2,0.1,214.4-6.6,230.1-86.9c13.6-69.1-30.8-150.9-57.3-192.2
				C657.8,1263.6,697.4,1318.6,705.8,1410z"/>
			<path class="st3" d="M412.8,1308.1c5.8,5.5,33-12.5,50.3-30.2c16.6-17,32.2-42.1,27-47.6c-4.7-4.9-25,6.5-37.5,16
				C424.7,1267.5,406.4,1302.1,412.8,1308.1z"/>
			<path class="st3" d="M390.7,1440.4c4.2,21.4,20.7,39.6,25.8,37.4c5.3-2.4-1.2-27.7-6.1-41.4c-1.4-3.9-10-28-15.8-26.9
				C390.1,1410.3,387.9,1426.5,390.7,1440.4z"/>
			<g>
				<g>
					<path class="st6" d="M623.5,1336.6c2.6,16.1-8.2,31.2-24.3,33.9c-12.4,2-24.3-4-30.3-14.2c-1.8-3-3-6.4-3.6-10.1
						c-2.6-16.1,8.2-31.2,24.3-33.9c11.8-1.9,23.2,3.4,29.4,12.8C621.3,1328.4,622.8,1332.3,623.5,1336.6z"/>
					<path class="st7" d="M594.4,1311.8c10,0,19.2,5.1,24.6,13.1c2.2,3.3,3.8,7.2,4.5,11.4c2.6,16-8.2,31-24.3,33.7
						c-1.6,0.3-3.2,0.4-4.8,0.4c-10.6,0-20.2-5.3-25.4-14.1c-1.8-3-3.1-6.8-3.7-10.4c-2.6-16,8.2-31,24.3-33.7
						C591.2,1312,592.8,1311.8,594.4,1311.8L594.4,1311.8z M594.4,1306.8c-1.9,0-3.8,0.2-5.6,0.5c-9.1,1.5-17.1,6.4-22.5,13.9
						c-5.4,7.4-7.5,16.5-6,25.6c0.7,4.1,2.1,8.1,4.2,11.7c6.2,10.5,17.6,17,29.8,17c1.9,0,3.8-0.2,5.7-0.5
						c18.8-3.1,31.6-20.8,28.5-39.4c-0.8-4.8-2.6-9.3-5.3-13.4C616.8,1312.6,606,1306.8,594.4,1306.8L594.4,1306.8z"/>
				</g>
				<path class="st8" d="M619,1325c-6.5,28.1-33.7,31.7-50,31.3c-1.8-3-3-6.4-3.7-10.1c-2.7-16.1,8.1-31.3,24.2-34
					C601.3,1310.3,612.8,1315.6,619,1325z"/>
				
					<ellipse transform="matrix(0.9867 -0.1626 0.1626 0.9867 -209.0872 112.3586)" class="st3" cx="581.9" cy="1333.5" rx="9.8" ry="9.8"/>
				<path class="st3" d="M618.1,1343.3c1.8,0.8,1.3,11.3-5.3,16.4c-5.8,4.5-14.7,3.4-15.2,1.5c-0.4-1.3,4-2.4,10.6-8.1
					C615.2,1347.1,616.9,1342.7,618.1,1343.3z"/>
			</g>
			<g>
				<g>
					<path class="st6" d="M494.4,1357.8c2.6,16.1-8.2,31.2-24.3,33.9c-12.4,2-24.3-4-30.3-14.2c-1.8-3-3-6.4-3.6-10.1
						c-2.6-16.1,8.2-31.2,24.3-33.9c11.8-1.9,23.2,3.4,29.4,12.8C492.1,1349.7,493.7,1353.6,494.4,1357.8z"/>
					<path class="st7" d="M465.3,1333.1c10,0,19.2,5.1,24.6,13.2c2.2,3.4,3.8,7.2,4.5,11.5c2.6,16.1-8.2,31.2-24.3,33.9
						c-1.6,0.3-3.2,0.4-4.8,0.4c-10.6,0-20.2-5.7-25.4-14.6c-1.8-3-3-6.4-3.6-10.1c-2.6-16.1,8.2-31.2,24.3-33.9
						C462.1,1333.3,463.7,1333.1,465.3,1333.1L465.3,1333.1z M465.3,1328.1c-1.9,0-3.8,0.2-5.6,0.5c-18.8,3.1-31.6,20.9-28.5,39.7
						c0.7,4.2,2.1,8.1,4.2,11.8c6.2,10.6,17.6,17.1,29.8,17.1c1.9,0,3.8-0.2,5.7-0.5c9.1-1.5,17.1-6.5,22.4-13.9
						c5.4-7.5,7.5-16.6,6-25.7c-0.8-4.9-2.6-9.4-5.3-13.5C487.7,1333.9,476.9,1328.1,465.3,1328.1L465.3,1328.1z"/>
				</g>
				<path class="st8" d="M489.8,1346.3c-6.5,28.1-33.6,31.7-50,31.3c-1.8-3-3-6.4-3.7-10.1c-2.7-16.1,8.1-31.3,24.2-34
					C472.3,1331.6,483.6,1336.9,489.8,1346.3z"/>
				
					<ellipse transform="matrix(0.9867 -0.1626 0.1626 0.9867 -214.2576 91.6478)" class="st3" cx="452.8" cy="1354.8" rx="9.8" ry="9.8"/>
				<path class="st3" d="M489,1364.5c1.8,0.8,1.3,11.3-5.3,16.4c-5.8,4.5-14.7,3.4-15.2,1.5c-0.4-1.3,4-2.4,10.6-8.1
					C486.1,1368.4,487.8,1364,489,1364.5z"/>
			</g>
			<path class="st9" d="M530.4,1307.6c0.6,1.9-11.7,8.6-25.1,12.1c-21.6,5.6-42.9,2-43-0.5c0-1.1,13.8-3.6,41.6-8.4
				C526.1,1307,530,1306.6,530.4,1307.6z"/>
			
				<ellipse transform="matrix(0.9417 -0.3365 0.3365 0.9417 -388.2964 174.0689)" class="st9" cx="308.1" cy="1207.4" rx="11" ry="11"/>
			<g>
				<path class="st4" d="M560.2,1477.1c-12.3,2.8-23.4-1.7-32.2-8.8c-15.9-12.6-24.7-33.3-20.8-34.7c6-2.1,23.4,5.8,40.1,2.1
					c19.2-4.3,30.7-14.6,40.4-17.5c0.4-0.1,0.9-0.2,1.3-0.3C599,1415.7,598,1468.6,560.2,1477.1z"/>
				<path class="st5" d="M560.2,1477.1c-12.3,2.8-23.4-1.7-32.2-8.8c16-7.1,46.7-23.7,59.7-50.1c0.4-0.1,0.9-0.2,1.3-0.3
					C599,1415.7,598,1468.6,560.2,1477.1z"/>
			</g>
		</g>
	</g>
	<g>
		<path class="st10" d="M883.8,1235.6c0,0-60.3,81.9-177.8,74.6c0,0,6-0.2,15.7-3.4c19.1-6.4,52.1-24.7,79.7-77.7l58.2,4.6
			L883.8,1235.6z"/>
		<path class="st10" d="M1318.1,1095.4C1201.7,1283.3,830.9,1225,697.7,1197c-20.9-21.8-32.7-49.1-31.4-78.4
			c1.5-34.2,20.5-64.7,50.2-86.4c29.6-21.7,69.8-34.5,113.5-33.3l342.2,9.1C1241.4,1009.8,1298.8,1046.3,1318.1,1095.4z"/>
		<path class="st11" d="M1127.8,1254.9l33.2,0.9l0.3,0c43.7,1.2,83.9-11.7,113.5-33.3c29.6-21.7,48.7-52.2,50.2-86.4
			c0.6-14.2-1.8-27.9-6.9-40.7C1201.7,1283.3,830.9,1225,697.7,1197c27.7,29.1,71.5,48.4,121.5,49.7l184.8,4.9l81.2,2.2
			L1127.8,1254.9z"/>
		<path class="st13" d="M1005.5,1075.9c3.4,41.5-62.2,78.5-146.5,82.8c-84.3,4.2-155.4-26-158.8-67.4
			c-3.4-41.5,62.2-78.5,146.5-82.8C931,1004.2,1002.1,1034.4,1005.5,1075.9z"/>
		<g>
			<path class="st4" d="M787.4,1148.7c-10.7-0.4-19-4.2-25.1-11.5c-6.1-7.3-8.9-16.9-8.4-28.8c0.5-12,4-21.3,10.6-28.1
				c6.6-6.8,15.3-9.9,25.9-9.5c8.2,0.3,15.1,2.8,20.7,7.4c5.6,4.6,8.6,10.6,9,17.9l-10.3-0.4c-0.2-4.8-2.1-8.6-5.8-11.6
				c-3.6-3-8.2-4.5-13.9-4.8c-7.6-0.3-13.8,2.1-18.5,7.2c-4.7,5.1-7.2,12.5-7.6,22.3c-0.4,9.7,1.5,17.3,5.8,22.8
				c4.2,5.4,10.1,8.3,17.7,8.6c5.9,0.2,10.7-1,14.5-3.8c3.7-2.7,6-6.8,6.6-12.1l10.3,0.4c-1,8-4.4,14.1-10.2,18.2
				C803.1,1147.1,795.9,1149,787.4,1148.7z"/>
			<path class="st4" d="M865.4,1144.8c-5.1,4.4-11.6,6.5-19.3,6.2c-5.4-0.2-9.8-1.8-13.2-4.9c-3.4-3.1-5-6.9-4.8-11.5
				c0.5-12.7,11.7-18.7,33.7-17.8l4.7,0.2c0.2-3.9,0.1-6.8-0.3-8.5c-0.3-1.8-1.4-3.3-3.3-4.5c-1.8-1.2-4.8-1.9-8.9-2.1
				c-8.6-0.3-13.2,2.6-13.7,8.7l-9.7-0.4c1.2-11.2,9.2-16.5,24.2-15.9c7,0.3,12.4,1.9,16.2,4.8c3.8,2.9,5.5,8.5,5.2,16.6l-1.4,35.3
				l-9.7-0.4L865.4,1144.8z M865.7,1136.1l0.5-12.1l-6.6-0.3c-14.1-0.5-21.2,3-21.5,10.6c-0.1,2.8,0.8,5,2.8,6.5
				c2,1.6,4.7,2.4,8.2,2.6c3.2,0.1,6.3-0.5,9.3-1.8C861.5,1140.3,863.9,1138.5,865.7,1136.1z"/>
			<path class="st4" d="M900.7,1104.1c5-5.3,10.6-7.8,16.6-7.5c12.3,0.5,18.2,7.4,17.7,20.8l-1.4,35.7l-9.7-0.4l1.4-35.3
				c0.2-4.5-0.5-7.7-2-9.7c-1.5-2-4.1-3.1-7.7-3.2c-4.9-0.2-10,2.5-15.1,8.2l-1.5,39.1l-9.7-0.4l2.1-54.5l9.7,0.4L900.7,1104.1z"/>
			<path class="st4" d="M988.2,1155.2l-10-0.4l2.9-75.4l10,0.4L988.2,1155.2z"/>
			<path class="st4" d="M1044.4,1109.7c5-5.3,10.6-7.8,16.6-7.5c12.3,0.5,18.2,7.4,17.7,20.8l-1.4,35.7l-9.7-0.4l1.4-35.3
				c0.2-4.5-0.5-7.7-2-9.7c-1.5-2-4.1-3.1-7.7-3.2c-4.9-0.2-10,2.5-15.1,8.2l-1.5,39.1l-9.7-0.4l2.9-75.4l9.7,0.4L1044.4,1109.7z"/>
			<path class="st4" d="M1114.6,1161.3c-8-0.3-14.4-3.1-19-8.3c-4.7-5.2-6.8-12.3-6.5-21.3c0.3-8.9,3-15.8,7.9-20.7
				c4.9-4.9,11.2-7.2,18.8-6.9c7.8,0.3,13.9,3,18.3,8.2c4.5,5.1,6.5,12.3,6.2,21.3l-0.1,2.3l-41.1-1.6c0.2,6.3,1.7,11.1,4.7,14.2
				c2.9,3.2,6.7,4.8,11.2,5c3.4,0.1,6.5-0.6,9.3-2.2c2.8-1.6,4.3-4,4.6-7.2l10,0.4c-1,5.6-3.7,9.8-8.1,12.7
				C1126.2,1160.2,1120.8,1161.6,1114.6,1161.3z M1130.2,1128.1c-0.6-5.3-2.2-9.3-4.8-12c-2.6-2.7-5.9-4.1-9.9-4.3
				c-3.9-0.2-7.2,1-10.1,3.5c-2.9,2.5-4.8,6.3-5.8,11.6L1130.2,1128.1z"/>
			<path class="st4" d="M1159.7,1161.8l-9.7-0.4l2.9-75.4l9.7,0.4L1159.7,1161.8z"/>
			<path class="st4" d="M1185.6,1114.7c4.5-5,9.8-7.4,15.9-7.2c7.1,0.3,12.5,3,16.3,8.2c3.7,5.2,5.4,12.1,5.1,20.7
				c-0.3,8.9-2.8,15.9-7.4,21c-4.6,5-10.2,7.4-16.8,7.1c-5.9-0.2-10.8-2.3-14.7-6.1l-1,25.2l-9.7-0.4l2.9-75.5l9.7,0.4
				L1185.6,1114.7z M1184.2,1149.8c4,4.6,8.7,7,14,7.2c4.2,0.2,7.6-1.5,10.2-5c2.6-3.5,4-8.8,4.3-15.9c0.3-6.7-0.7-11.9-2.9-15.4
				c-2.2-3.6-5.4-5.4-9.6-5.6c-5.4-0.2-10.4,2.7-15.1,8.8L1184.2,1149.8z"/>
			<path class="st4" d="M1232.4,1109.7c0.8-6.7,3.6-11.9,8.1-15.6c4.6-3.8,10.3-5.5,17.1-5.2c7.2,0.3,13,2.4,17.3,6.5
				c4.3,4,6.3,9,6.1,15c-0.1,3.4-1,6.4-2.6,9.3c-1.6,2.8-4.6,5.9-9,9.2c-4.4,3.3-7,6-8.1,8.1c-1,2-1.7,5.5-1.8,10.3l-9-0.4
				c0.2-6.4,1.2-11,2.8-13.9c1.6-2.9,4.4-6,8.5-9.2c4.1-3.2,6.6-5.7,7.7-7.5c1-1.8,1.6-3.7,1.7-5.7c0.2-3.9-1-7.2-3.5-9.9
				c-2.5-2.7-5.9-4.1-10.1-4.2c-8.2-0.3-13.2,4.2-15,13.6L1232.4,1109.7z M1259.8,1165.7l-10.5-0.4l0.4-10.5l10.5,0.4L1259.8,1165.7
				z"/>
		</g>
		<path class="st11" d="M883.8,1235.6c0,0-60.3,81.9-177.8,74.6c0,0,6-1,15.7-3.4c31.8-7.6,103.9-29.1,137.9-73.1L883.8,1235.6z"/>
	</g>
	<ellipse class="st14" cx="589.1" cy="1877.8" rx="159.4" ry="41.3"/>
</g>
<g>
	<g>
		<path class="st1" d="M1706.3,1696.7c-0.9,37.8-9.7,60.9-34.9,48.9c-4.3-2.1-9.1-5.2-14.4-9.4c-17.8-14.2-95.4-164.3-40.6-165.6
			c14.2-0.3,27.1,5,38.4,13.8C1687.4,1609.7,1707.1,1663.8,1706.3,1696.7z"/>
		<path class="st2" d="M1706.3,1696.7c-0.9,37.8-9.7,60.9-34.9,48.9c8.1-20,15.3-66.2-16.6-161.2
			C1687.4,1609.7,1707.1,1663.8,1706.3,1696.7z"/>
		<path class="st3" d="M1632.3,1642.4c10.1,23.5,25.3,64.4,20.9,66.5c-3.9,1.8-24.2-27.8-35.1-62c-6.1-19-9.9-41.5-6.7-42.6
			C1615.4,1603,1629.2,1635.1,1632.3,1642.4z"/>
	</g>
	<g>
		<path class="st1" d="M1297.2,1733.9c-5.3,4.2-10.1,7.3-14.4,9.4c-14.2,6.8-23.2,2.4-28.5-9.6c-4.1-9.2-5.9-22.8-6.4-39.3
			c-0.8-32.9,18.9-87,51.4-112.3c11.4-8.8,24.3-14.1,38.4-13.8c8.6,0.2,13.9,4,16.7,10.4C1369.9,1613.1,1312.3,1721.9,1297.2,1733.9
			z"/>
		<path class="st25" d="M1278.7,1625.1c-1.6,2.4-18.7,28.6-12.7,34.2c6,5.7,35.4-9.6,50.8-34.2c8.7-13.9,15.5-34.8,9.7-38.9
			C1319.4,1581.1,1293.8,1602,1278.7,1625.1z"/>
		<path class="st2" d="M1297.2,1733.9c-5.3,4.2-10.1,7.3-14.4,9.4c-14.2,6.8-23.2,2.4-28.5-9.6c21.8-9,57.6-42.7,100.2-155
			C1369.9,1613.1,1312.3,1721.9,1297.2,1733.9z"/>
	</g>
	<g>
		<path class="st1" d="M1627.4,1623.3c0,82.3-57.8,179-149.5,179c-56.9,0-103.7-34.8-131-81.4c-16.8-28.6-26.3-61.6-26.3-93.7
			c0-84.3,92.1-80.3,150.4-80.3c64,0,139.9-4.9,154.1,54.7C1626.6,1608.1,1627.4,1615.3,1627.4,1623.3z"/>
		<path class="st2" d="M1627.4,1623.3c0,82.3-57.8,179-149.5,179c-56.9,0-103.7-34.8-131-81.4c57,26.8,219.3,82.4,278.2-119.3
			C1626.6,1608.1,1627.4,1615.3,1627.4,1623.3z"/>
		<path class="st3" d="M1352.3,1594.7c-11.9,19.4-3.5,47.1,17,58c21.6,11.5,51.1,1.2,59.1-21.6c7.6-21.7-7.1-46-28.2-52.8
			C1383.3,1572.7,1362.2,1578.5,1352.3,1594.7z"/>
	</g>
	<g>
		<path class="st1" d="M1312.9,1387.4c-5.4-5.4-9.7-11.7-12.6-18.4c-6.8-15.4-6.8-33.2,0.7-48.5c7.6-15.6,21.9-26.7,38.6-30.7
			c4.7-1.1,9.6-1.7,14.7-1.7C1365.9,1353.4,1312.9,1387.4,1312.9,1387.4z"/>
		<path class="st2" d="M1312.9,1387.4c-5.4-5.4-9.7-11.7-12.6-18.4c6.6-11.7,13.3-24.1,19.8-37.2c7.2-14.5,13.7-28.5,19.4-42
			c4.7-1.1,9.6-1.7,14.7-1.7C1340.4,1321.2,1326.7,1354.3,1312.9,1387.4z"/>
		<path class="st1" d="M1635.6,1452.2c-5.6,81.6-192.6,109.1-280.2,60.1c-24.3-13.6-41-33.2-44-59.1
			c-13.8-119.2,64.8-228.7,155.5-229c32.9-0.1,71.5,12.4,103.6,40.1C1611.6,1299.9,1642,1360.6,1635.6,1452.2z"/>
		<path class="st2" d="M1635.6,1452.2c-5.6,81.6-192.6,109.1-280.2,60.1c53.5,8.7,212.7,27.7,241-49.1c24.4-66-6.3-153.9-25.9-198.8
			C1611.6,1299.9,1642,1360.6,1635.6,1452.2z"/>
		<path class="st3" d="M1362.6,1304.8c4.9,6.4,34.5-7.1,54.4-21.8c19.1-14.1,38.5-36.4,34.2-42.7c-3.8-5.6-25.8,2.5-39.5,9.8
			C1380.9,1266.7,1357.3,1297.9,1362.6,1304.8z"/>
		<path class="st3" d="M1319.7,1431.9c0.8,21.8,14.2,42.4,19.5,41c5.6-1.5,3.3-27.5,0.6-41.8c-0.8-4.1-5.4-29.2-11.3-29.1
			C1324,1402.1,1319.2,1417.8,1319.7,1431.9z"/>
		<g>
			<path class="st4" d="M1587,1419.4c0.1,16.4-17.9,26.5-41,32.6c-24.4,6.4-54.5,8.3-75.5,8.1c-30.1-0.2-88-5.2-109-24.2
				c-4.9-4.4-7.8-9.7-7.8-15.8c-0.1-17.7,7.3-33.8,19.2-45.5c11.9-11.7,28.4-18.9,46.6-18.9l101.3-0.3c21.2-0.1,40.1,9.6,52.2,24.6
				C1581.7,1390.9,1586.9,1404.5,1587,1419.4z"/>
			<path class="st5" d="M1587,1419.4c0.1,16.4-17.9,26.5-41,32.6c-24.4,6.4-54.5,8.3-75.5,8.1c-30.1-0.2-88-5.2-109-24.2
				c59.5-2,160.7-12.1,211.5-55.8C1581.7,1390.9,1586.9,1404.5,1587,1419.4z"/>
			<g>
				<g>
					<path class="st6" d="M1566.2,1405.6c0.1,16.3-13.1,29.5-29.4,29.6c-12.6,0-23.4-7.8-27.6-18.9c-1.3-3.3-2-6.8-2-10.5
						c-0.1-16.3,13.1-29.5,29.4-29.6c12,0,22.3,7.1,27,17.3C1565.3,1397.2,1566.2,1401.3,1566.2,1405.6z"/>
					<path class="st7" d="M1537.3,1376.8c12,0,21.7,6.6,26.3,16.8c1.7,3.7,2.6,7.8,2.6,12.1c0.1,16.3-13.1,29.5-29.4,29.6
						c0,0-0.1,0-0.1,0c-12.6,0-23.3-7.8-27.5-18.9c-1.3-3.3-2-6.8-2-10.5c-0.1-16.3,12.7-28.5,29-28.6L1537.3,1376.8z
						 M1536.7,1371.2L1536.7,1371.2L1536.7,1371.2l-0.1,0c-9.2,0-17.9,3.6-24.4,10.2c-6.5,6.5-10.1,15.2-10,24.4
						c0,4.2,0.8,8.4,2.3,12.3c5.1,13.2,18,22.1,32.2,22.1l0.1,0c9.2,0,17.9-3.6,24.4-10.2c6.5-6.5,10.1-15.2,10-24.4
						c0-4.9-1.1-9.7-3.1-14.1C1562.6,1379.2,1550.3,1371.2,1536.7,1371.2L1536.7,1371.2z"/>
				</g>
				<path class="st8" d="M1563.6,1393.5c-10.9,26.7-38.3,26-54.3,22.9c-1.3-3.3-2-6.8-2-10.5c-0.1-16.3,13-29.6,29.3-29.7
					C1548.6,1376.1,1558.9,1383.2,1563.6,1393.5z"/>
				
					<ellipse transform="matrix(1 -3.115361e-03 3.115361e-03 1 -4.3415 4.7596)" class="st3" cx="1525.6" cy="1396" rx="9.8" ry="9.8"/>
				<path class="st3" d="M1559.9,1411.4c1.6,1.1-0.5,11.4-7.8,15.3c-6.5,3.5-15.1,1-15.3-0.9c-0.2-1.4,4.3-1.8,11.7-6.3
					C1556.3,1414.7,1558.8,1410.6,1559.9,1411.4z"/>
			</g>
			<g>
				<g>
					<path class="st6" d="M1435.4,1406c0.1,16.3-13.1,29.5-29.4,29.6c-12.6,0-23.4-7.8-27.6-18.9c-1.3-3.3-2-6.8-2-10.5
						c-0.1-16.3,13.1-29.5,29.4-29.6c12,0,22.3,7.1,27,17.3C1434.4,1397.7,1435.4,1401.7,1435.4,1406z"/>
					<path class="st7" d="M1406.8,1376.9c12,0,21.4,6.8,26,17c1.7,3.7,2.6,7.8,2.6,12.1c0.1,16.3-13.1,29.5-29.4,29.6
						c0,0-0.1,0-0.1,0c-12.6,0-23.3-7.8-27.5-18.9c-1.3-3.3-2-6.8-2-10.5c-0.1-16.3,12.9-29.2,29.2-29.3H1406.8z M1405.9,1371.6
						L1405.9,1371.6L1405.9,1371.6l-0.1,0c-9.2,0-17.9,3.6-24.4,10.2c-6.5,6.5-10.1,15.2-10,24.4c0,4.2,0.8,8.4,2.3,12.3
						c5.1,13.2,18,22.1,32.2,22.1l0.1,0c19-0.1,34.5-15.6,34.4-34.6c0-4.9-1.1-9.7-3.1-14.1
						C1431.8,1379.6,1419.4,1371.6,1405.9,1371.6L1405.9,1371.6z"/>
				</g>
				<path class="st8" d="M1432.7,1393.9c-10.9,26.7-38.2,25.9-54.3,22.9c-1.3-3.3-2-6.8-2-10.5c-0.1-16.3,13-29.6,29.3-29.7
					C1417.7,1376.6,1428.1,1383.7,1432.7,1393.9z"/>
				
					<ellipse transform="matrix(1 -3.115345e-03 3.115345e-03 1 -4.3563 4.3562)" class="st3" cx="1396.1" cy="1400.5" rx="9.8" ry="9.8"/>
				<path class="st3" d="M1429,1411.8c1.6,1.1-0.5,11.4-7.8,15.3c-6.5,3.5-15.1,1-15.3-0.9c-0.2-1.4,4.3-1.8,11.7-6.3
					C1425.5,1415.1,1427.9,1411,1429,1411.8z"/>
			</g>
			<path class="st9" d="M1478.9,1362.2c0.3,2-12.9,6.6-26.7,7.9c-22.3,2.1-42.7-4.9-42.4-7.3c0.1-1.1,14.2-1.3,42.4-1.6
				C1474.8,1360.9,1478.8,1361.2,1478.9,1362.2z"/>
			<path class="st4" d="M1364.4,1406.3c0,0,47.7-3,68.3-29.7c0,0-23.2-9.8-41.5-5.9C1372.8,1374.6,1364.4,1406.3,1364.4,1406.3z"/>
			<path class="st4" d="M1577.3,1405.6c0,0-15.6-0.9-32.8-6.6c-12.9-4.3-26.7-11.3-35.6-22.7c0,0,23.1-9.9,41.5-6.1
				c7.4,1.5,13.1,7.5,17.4,14.1C1574.2,1394.2,1577.3,1405.6,1577.3,1405.6z"/>
			<path class="st5" d="M1577.3,1405.6c0,0-15.6-0.9-32.8-6.6c13.9-5.8,23-14.4,23.3-14.7
				C1574.2,1394.2,1577.3,1405.6,1577.3,1405.6z"/>
		</g>
		<g>
			<path class="st1" d="M1303.4,1319.6c-0.1-0.1-9.9-13.4-29.5-22c-26.3-11.5-56.9-9.6-90.8,5.7l-3.6-8
				c45.5-20.5,78.7-14.4,98.5-5.6c21.6,9.6,32.2,24.1,32.7,24.7L1303.4,1319.6l3.6-2.6L1303.4,1319.6z"/>
			
				<ellipse transform="matrix(0.9913 -0.132 0.132 0.9913 -161.8417 166.0462)" class="st4" cx="1171.7" cy="1303.9" rx="20.5" ry="20.5"/>
			
				<ellipse transform="matrix(4.746921e-02 -0.9989 0.9989 4.746921e-02 -189.7916 2404.4995)" class="st9" cx="1165.8" cy="1301.8" rx="11" ry="11"/>
		</g>
		<g>
			<path class="st4" d="M1470.8,1486.1c10,0,17.7,1.9,23.4,4.3c10.1,4.4,13.3,10.7,10.1,10.8c-5,0.2-17-3-30.6-3
				c-15.6,0-26.2,2.2-34.2,2.4c-0.4,0-0.7,0-1.1,0C1430.3,1500.8,1440.2,1486.2,1470.8,1486.1z"/>
		</g>
		<path class="st6" d="M1508.8,1376.3c5.2,4,10.5,7.3,15.9,10.3c5.4,3,10.9,5.6,16.6,7.9l4.3,1.6c0.7,0.3,1.4,0.6,2.1,0.8
			c0.7,0.2,1.5,0.5,2.2,0.7c1.5,0.5,2.9,1,4.4,1.5c1.5,0.4,3,0.8,4.5,1.3l2.2,0.7c0.8,0.2,1.5,0.4,2.3,0.6c1.5,0.4,3,0.8,4.6,1.3
			c3.1,0.8,6.2,1.5,9.4,2.6c-1.6,0.3-3.2,0.6-4.9,0.8c-1.6,0.2-3.3,0.5-4.9,0.5c-1.6,0-3.3,0-4.9,0c-0.8,0-1.7,0-2.5-0.1
			c-0.8-0.1-1.6-0.1-2.5-0.2c-1.6-0.2-3.3-0.4-4.9-0.6c-1.6-0.3-3.2-0.7-4.9-1.1c-3.3-0.7-6.4-1.9-9.5-3c-6.2-2.5-12-5.9-17.2-10.2
			c-0.6-0.5-1.3-1.1-1.9-1.6c-0.6-0.6-1.2-1.2-1.8-1.7c-1.2-1.1-2.3-2.4-3.4-3.7C1512,1382.1,1510.1,1379.4,1508.8,1376.3z"/>
		<path class="st6" d="M1432.8,1376.3c-1.3,3.1-3.2,5.8-5.3,8.4c-1.1,1.3-2.2,2.5-3.4,3.7c-0.6,0.6-1.2,1.2-1.8,1.7
			c-0.6,0.5-1.3,1.1-1.9,1.6c-5.1,4.3-11,7.7-17.2,10.2c-3.1,1.1-6.3,2.3-9.5,3c-1.6,0.4-3.2,0.8-4.9,1.1c-1.6,0.2-3.3,0.4-4.9,0.6
			c-0.8,0.1-1.6,0.2-2.5,0.2c-0.8,0-1.7,0.1-2.5,0.1c-1.7,0-3.3,0-4.9,0c-1.6,0-3.3-0.3-4.9-0.5c-1.6-0.2-3.3-0.5-4.9-0.8
			c3.2-1.1,6.3-1.8,9.4-2.6c1.5-0.4,3.1-0.9,4.6-1.3c0.8-0.2,1.5-0.4,2.3-0.6l2.2-0.7c1.5-0.5,3-0.9,4.5-1.3c1.5-0.5,2.9-1,4.4-1.5
			c0.7-0.3,1.5-0.5,2.2-0.7c0.7-0.2,1.4-0.6,2.2-0.8l4.3-1.6c5.7-2.3,11.2-4.9,16.6-7.9C1422.3,1383.6,1427.5,1380.3,1432.8,1376.3z
			"/>
	</g>
	<ellipse class="st14" cx="1473.1" cy="1873" rx="159.4" ry="41.3"/>
</g>
<g>
	<g>
		<path class="st1" d="M3275.9,614.1c-7,19-29.4,12.8-58.3-5.2c-34.4-21.6-78.8-87.2-61.9-132.6c0,0,0,0,0,0
			c1.5-4.1,3.6-8.1,6.2-11.9c31.3-45,113.8,102.5,115.8,125.2C3278.7,600.2,3278,608.3,3275.9,614.1z"/>
		<path class="st2" d="M3275.9,614.1c-7,19-29.4,12.8-58.3-5.2c-34.4-21.6-78.8-87.2-61.9-132.6
			C3166.7,518.6,3196.3,588.4,3275.9,614.1z"/>
		<path class="st3" d="M3208.2,489.7c7.4,10.6,18.1,29.2,14.6,32c-3.5,2.9-21.8-10.7-33.2-28.4c-7.7-12.1-13.6-28.5-10.3-30.7
			C3183.1,460.1,3198.5,475.9,3208.2,489.7z"/>
	</g>
	<g>
		<path class="st1" d="M3604.9,719.2c0,82.3-57.8,179-149.5,179c-56.9,0-103.7-34.8-131-81.4c-16.8-28.6-26.3-61.6-26.3-93.7
			c0-84.3,92.1-80.3,150.4-80.3c64,0,139.9-4.9,154.1,54.7C3604.1,704,3604.9,711.2,3604.9,719.2z"/>
		<path class="st2" d="M3604.9,719.2c0,82.3-57.8,179-149.5,179c-56.9,0-103.7-34.8-131-81.4c57,26.8,219.3,82.4,278.2-119.3
			C3604.1,704,3604.9,711.2,3604.9,719.2z"/>
		<path class="st3" d="M3329.8,690.5c-11.9,19.4-3.5,47.1,17,58c21.6,11.5,51.1,1.2,59.1-21.6c7.6-21.7-7.1-46-28.2-52.8
			C3360.8,668.6,3339.7,674.4,3329.8,690.5z"/>
	</g>
	<g>
		<path class="st1" d="M3709,658.5c-32.3,19.8-56.5,24.9-60-2.7c-0.6-4.7-0.6-10.5,0.1-17.2c2.3-22.7,86.2-169.4,117.1-124
			c8,11.7,10.5,25.5,9.3,39.8C3771.9,595.4,3737.1,641.3,3709,658.5z"/>
		<path class="st2" d="M3709,658.5c-32.3,19.8-56.5,24.9-60-2.7c21.2-4,63.9-23,126.4-101.4C3771.9,595.4,3737.1,641.3,3709,658.5z"
			/>
		<path class="st3" d="M3714.5,566.9c-14.2,21.3-40.4,56.2-44.5,53.6c-3.6-2.3,10.2-35.4,33-63.1c12.7-15.4,29.5-30.8,32.1-28.7
			C3738.3,531.3,3718.9,560.3,3714.5,566.9z"/>
	</g>
	<g>
		<path class="st1" d="M3333.2,429.1c-4-6.5-6.6-13.6-7.8-20.8c-2.9-16.6,1.4-33.8,12.3-46.9c11.1-13.3,27.7-20.6,44.8-20.5
			c4.9,0,9.8,0.6,14.6,1.9C3392.8,408.9,3333.2,429.1,3333.2,429.1z"/>
		<path class="st2" d="M3333.2,429.1c-4-6.5-6.6-13.6-7.8-20.8c9.2-9.7,18.7-20.2,28.2-31.3c10.5-12.3,20.1-24.4,28.9-36.1
			c4.9,0,9.8,0.6,14.6,1.9C3375.9,371.6,3354.5,400.3,3333.2,429.1z"/>
		<path class="st1" d="M3631,569.5c-25.1,77.9-213.1,59.7-286.4-9c-20.4-19.1-31.9-42-28.6-67.9c15.2-119.1,117.8-206.4,206-184.9
			c31.9,7.8,66.5,29.2,90.9,63.9C3644.2,416,3659.1,482.2,3631,569.5z"/>
		<path class="st4" d="M3602.5,481.3c-3.5,14.2-23,18.6-46.8,18.3c-25-0.3-54.7-5.9-75.1-11.1c-29.1-7.4-84.3-25.6-100.6-47.1
			c-3.8-5-5.5-10.2-4.2-15.5c3.7-15.4,14.3-27.5,28.4-34.7c14.1-7.2,31.6-9.5,49.3-5.2l98.4,24c20.6,5,36.9,17.9,45.4,33.9
			C3603.5,455.4,3605.7,468.4,3602.5,481.3z"/>
		<path class="st5" d="M3602.5,481.3c-3.5,14.2-23,18.6-46.8,18.3c-25-0.3-54.7-5.9-75.1-11.1c-29.1-7.4-84.3-25.6-100.6-47.1
			c58.2,12.6,158.6,28.1,217.3,2.4C3603.5,455.4,3605.7,468.4,3602.5,481.3z"/>
		<path class="st2" d="M3631,569.5c-25.1,77.9-213.1,59.7-286.4-9c49.8,21.3,199.8,78,245.8,10.3c39.6-58.2,30.8-150.9,22.6-199.3
			C3644.2,416,3659.1,482.2,3631,569.5z"/>
		<path class="st3" d="M3401.3,360.9c3.2,7.3,35.2,1.4,58.1-8.1c21.9-9.1,46.2-26.1,43.5-33.2c-2.4-6.3-25.6-3.8-40.7,0
			C3428.2,328.3,3397.9,352.9,3401.3,360.9z"/>
		<path class="st3" d="M3329.2,474c-4.5,21.3,3.5,44.6,9.1,44.5c5.8-0.1,9.8-25.9,10.6-40.4c0.2-4.2,1.8-29.7-4-30.9
			C3340.4,446.1,3332.1,460.2,3329.2,474z"/>
		<path class="st9" d="M3509.7,406.6c-0.2,2-14.2,3.3-27.8,1.3c-22.1-3.3-40.3-15-39.4-17.3c0.4-1.1,14.1,2.1,41.5,8.6
			C3506.1,404.4,3509.8,405.6,3509.7,406.6z"/>
		<g>
			<path class="st1" d="M3335.7,371.9c-0.5-0.6-11.4-14.9-14.5-38.3c-2.9-21.5,0.6-55,33.1-92.9l6.7,5.7
				c-24.3,28.3-34.8,57-31.1,85.5c2.7,21.2,12.7,34.4,12.8,34.6L3335.7,371.9z"/>
			
				<ellipse transform="matrix(0.4061 -0.9138 0.9138 0.4061 1782.8314 3214.7495)" class="st4" cx="3364.8" cy="235.7" rx="20.5" ry="20.5"/>
			
				<ellipse transform="matrix(0.2361 -0.9717 0.9717 0.2361 2346.9717 3444.533)" class="st9" cx="3364.4" cy="229.5" rx="11" ry="11"/>
		</g>
		<g>
			<path class="st4" d="M3466.4,557c-13.8-3-23.2-11.9-29.2-22.2c-10.7-18.4-10.5-41-5.9-40.5c7.1,0.8,21.4,15.7,40.2,19.7
				c21.6,4.6,37.9,0.4,49.2,2.2c0.5,0.1,1,0.2,1.5,0.3C3533.5,518.8,3508.9,566.1,3466.4,557z"/>
			<path class="st5" d="M3466.4,557c-13.8-3-23.2-11.9-29.2-22.2c19.5,0.7,58.4-0.6,83.5-18.7c0.5,0.1,1,0.2,1.5,0.3
				C3533.5,518.8,3508.9,566.1,3466.4,557z"/>
		</g>
		<path class="st7" d="M3388.5,427.7c2.4-2.6,5.5-4.6,8.6-6.2c3.2-1.6,6.6-2.7,10.1-3.5c7.1-1.5,14.5-1.2,21.6,0.6
			c7.1,1.8,13.7,5.1,19.2,9.5c5.5,4.4,10.2,9.8,13.3,16.1c-6.4-3-12.2-6-18-8.5c-5.8-2.6-11.5-4.6-17.3-6.2
			c-5.8-1.5-11.8-2.4-18-2.7C3401.8,426.7,3395.4,426.9,3388.5,427.7z"/>
		<path class="st7" d="M3520.6,456.5c2.3-2.7,5.3-4.8,8.4-6.5c3.1-1.7,6.5-3,10-3.8c7-1.7,14.5-1.8,21.6-0.2
			c7.1,1.5,13.8,4.6,19.5,8.8c5.7,4.2,10.6,9.4,13.9,15.7c-6.5-2.7-12.4-5.6-18.3-7.9c-5.9-2.4-11.7-4.2-17.6-5.5
			c-5.9-1.3-11.9-2-18.1-2C3533.9,455,3527.6,455.5,3520.6,456.5z"/>
	</g>
	<path class="st13" d="M3237.4,376.5c-2,0-3.9-1.2-4.7-3.2c-0.3-0.6-26.4-64.5-71.9-109.7c-2-2-2-5.2,0-7.1c2-2,5.2-2,7.1,0
		c47,46.7,73,110.4,74.1,113.1c1,2.6-0.2,5.5-2.8,6.6C3238.7,376.4,3238,376.5,3237.4,376.5z"/>
	<path class="st13" d="M3288.7,312.7c-2.6,0-4.8-2-5-4.7c-0.1-0.7-5.7-69.5-35.4-126.3c-1.3-2.5-0.3-5.5,2.1-6.8
		c2.5-1.3,5.5-0.3,6.8,2.1c30.7,58.7,36.3,127.3,36.5,130.2c0.2,2.8-1.9,5.2-4.6,5.4C3288.9,312.7,3288.8,312.7,3288.7,312.7z"/>
	<path class="st13" d="M3701.5,431.9c-1.5,0-3-0.7-4-1.9c-1.7-2.2-1.3-5.4,0.9-7.1c2.3-1.8,56.8-43.8,120.8-60.6
		c2.7-0.7,5.4,0.9,6.2,3.6c0.7,2.7-0.9,5.4-3.6,6.2c-62,16.3-116.7,58.4-117.2,58.8C3703.7,431.6,3702.6,431.9,3701.5,431.9z"/>
	<path class="st13" d="M3689.1,351c-1,0-2-0.3-2.9-0.9c-2.3-1.6-2.9-4.7-1.3-7c1.6-2.4,40.9-58.9,96.9-94.3c2.4-1.5,5.5-0.8,7,1.6
		c1.5,2.4,0.8,5.5-1.6,7c-54.2,34.2-93.6,90.9-94,91.5C3692.3,350.3,3690.7,351,3689.1,351z"/>
	
		<rect x="3423.3" y="245.4" transform="matrix(0.9643 -0.2649 0.2649 0.9643 51.7797 917.675)" class="st26" width="10.1" height="43"/>
	
		<rect x="3681" y="620.6" transform="matrix(9.960685e-02 -0.995 0.995 9.960685e-02 2711.1055 4247.3955)" class="st26" width="43" height="10.1"/>
	
		<rect x="3535.9" y="406.1" transform="matrix(0.5879 -0.8089 0.8089 0.5879 1133.4756 3047.1228)" class="st26" width="43" height="10.1"/>
	
		<rect x="3236.6" y="545.9" transform="matrix(0.5879 -0.8089 0.8089 0.5879 897.043 2862.6492)" class="st26" width="43" height="10.1"/>
	
		<rect x="3683.3" y="230.7" transform="matrix(0.41 -0.9121 0.9121 0.41 1969.3947 3515.9856)" class="st27" width="38.2" height="10.1"/>
	
		<rect x="3734" y="503.7" transform="matrix(0.41 -0.9121 0.9121 0.41 1750.256 3723.3169)" class="st27" width="38.2" height="10.1"/>
	
		<rect x="3288.9" y="339.2" transform="matrix(0.8229 -0.5682 0.5682 0.8229 379.8384 1935.1494)" class="st27" width="10.1" height="38.2"/>
	
		<rect x="3333.5" y="587" transform="matrix(0.8229 -0.5682 0.5682 0.8229 246.8894 2004.3273)" class="st27" width="10.1" height="38.2"/>
	
		<rect x="3620.1" y="266" transform="matrix(0.9652 -0.2616 0.2616 0.9652 50.01 958.3535)" class="st28" width="10.1" height="50.7"/>
	
		<rect x="3626.7" y="544.6" transform="matrix(0.9652 -0.2616 0.2616 0.9652 -22.6461 969.7936)" class="st28" width="10.1" height="50.7"/>
	
		<rect x="3464.4" y="248.1" transform="matrix(0.3613 -0.9324 0.9324 0.3613 1992.7286 3415.6067)" class="st28" width="50.7" height="10.1"/>
	
		<rect x="3220.1" y="500.9" transform="matrix(0.3613 -0.9324 0.9324 0.3613 1601.0361 3349.2527)" class="st28" width="50.7" height="10.1"/>
	<ellipse class="st14" cx="3452.1" cy="980.7" rx="159.4" ry="41.3"/>
</g>
<g>
	<g>
		<g>
			<path class="st1" d="M2814.9,1458.5c-9.2,18-30.7,9.3-57.2-12.1c-31.7-25.5-67.9-95.9-45.7-139c0,0,0,0,0,0
				c2-3.9,4.5-7.6,7.6-11.1c36.4-41,100.8,115.2,100.2,138C2819.4,1445.1,2817.7,1453,2814.9,1458.5z"/>
			<path class="st2" d="M2814.9,1458.5c-9.2,18-30.7,9.3-57.2-12.1c-31.7-25.5-67.9-95.9-45.7-139
				C2717.7,1350.8,2738.9,1423.6,2814.9,1458.5z"/>
			<path class="st3" d="M2762.4,1327c6.1,11.4,14.5,31.1,10.7,33.5c-3.8,2.4-20.4-13.2-29.6-32.2c-6.3-13-10.2-29.9-6.6-31.7
				C2741,1294.6,2754.3,1312.2,2762.4,1327z"/>
		</g>
		<g>
			<path class="st1" d="M3169.9,1634.9c0,82.3-57.8,179-149.5,179c-56.9,0-103.7-34.8-131-81.4c-16.8-28.6-26.3-61.6-26.3-93.7
				c0-84.3,92.1-80.3,150.4-80.3c64,0,139.9-4.9,154.1,54.7C3169.1,1619.7,3169.9,1626.9,3169.9,1634.9z"/>
			<path class="st2" d="M3169.9,1634.9c0,82.3-57.8,179-149.5,179c-56.9,0-103.7-34.8-131-81.4c57,26.8,219.3,82.4,278.2-119.3
				C3169.1,1619.7,3169.9,1626.9,3169.9,1634.9z"/>
			<path class="st3" d="M2894.8,1606.3c-11.9,19.4-3.5,47.1,17,58c21.6,11.5,51.1,1.2,59.1-21.6c7.6-21.7-7.1-46-28.2-52.8
				C2925.8,1584.3,2904.7,1590.1,2894.8,1606.3z"/>
		</g>
		<g>
			<path class="st1" d="M3275.7,1436c-26.2,27.3-48.3,38.4-58.7,12.6c-1.8-4.4-3.2-10-4.3-16.7c-3.5-22.5,40.6-185.7,81.9-149.6
				c10.7,9.3,16.6,22,19.1,36.1C3320.6,1359.1,3298.5,1412.3,3275.7,1436z"/>
			<path class="st2" d="M3275.7,1436c-26.2,27.3-48.3,38.4-58.7,12.6c19.5-9.3,56-38.5,96.6-130.1
				C3320.6,1359.1,3298.5,1412.3,3275.7,1436z"/>
			<path class="st3" d="M3257.8,1346.1c-8.4,24.2-24.9,64.6-29.4,63.1c-4.1-1.3,0.9-36.8,16-69.4c8.4-18.2,20.7-37.3,23.8-35.9
				C3271.9,1305.5,3260.4,1338.5,3257.8,1346.1z"/>
		</g>
		<g>
			<path class="st1" d="M2854.3,1383.3c-5.4-5.4-9.6-11.7-12.4-18.5c-6.6-15.4-6.5-33.2,1.1-48.5c7.7-15.5,22.1-26.5,38.9-30.3
				c4.7-1.1,9.7-1.6,14.7-1.5C2907.6,1349.8,2854.3,1383.3,2854.3,1383.3z"/>
			<path class="st2" d="M2854.3,1383.3c-5.4-5.4-9.6-11.7-12.4-18.5c6.7-11.6,13.5-23.9,20.2-37c7.4-14.4,13.9-28.4,19.8-41.8
				c4.7-1.1,9.7-1.6,14.7-1.5C2882.5,1317.4,2868.4,1350.4,2854.3,1383.3z"/>
			<path class="st1" d="M3176.5,1451c-6.4,81.5-193.5,107.4-280.7,57.6c-24.2-13.8-40.7-33.5-43.5-59.5
				c-12.8-119.4,66.8-228.1,157.6-227.6c32.9,0.2,71.4,13,103.3,41.1C3153.8,1298.5,3183.6,1359.5,3176.5,1451z"/>
			<path class="st2" d="M3176.5,1451c-6.4,81.5-193.5,107.4-280.7,57.6c53.4,9.2,212.4,29.6,241.5-46.9
				c25-65.8-4.9-153.9-24.2-199.1C3153.8,1298.5,3183.6,1359.5,3176.5,1451z"/>
			<path class="st3" d="M2904.8,1301.2c4.8,6.4,34.6-6.8,54.6-21.3c19.2-14,38.9-36.1,34.6-42.4c-3.8-5.6-25.8,2.2-39.6,9.5
				C2923.4,1263.2,2899.6,1294.2,2904.8,1301.2z"/>
			<path class="st3" d="M2860.7,1427.9c0.6,21.8,13.8,42.6,19.2,41.2c5.7-1.4,3.5-27.5,1-41.8c-0.7-4.1-5.2-29.3-11-29.2
				C2865.3,1398.1,2860.4,1413.8,2860.7,1427.9z"/>
			<g>
				<path class="st4" d="M3128.3,1343.5c-0.1,16.4-18.1,26.3-41.3,32.2c-24.4,6.2-54.6,7.8-75.6,7.5c-30-0.5-88-6-108.8-25.2
					c-4.9-4.5-7.7-9.7-7.7-15.8c0.1-17.7,7.6-33.7,19.6-45.3c12-11.5,28.6-18.6,46.8-18.5l101.3,0.6c21.2,0.1,40,9.9,52,25.1
					C3123.3,1315,3128.4,1328.7,3128.3,1343.5z"/>
				<path class="st5" d="M3128.3,1343.5c-0.1,16.4-18.1,26.3-41.3,32.2c-24.4,6.2-54.6,7.8-75.6,7.5c-30-0.5-88-6-108.8-25.2
					c59.5-1.4,160.8-10.6,212-54C3123.3,1315,3128.4,1328.7,3128.3,1343.5z"/>
				<g>
					<g>
						<path class="st6" d="M3107.7,1329.6c-0.1,16.3-13.4,29.4-29.7,29.3c-12.6-0.1-23.3-8-27.5-19.1c-1.2-3.3-1.9-6.8-1.9-10.5
							c0.1-16.3,13.4-29.4,29.7-29.3c12,0.1,22.3,7.3,26.8,17.6C3106.8,1321.2,3107.7,1325.3,3107.7,1329.6z"/>
						<path class="st7" d="M3078.2,1300c12,0.1,22.4,7.3,27,17.6c1.6,3.7,2.5,7.8,2.5,12.1c-0.1,16.2-13.3,29.3-29.5,29.3
							c-0.1,0-0.1,0-0.2,0c-12.6-0.1-23.3-8-27.5-19.1c-1.2-3.3-1.9-6.8-1.9-10.5C3048.8,1313.1,3062,1300,3078.2,1300L3078.2,1300z
							 M3078.2,1294.9L3078.2,1294.9c-18.9,0-34.4,15.4-34.5,34.3c0,4.2,0.7,8.4,2.2,12.3c5,13.3,17.9,22.3,32.1,22.4l0.2,0
							c18.9,0,34.4-15.4,34.5-34.3c0-4.9-1-9.7-3-14.2c-5.5-12.4-17.8-20.5-31.4-20.6L3078.2,1294.9L3078.2,1294.9z"/>
					</g>
					<path class="st8" d="M3105.2,1317.5c-11.2,26.6-38.5,25.6-54.5,22.4c-1.2-3.3-1.9-6.8-1.9-10.5c0-16.3,13.3-29.5,29.6-29.4
						C3090.3,1300,3100.6,1307.2,3105.2,1317.5z"/>
					
						<ellipse transform="matrix(5.776179e-03 -1 1 5.776179e-03 1729.8901 4379.1211)" class="st3" cx="3067.2" cy="1319.6" rx="9.8" ry="9.8"/>
					<path class="st3" d="M3101.3,1335.3c1.6,1.1-0.6,11.3-8,15.2c-6.5,3.5-15.1,0.8-15.3-1c-0.1-1.4,4.3-1.7,11.8-6.2
						C3097.7,1338.6,3100.2,1334.6,3101.3,1335.3z"/>
				</g>
				<g>
					<g>
						<path class="st6" d="M2976.9,1328.9c-0.1,16.3-13.4,29.4-29.7,29.3c-12.6-0.1-23.3-8-27.5-19.1c-1.2-3.3-1.9-6.8-1.9-10.5
							c0.1-16.3,13.4-29.4,29.7-29.3c12,0.1,22.3,7.3,26.8,17.6C2976,1320.5,2976.9,1324.6,2976.9,1328.9z"/>
						<path class="st7" d="M2947.6,1299.1c12,0.1,22.2,7.4,26.7,17.7c1.6,3.7,2.5,7.8,2.5,12.1c-0.1,16.2-13.3,29.3-29.5,29.3
							c-0.1,0-0.1,0-0.2,0c-12.6-0.1-23.3-8-27.5-19.1c-1.2-3.3-1.9-6.8-1.9-10.5C2918,1312.3,2931.4,1299.1,2947.6,1299.1
							L2947.6,1299.1z M2947.4,1294.2L2947.4,1294.2c-18.9,0-34.4,15.4-34.5,34.3c0,4.2,0.7,8.4,2.2,12.3
							c5,13.3,17.9,22.3,32.1,22.4l0.2,0c18.9,0,34.4-15.4,34.5-34.3c0-4.9-1-9.7-3-14.2c-5.5-12.4-17.8-20.5-31.4-20.6
							L2947.4,1294.2L2947.4,1294.2z"/>
					</g>
					<path class="st8" d="M2974.3,1316.7c-11.2,26.6-38.5,25.6-54.5,22.4c-1.2-3.3-1.9-6.8-1.9-10.5c0-16.3,13.3-29.5,29.6-29.4
						C2959.5,1299.2,2969.8,1306.5,2974.3,1316.7z"/>
					
						<ellipse transform="matrix(5.776175e-03 -1 1 5.776175e-03 1600.5736 4247.5396)" class="st3" cx="2936.4" cy="1318.8" rx="9.8" ry="9.8"/>
					<path class="st3" d="M2970.5,1334.6c1.6,1.1-0.6,11.3-8,15.2c-6.5,3.5-15.1,0.8-15.3-1c-0.1-1.4,4.3-1.7,11.8-6.2
						C2966.9,1337.8,2969.4,1333.8,2970.5,1334.6z"/>
				</g>
				<path class="st9" d="M3020.8,1285.4c0.3,2-13,6.5-26.7,7.7c-22.3,1.9-42.6-5.2-42.3-7.7c0.1-1.1,14.2-1.2,42.4-1.2
					C3016.7,1284.1,3020.6,1284.4,3020.8,1285.4z"/>
			</g>
			<g>
				<path class="st1" d="M2843.4,1327.1c-0.6-0.5-14.5-11.8-23-33.9c-7.7-20.2-12.2-53.6,10.7-98l7.8,4
					c-16.9,32.8-20.5,64.3-10.3,90.8c7.6,19.9,20.2,30.1,20.3,30.2L2843.4,1327.1z"/>
				
					<ellipse transform="matrix(0.1835 -0.983 0.983 0.1835 1151.3055 3761.7947)" class="st4" cx="2840.2" cy="1187.8" rx="20.5" ry="20.5"/>
				
					<ellipse transform="matrix(4.719241e-03 -1 1 4.719241e-03 1643.1124 4014.6392)" class="st9" cx="2838.4" cy="1181.9" rx="11" ry="11"/>
			</g>
			<g>
				<path class="st4" d="M3010.9,1433.7c-14.2,0.3-25.3-4.1-33.4-9.9c-14.6-10.4-19.5-25.3-14.9-25.7c7.1-0.7,24.4,6.8,43.6,6.4
					c22.1-0.5,37.1-6,48.4-6.7c0.5,0,1-0.1,1.5-0.1C3067.7,1397.5,3054.4,1432.7,3010.9,1433.7z"/>
				<path class="st5" d="M3010.9,1433.7c-14.2,0.3-25.3-4.1-33.4-9.9c19.2-2.8,56.8-10,77.1-26c0.5,0,1-0.1,1.5-0.1
					C3067.7,1397.5,3054.4,1432.7,3010.9,1433.7z"/>
			</g>
		</g>
	</g>
	<g>
		<g>
			<rect x="2832.1" y="872.9" class="st29" width="132.5" height="185.6"/>
			<rect x="2813.3" y="872.9" class="st30" width="132.5" height="185.6"/>
			<path class="st31" d="M2945.9,872.9v185.6h-132.5v-42.1c43.7-2.3,101.6-27.4,104.8-143.5H2945.9z"/>
			<rect x="2823.7" y="872.9" class="st32" width="12.1" height="185.6"/>
			<rect x="2945.9" y="877" class="st33" width="8.3" height="178.1"/>
			<g>
				<path class="st34" d="M2927.2,1001.7H2916l-9.1-26.2h-36.4l-8.6,26.2h-11.2l32.9-93.3h10.4L2927.2,1001.7z M2903.6,965.7
					l-13.5-39.8c-0.4-1.3-0.9-3.4-1.3-6.2h-0.2c-0.4,2.6-0.9,4.7-1.4,6.2l-13.4,39.8H2903.6z"/>
			</g>
		</g>
		<g>
			<rect x="3091.8" y="873.3" class="st35" width="132.5" height="185.6"/>
			<rect x="3073" y="873.3" class="st36" width="132.5" height="185.6"/>
			<path class="st37" d="M3205.6,873.3v185.6H3073v-42.1c43.7-2.3,101.6-27.4,104.8-143.5H3205.6z"/>
			<rect x="3083.4" y="873.3" class="st38" width="12.1" height="185.6"/>
			<rect x="3205.6" y="877.4" class="st33" width="8.3" height="178.1"/>
			<path class="st34" d="M3176.2,956c4.8-10,6-19.1,6.2-24.7c4.9,0.4,9.9,0.9,14.8,1.6l1-7.4c-16.2-2.2-32.6-3-48.9-2.4
				c-1.6,0.1-3.3,0.2-4.9,0.3l6.5-20.1l-7.1-2.3l-7.5,22.9c-10.5,0.9-21,2.4-31.3,4.6l1.5,7.3c9-1.8,18.1-3.2,27.3-4.1l-11.8,36.3
				l23,11c-8.8,5.3-19.3,9.4-31.7,12.2l1.7,7.2c16.3-3.7,28.5-9.4,37.8-15.8l32.4,15.5l3.2-6.7l-29-13.9
				C3167.7,970.4,3172.9,962.7,3176.2,956z M3131,964.1l10.8-33.1c2.6-0.2,5.1-0.3,7.7-0.4c8.4-0.3,16.9-0.3,25.4,0.2
				c-0.2,4.9-1.2,13.3-5.6,22.4c-4,8.2-9.7,15.2-17.2,21L3131,964.1z"/>
		</g>
		<path class="st1" d="M3095.5,843.7h69.6l-15.3-64.5l-7.2,1.7l11.4,48.3c-32.3-24.2-66.4-39.5-101.2-45.3
			c-29.8-4.9-60.2-3.1-90.4,5.6c-51.4,14.7-83.9,43.5-85.2,44.7l5,5.5c0.3-0.3,32.8-29,82.6-43.2c64.8-18.5,127.4-5.1,186.3,39.6
			h-55.5V843.7z"/>
		<path class="st1" d="M2946.7,1095.1h-69.6l15.3,64.5l7.2-1.7l-11.4-48.3c32.3,24.2,66.4,39.5,101.2,45.3
			c29.8,4.9,60.2,3.1,90.4-5.6c51.4-14.7,83.9-43.5,85.2-44.7l-5-5.5c-0.3,0.3-32.8,29-82.6,43.2c-64.8,18.5-127.4,5.1-186.3-39.6
			h55.5V1095.1z"/>
	</g>
	<ellipse class="st14" cx="3020.8" cy="1881.2" rx="159.4" ry="41.3"/>
</g>
<g>
	<g>
		<path class="st39" d="M2306.4,1745l-345.4,19.8c-22.7,1.3-44.3-16.3-48.1-39.3l-98.2-592.3c-3.8-23,11.5-42.7,34.3-44l345.4-19.8
			c22.7-1.3,44.3,16.3,48.1,39.3l98.2,592.3C2344.4,1724,2329.1,1743.7,2306.4,1745z"/>
		<path class="st40" d="M2265.6,1107.4l98.2,592.3c3.8,23-11.5,42.7-34.3,44l-345.4,19.8c-22.7,1.3-44.3-16.3-48.1-39.3l-98.2-592.3
			c-3.8-23,11.5-42.7,34.3-44l345.4-19.8C2240.2,1066.8,2261.7,1084.4,2265.6,1107.4z"/>
		<path class="st41" d="M2265.6,1107.4l1.3,8c-9,237-217.7,377.4-357.9,445.3l-71.1-428.7c-3.8-23,11.5-42.7,34.3-44l345.4-19.8
			C2240.2,1066.8,2261.7,1084.4,2265.6,1107.4z"/>
		<path class="st42" d="M2241.9,1124.2l83.7,504.6c3.3,19.9-10,37-29.7,38.1l-304,17.5c-19.7,1.1-38.3-14.1-41.6-34l-83.7-504.6
			c-3.3-19.9,10-37,29.7-38.1l304-17.5C2219.9,1089.1,2238.5,1104.3,2241.9,1124.2z"/>
		<path class="st43" d="M2241.9,1124.2l12.6,76.3c-78.9,265.6-321.2,347.1-321.2,347.1l-66.6-401.8c-3.3-19.9,10-37,29.7-38.1
			l304-17.5C2219.9,1089.1,2238.5,1104.3,2241.9,1124.2z"/>
		<g>
			<path class="st44" d="M2175.2,1711.3c2.3,14-7,26-20.9,26.8s-27-9.9-29.3-24c-2.3-14,7-26,20.9-26.8S2172.8,1697.3,2175.2,1711.3
				z"/>
			<path class="st45" d="M2147,1694.2c10.1-0.6,19.8,7.3,21.5,17.6s-5.2,19.1-15.3,19.7c-10.1,0.6-19.8-7.3-21.5-17.6
				S2136.8,1694.7,2147,1694.2L2147,1694.2z M2145.5,1685.3c-15,0.9-25.1,13.8-22.6,29c2.5,15.1,16.7,26.7,31.7,25.9
				c15-0.9,25.1-13.8,22.6-29C2174.7,1696.1,2160.5,1684.5,2145.5,1685.3L2145.5,1685.3z"/>
		</g>
		<path class="st41" d="M2091.3,1706.8l-122.6,7c-3.5,0.2-6.8-2.5-7.3-6c-0.6-3.5,1.8-6.5,5.2-6.7l122.6-7c3.5-0.2,6.8,2.5,7.3,6
			C2097.1,1703.5,2094.8,1706.6,2091.3,1706.8z"/>
		<path class="st41" d="M2322.4,1693.5l-120.1,6.9c-3.5,0.2-6.8-2.5-7.3-6c-0.6-3.5,1.8-6.5,5.2-6.7l120.1-6.9
			c3.5-0.2,6.8,2.5,7.3,6C2328.2,1690.3,2325.8,1693.3,2322.4,1693.5z"/>
		<path class="st46" d="M2291.1,1648.9l-296.9,17.1c-9.5,0.5-18.5-6.8-20.1-16.4l0,0c-1.6-9.6,4.8-17.9,14.3-18.4l296.9-17.1
			c9.5-0.5,18.5,6.8,20.1,16.4l0,0C2307,1640.1,2300.6,1648.3,2291.1,1648.9z"/>
		<path class="st47" d="M2095.6,1166.9c1.4,8.1-0.1,15.7-3.5,21.3c-3.4,5.6-8.9,9.2-15.5,9.6l-128.4,7.4l-37.5,25.2
			c0.8-1.3,4.3-15.8,7.1-27.7c-7.8-4.8-14-13.9-15.8-24.6c-1.4-8.1,0.1-15.7,3.5-21.3c3.4-5.6,8.9-9.2,15.5-9.6l145.9-8.4
			C2080,1138,2092.9,1150.6,2095.6,1166.9z"/>
		<path class="st48" d="M2066.1,1176l-134.8,7.7c-4.8,0.3-9.3-3.4-10-8.2l0,0c-0.8-4.8,2.4-8.9,7.2-9.2l134.8-7.7
			c4.8-0.3,9.3,3.4,10.1,8.2l0,0C2074.1,1171.6,2070.9,1175.7,2066.1,1176z"/>
		<path class="st47" d="M2117.5,1465c1.4,8.1,4.7,15.4,9,20.5c4.3,5.1,9.5,8.2,14.7,7.9l100.9-5.8l36.2,21
			c-1-1.2-7.9-15.1-13.6-26.5c4.6-5.5,6.7-15.1,4.9-25.8c-1.4-8.1-4.7-15.4-8.9-20.6c-4.3-5.1-9.5-8.2-14.7-7.9l-114.5,6.6
			C2121,1435,2114.8,1448.7,2117.5,1465z"/>
		<path class="st48" d="M2143.7,1470.9l104.1-6c4.2-0.2,7.1-3.9,6.3-8.2l-0.3-2c-0.7-4.3-4.7-7.5-8.9-7.3l-104.1,6
			c-4.2,0.2-7.1,3.9-6.3,8.2l0.3,2C2135.5,1467.9,2139.5,1471.1,2143.7,1470.9z"/>
		<path class="st47" d="M2095,1381c1.6,9.6,0.8,18.3-1.6,24.8c-2.5,6.5-6.7,10.6-12.1,10.9l-104.8,6l-29.2,28.8
			c0.6-1.5,2.6-18.4,4.2-32.3c-6.7-5.7-12.3-16.5-14.4-29.1c-1.6-9.6-0.8-18.3,1.6-24.8c2.5-6.5,6.7-10.6,12.1-10.9l119-6.8
			C2080.6,1346.9,2091.9,1361.9,2095,1381z"/>
		<path class="st48" d="M2068.5,1377.7L1960,1384c-4.3,0.2-8.4-3.1-9.1-7.4l-0.3-1.7c-0.7-4.3,2.2-8.1,6.5-8.3l108.5-6.2
			c4.3-0.2,8.4,3.1,9.1,7.4l0.3,1.7C2075.7,1373.8,2072.8,1377.5,2068.5,1377.7z"/>
		<path class="st48" d="M2036.6,1408.3l-73.1,4.2c-3.6,0.2-7-2.6-7.6-6.2l-0.7-4.3c-0.6-3.6,1.8-6.7,5.4-6.9l73.1-4.2
			c3.6-0.2,7,2.6,7.6,6.2l0.7,4.3C2042.5,1405,2040.1,1408.1,2036.6,1408.3z"/>
		<path class="st47" d="M2230.4,1300.7c6.7,16.6,15.9,39.7,16.7,41.3c0.9,1.7-37.9-17.4-62.8-29.9l-85.9,4.9
			c-20.4,1.2-39.8-14.6-43.2-35.3l-3.6-21.8c-3.4-20.7,10.4-38.4,30.8-39.5l109.7-6.3c20.4-1.2,39.8,14.6,43.2,35.3l3.6,21.8
			C2240.8,1282.8,2237.3,1293.3,2230.4,1300.7z"/>
		<path class="st48" d="M2207.5,1254.2l-127,7.3c-4.8,0.3-9.3-3.4-10.1-8.2v0c-0.8-4.8,2.4-8.9,7.2-9.2l127-7.3
			c4.8-0.3,9.3,3.4,10,8.2l0,0C2215.4,1249.8,2212.2,1253.9,2207.5,1254.2z"/>
		<path class="st48" d="M2146.4,1293.7l-60.3,3.5c-4.6,0.3-9-3.3-9.8-8l-1.9-11.8c-0.8-4.7,2.3-8.7,7-8.9l60.3-3.5
			c4.6-0.3,9,3.3,9.8,8l1.9,11.8C2154.1,1289.4,2151,1293.4,2146.4,1293.7z"/>
		<path class="st48" d="M2213.6,1289.8l-40.6,2.3c-4.6,0.3-9-3.3-9.8-8l-2-11.8c-0.8-4.7,2.3-8.7,7-8.9l40.6-2.3
			c4.6-0.3,9,3.3,9.8,8l1.9,11.8C2221.4,1285.6,2218.2,1289.6,2213.6,1289.8z"/>
		<path class="st47" d="M2279.4,1566.5l8.3,30.4l-39.3-25.1l-53.8,3.1c-10.7,0.6-20.9-7.7-22.7-18.5l-1.7-10.5
			c-1.8-10.9,5.4-20.1,16.2-20.8l74.3-4.3c10.7-0.6,20.9,7.7,22.7,18.5l1.7,10.5C2286.2,1556.5,2283.8,1562.6,2279.4,1566.5z"/>
		<path class="st48" d="M2192.8,1557.5l72-4.1c4.8-0.3,8-4.4,7.2-9.2l0,0c-0.8-4.8-5.3-8.5-10-8.2l-72,4.1c-4.8,0.3-8,4.4-7.2,9.2
			l0,0C2183.5,1554.1,2188,1557.8,2192.8,1557.5z"/>
	</g>
	<g>
		<g>
			<path class="st1" d="M2532.4,1635.6c0,82.3-57.8,179-149.5,179c-56.9,0-103.7-34.8-131-81.4c-16.8-28.6-26.3-61.6-26.3-93.7
				c0-84.3,92.1-80.3,150.4-80.3c64,0,139.9-4.9,154.1,54.7C2531.6,1620.4,2532.4,1627.6,2532.4,1635.6z"/>
			<path class="st2" d="M2532.4,1635.6c0,82.3-57.8,179-149.5,179c-56.9,0-103.7-34.8-131-81.4c57,26.8,219.3,82.4,278.2-119.3
				C2531.6,1620.4,2532.4,1627.6,2532.4,1635.6z"/>
			<path class="st3" d="M2304.9,1591.9c-11.9,19.4-3.5,47.1,17,58c21.6,11.5,51.1,1.2,59.1-21.6c7.6-21.7-7.1-46-28.2-52.8
				C2335.9,1570,2314.8,1575.7,2304.9,1591.9z"/>
		</g>
		<g>
			<path class="st1" d="M2221.4,1645.4c43.7,6.6,72.1,1.2,63.3-30.2c-1.5-5.4-4.1-11.5-7.9-18.5c-12.7-23.4-169.6-143.1-182.3-80.3
				c-3.3,16.2,0.2,32.2,8.1,47C2125.1,1606,2183.4,1639.6,2221.4,1645.4z"/>
			<path class="st2" d="M2221.4,1645.4c43.7,6.6,72.1,1.2,63.3-30.2c-24.7,5.3-79.2,4.2-182.1-51.8
				C2125.1,1606,2183.4,1639.6,2221.4,1645.4z"/>
			<path class="st3" d="M2174,1549.3c25,16.4,69,42.1,72.2,37.5c2.9-4.1-27-33.5-64.2-52.9c-20.7-10.9-45.7-19.8-47.6-16.4
				C2132.1,1521.8,2166.2,1544.2,2174,1549.3z"/>
		</g>
		<g>
			<path class="st1" d="M2541.4,1451.8c-5.9,81.6-192.9,108.5-280.4,59.2c-24.3-13.7-40.9-33.3-43.8-59.2
				c-13.4-119.3,65.5-228.5,156.2-228.5c32.9,0,71.5,12.6,103.5,40.5C2517.8,1299.5,2548,1360.2,2541.4,1451.8z"/>
			<path class="st4" d="M2274,1466.9c-8.2-2.7-13.5-7.9-16.7-13.5c-5.9-10-5.2-21.1-2.4-20.5c4.2,1,10.6,14.3,21.7,17.9
				c12.7,4.1,24.2-1.2,30.9,0.6c0.3,0.1,0.6,0.2,0.9,0.3C2315,1453.9,2299.1,1475.1,2274,1466.9z"/>
			<path class="st2" d="M2541.4,1451.8c-5.9,81.6-192.9,108.5-280.4,59.2c53.5,8.9,212.6,28.4,241.2-48.3
				c24.6-65.9-5.8-153.9-25.3-198.9C2517.8,1299.5,2548,1360.2,2541.4,1451.8z"/>
			<g>
				<path class="st4" d="M2413,1392c-3.4,16-21.1,22.5-42.5,24.1c-22.5,1.6-49.1-2.2-67.3-6.3c-26.1-5.9-75.3-21.7-89.5-44.2
					c-3.3-5.3-4.7-10.9-3.4-16.9c3.7-17.3,12.6-35,25.4-44.2c12.8-9.1,29.5-9.7,45.3-6.4l88,18.8c18.4,3.9,32.8,16.9,40.1,33.9
					C2414.4,1363.2,2416.1,1377.5,2413,1392z"/>
				<path class="st5" d="M2413,1392c-3.4,16-21.1,22.5-42.5,24.1c-22.5,1.6-49.1-2.2-67.3-6.3c-26.1-5.9-75.3-21.7-89.5-44.2
					c52.1,9.3,142,18.5,195.5-14.7C2414.4,1363.2,2416.1,1377.5,2413,1392z"/>
				<path class="st9" d="M2337.4,1318.2c-0.2,2-12.6,4-24.8,2.7c-19.8-2.1-36-12.8-35.3-15.2c0.4-1.1,12.6,1.4,37.1,6.4
					C2334.1,1316.2,2337.5,1317.1,2337.4,1318.2z"/>
			</g>
			<g>
				<g>
					<path class="st6" d="M2281.3,1340.1c0,14.8-12,26.7-26.7,26.7c-11.4,0-21.2-7.1-25-17.2c-1.1-3-1.8-6.2-1.8-9.5
						c0-14.8,12-26.7,26.7-26.7c10.9,0,20.2,6.5,24.4,15.8C2280.5,1332.5,2281.3,1336.2,2281.3,1340.1z"/>
					<path class="st7" d="M2254.6,1313.4c10.9,0,20.2,6.5,24.4,15.8c1.5,3.3,2.3,7,2.3,10.9c0,14.8-12,26.7-26.7,26.7
						c-11.4,0-21.2-7.1-25-17.2c-1.1-3-1.8-6.2-1.8-9.5C2227.8,1325.4,2239.8,1313.4,2254.6,1313.4L2254.6,1313.4z M2254.6,1308.4
						c-17.5,0-31.8,14.3-31.8,31.8c0,3.9,0.7,7.7,2.1,11.3c4.7,12.2,16.6,20.4,29.7,20.4c17.5,0,31.8-14.3,31.8-31.8
						c0-4.5-0.9-8.9-2.8-13C2278.5,1315.7,2267.1,1308.4,2254.6,1308.4L2254.6,1308.4z"/>
				</g>
				<path class="st8" d="M2279,1329.2c-10,24.1-34.7,23.4-49.3,20.6c-1.1-3-1.8-6.2-1.8-9.5c0-14.8,11.9-26.8,26.7-26.8
					C2265.4,1313.4,2274.8,1319.9,2279,1329.2z"/>
				<circle class="st3" cx="2244.5" cy="1331.3" r="8.9"/>
				<path class="st3" d="M2275.6,1345.3c1.5,1-0.5,10.3-7.1,13.9c-5.9,3.2-13.7,0.8-13.9-0.9c-0.1-1.3,3.9-1.6,10.7-5.7
					C2272.3,1348.3,2274.5,1344.6,2275.6,1345.3z"/>
			</g>
			<g>
				<g>
					<path class="st6" d="M2382,1366.9c0,14.8-12,26.7-26.7,26.7c-11.4,0-21.2-7.1-25-17.2c-1.1-3-1.8-6.2-1.8-9.5
						c0-14.8,12-26.7,26.7-26.7c10.9,0,20.2,6.5,24.4,15.8C2381.2,1359.3,2382,1363,2382,1366.9z"/>
					<path class="st7" d="M2355.2,1340.1c10.9,0,20.2,6.5,24.4,15.8c1.5,3.3,2.3,7,2.3,10.9c0,14.8-12,26.7-26.7,26.7
						c-11.4,0-21.2-7.1-25-17.2c-1.1-3-1.8-6.2-1.8-9.5C2328.5,1352.1,2340.5,1340.1,2355.2,1340.1L2355.2,1340.1z M2355.3,1335.1
						c-17.5,0-31.8,14.3-31.8,31.8c0,3.9,0.7,7.7,2.1,11.3c4.7,12.2,16.6,20.4,29.7,20.4c17.5,0,31.8-14.3,31.8-31.8
						c0-4.5-0.9-8.9-2.8-13C2379.1,1342.5,2367.8,1335.1,2355.3,1335.1L2355.3,1335.1z"/>
				</g>
				<path class="st8" d="M2379.6,1355.9c-10,24.1-34.7,23.4-49.3,20.6c-1.1-3-1.8-6.2-1.8-9.5c0-14.8,11.9-26.8,26.7-26.8
					C2366.1,1340.1,2375.4,1346.6,2379.6,1355.9z"/>
				<circle class="st3" cx="2345.2" cy="1358" r="8.9"/>
				<path class="st3" d="M2376.2,1372.1c1.5,1-0.5,10.3-7.1,13.9c-5.9,3.2-13.7,0.8-13.9-0.9c-0.1-1.3,3.9-1.6,10.7-5.7
					C2373,1375.1,2375.2,1371.4,2376.2,1372.1z"/>
			</g>
			<g>
				<path class="st1" d="M2388.5,1253.4c-0.1-0.7-2.7-18.6,6.1-40.5c8-20.1,27.4-47.7,74.3-64.9l3,8.3c-35,12.8-58.2,32.8-68.9,59.4
					c-8,19.9-5.7,36.2-5.7,36.4L2388.5,1253.4z"/>
				
					<ellipse transform="matrix(0.8007 -0.5991 0.5991 0.8007 -193.7957 1715.0026)" class="st4" cx="2480.4" cy="1148.7" rx="20.5" ry="20.5"/>
				
					<ellipse transform="matrix(0.6806 -0.7327 0.7327 0.6806 -44.3914 2184.3987)" class="st9" cx="2483.1" cy="1143.1" rx="11" ry="11"/>
			</g>
			<path class="st3" d="M2425.6,1257.9c2.9,17.4-29,40.7-59.6,43.6c-27.2,2.5-60.4-10.5-62.1-27.1c-1.8-17.7,31.9-38.1,62.1-40.3
				C2390.5,1232.2,2422.9,1241.7,2425.6,1257.9z"/>
		</g>
	</g>
	<ellipse class="st14" cx="2376.7" cy="1880.4" rx="159.4" ry="41.3"/>
</g>
</svg>
