<?xml version="1.0" encoding="utf-8"?>
<!-- Generator: Adobe Illustrator 21.0.2, SVG Export Plug-In . SVG Version: 6.00 Build 0)  -->
<svg version="1.1" id="Layer_2" xmlns="http://www.w3.org/2000/svg" xmlns:xlink="http://www.w3.org/1999/xlink" x="0px" y="0px"
	 viewBox="0 0 3857.2 2000" style="enable-background:new 0 0 3857.2 2000;" xml:space="preserve">
<style type="text/css">
	.st0{fill:#5FBBE8;}
	.st1{fill:#5FAEDE;}
	.st2{fill:#B1ECED;}
	.st3{fill:#294F81;}
	.st4{fill:#33487A;}
	.st5{fill:#393760;}
	.st6{fill:#46AED2;}
	.st7{fill:#2F4572;}
	.st8{fill:#296ABD;}
	.st9{fill:#BBE1F4;}
	.st10{fill:#B1D3F0;}
	.st11{fill:#CAEFF9;}
	.st12{fill:#C9EAFF;}
</style>
<g>
	<g>
		<g>
			<path class="st0" d="M1488.7,1173.9c38.8,11.3,29.7,56.8-2.4,116.8c-38.3,71.6-162.7,169.1-255.7,141.6c0,0,0,0,0,0
				c-8.5-2.5-16.7-6-24.5-10.7c-94.1-56.1,188.5-240.9,233.4-248C1460.7,1170.1,1476.9,1170.4,1488.7,1173.9z"/>
			<path class="st1" d="M1488.7,1173.9c38.8,11.3,29.7,56.8-2.4,116.8c-38.3,71.6-162.7,169.1-255.7,141.6
				C1313.7,1404.7,1448.6,1335.9,1488.7,1173.9z"/>
			<path class="st2" d="M1250.3,1326c20-16.3,55.7-40.1,61.8-33.6c6.2,6.6-18.2,45-52.1,70.1c-23.1,17.1-54.9,31.1-59.8,24.8
				C1194.8,1380,1224.2,1347.3,1250.3,1326z"/>
		</g>
		<g>
			<path class="st0" d="M2178.1,1288.3c0,164.4-115.4,357.6-298.6,357.6c-113.6,0-207-69.5-261.7-162.5
				c-33.6-57.1-52.5-123-52.5-187.1c0-168.5,183.9-160.4,300.4-160.4c127.8,0,279.5-9.8,307.8,109.2
				C2176.5,1257.9,2178.1,1272.3,2178.1,1288.3z"/>
			<path class="st1" d="M2178.1,1288.3c0,164.4-115.4,357.6-298.6,357.6c-113.6,0-207-69.5-261.7-162.5
				c113.8,53.6,438.1,164.6,555.6-238.3C2176.5,1257.9,2178.1,1272.3,2178.1,1288.3z"/>
			<path class="st2" d="M1628.7,1231c-23.8,38.8-7,94.1,33.9,115.8c43.2,22.9,102,2.4,118.1-43.2c15.3-43.3-14.1-91.8-56.3-105.4
				C1690.6,1187.2,1648.5,1198.7,1628.7,1231z"/>
		</g>
		<g>
			<path class="st0" d="M2515.3,1297.8c36.8,66,45.1,114.7-10.3,119.5c-9.5,0.8-20.9,0.4-34.4-1.5c-45.1-6.4-331-185.7-238-243.6
				c24-15,51.6-18.9,80.1-15.3C2394.5,1167.2,2483.3,1240.4,2515.3,1297.8z"/>
			<path class="st1" d="M2515.3,1297.8c36.8,66,45.1,114.7-10.3,119.5c-6.3-42.7-40.8-129.4-192.2-260.5
				C2394.5,1167.2,2483.3,1240.4,2515.3,1297.8z"/>
			<path class="st2" d="M2333,1279.5c41.3,30.1,108.9,85.2,103.4,93.1c-4.9,7.1-69.8-23.2-123.3-71c-29.8-26.6-59.1-61.4-54.8-66.4
				C2263.8,1229,2320.2,1270.1,2333,1279.5z"/>
		</g>
		<g>
			<path class="st0" d="M1474,846.9c-12.4-8.9-22.8-19.9-30.7-32.2c-18.2-28.2-24-63.2-14.2-95.8c10-33.1,34.7-59.6,66.3-72.8
				c8.9-3.8,18.5-6.5,28.4-8C1567.6,763.1,1474,846.9,1474,846.9z"/>
			<path class="st1" d="M1474,846.9c-12.4-8.9-22.8-19.9-30.7-32.2c9.4-25.1,18.5-51.7,27.3-79.7c9.6-30.9,17.9-60.6,24.9-89
				c8.9-3.8,18.5-6.5,28.4-8C1507.2,707.8,1490.6,777.4,1474,846.9z"/>
			<path class="st0" d="M2130.9,871.9c14.9,162.7-344.9,276.5-533.3,207.8c-52.3-19.1-91.5-52.3-105.6-102.5
				c-65.2-230.7,54.9-471.5,233.7-501c64.8-10.7,145,1.6,217.1,46.2C2035.1,579.4,2114.2,689.4,2130.9,871.9z"/>
			<path class="st0" d="M1445,736.3c-1.4-0.5-35.3-12.3-66.3-48.1c-28.3-32.7-59.4-92.4-46.6-191.4l17.5,2.3
				c-9.5,73.8,4.6,133.3,41.9,176.9c27.8,32.5,59,43.5,59.3,43.6L1445,736.3z"/>
			
				<ellipse transform="matrix(0.9867 -0.1626 0.1626 0.9867 -59.6829 224.9058)" class="st3" cx="1344.2" cy="477.1" rx="41" ry="41"/>
			<path class="st3" d="M2011.9,745.7c5.3,32.3-26.8,58-70.5,77.3c-46,20.4-104.9,33.7-146.3,40.1c-59.3,9.2-175.2,17.7-222.6-13
				c-11.1-7.2-18.4-16.6-20.4-28.6c-5.8-34.9,3.6-69,23.3-95.8c19.8-26.8,50-46.3,85.9-52.2l199.7-32.9c41.8-6.9,82.1,6.1,110.8,32
				C1992.4,691.1,2007.1,716.4,2011.9,745.7z"/>
			<path class="st4" d="M2011.9,745.7c5.3,32.3-26.8,58-70.5,77.3c-46,20.4-104.9,33.7-146.3,40.1c-59.3,9.2-175.2,17.7-222.6-13
				c116.7-22.9,312.9-75,399.3-177.5C1992.4,691.1,2007.1,716.4,2011.9,745.7z"/>
			<path class="st1" d="M2130.9,871.9c14.9,162.7-344.9,276.5-533.3,207.8c108.2,0.1,428.1-13.2,459.6-173.5
				c27.1-137.9-61.4-301.4-114.5-383.8C2035.1,579.4,2114.2,689.4,2130.9,871.9z"/>
			<path class="st2" d="M1545.7,668.3c11.6,11,65.8-25,100.4-60.4c33.1-34,64.4-84,53.9-95c-9.4-9.8-50,13-74.8,32
				C1569.6,587.3,1533.1,656.3,1545.7,668.3z"/>
			<path class="st2" d="M1501.6,932.5c8.5,42.7,41.4,79.2,51.6,74.6c10.7-4.8-2.3-55.3-12.1-82.6c-2.8-7.9-20-55.9-31.5-53.8
				C1500.5,872.4,1496.1,904.9,1501.6,932.5z"/>
			<g>
				<g>
					<path class="st5" d="M1966.6,725.2c5.3,32.1-16.4,62.4-48.5,67.7c-24.8,4.1-48.5-7.9-60.5-28.4c-3.5-6-6-12.8-7.2-20.1
						c-5.3-32.1,16.4-62.4,48.6-67.7c23.6-3.9,46.4,6.7,58.7,25.5C1962.1,708.8,1965.2,716.7,1966.6,725.2z"/>
					<path class="st6" d="M1908.4,675.8c20,0,38.4,10.2,49.1,26.2c4.5,6.7,7.6,14.4,9,22.8c5.3,31.9-16.4,62-48.5,67.2
						c-3.2,0.5-6.5,0.8-9.7,0.8c-21.2,0-40.3-10.5-50.7-28.2c-3.5-6-6.2-13.5-7.4-20.8c-5.3-31.9,16.4-62,48.6-67.2
						C1902.1,676,1905.3,675.8,1908.4,675.8L1908.4,675.8z M1908.5,665.8c-3.8,0-7.6,0.3-11.3,0.9c-18.2,3-34.1,12.8-44.9,27.7
						c-10.7,14.9-15,33-12,51.1c1.4,8.3,4.2,16.1,8.5,23.4c12.3,21,35.1,34,59.5,34c3.8,0,7.6-0.3,11.3-0.9
						c37.5-6.1,63-41.5,56.8-78.7c-1.6-9.6-5.2-18.6-10.6-26.7C1953.1,677.3,1931.7,665.8,1908.5,665.8L1908.5,665.8z"/>
				</g>
				<path class="st7" d="M1957.6,702.1c-13.1,56-67.2,63.4-99.9,62.5c-3.5-6-6.1-12.8-7.3-20.1c-5.4-32.1,16.2-62.5,48.3-67.9
					C1922.4,672.7,1945.1,683.4,1957.6,702.1z"/>
				
					<ellipse transform="matrix(0.9867 -0.1626 0.1626 0.9867 -91.8563 315.8196)" class="st2" cx="1883.4" cy="719.1" rx="19.6" ry="19.6"/>
				<path class="st2" d="M1955.9,738.5c3.5,1.6,2.5,22.6-10.6,32.7c-11.6,9-29.4,6.7-30.4,3.1c-0.7-2.7,7.9-4.9,21.1-16.2
					C1949.9,746.2,1953.4,737.4,1955.9,738.5z"/>
			</g>
			<g>
				<g>
					<path class="st5" d="M1708.7,767.7c5.3,32.1-16.4,62.4-48.5,67.7c-24.8,4.1-48.5-7.9-60.5-28.4c-3.5-6-6-12.8-7.2-20.1
						c-5.3-32.1,16.4-62.4,48.6-67.7c23.6-3.9,46.3,6.9,58.7,25.6C1704.2,751.5,1707.3,759.2,1708.7,767.7z"/>
					<path class="st6" d="M1650.6,718.3c20,0,38.4,10.2,49.1,26.4c4.5,6.7,7.6,14.5,9,22.9c5.3,32.1-16.4,62.4-48.5,67.7
						c-3.2,0.5-6.5,0.8-9.7,0.8c-21.2,0-40.4-11.4-50.8-29.2c-3.5-6-6-12.8-7.2-20.1c-5.3-32.1,16.4-62.4,48.6-67.7
						C1644.3,718.6,1647.4,718.3,1650.6,718.3L1650.6,718.3z M1650.7,708.3c-3.8,0-7.6,0.3-11.3,0.9c-37.5,6.2-63,41.7-56.9,79.3
						c1.4,8.3,4.2,16.3,8.5,23.5c12.3,21.1,35.1,34.2,59.5,34.2c3.8,0,7.6-0.3,11.3-0.9c18.2-3,34.1-12.9,44.8-27.9
						c10.7-15,15-33.2,12-51.4c-1.6-9.7-5.2-18.7-10.6-26.9C1695.3,719.8,1673.9,708.3,1650.7,708.3L1650.7,708.3z"/>
				</g>
				<path class="st7" d="M1699.7,744.6c-13.1,56-67.1,63.3-99.8,62.4c-3.5-6-6.1-12.8-7.3-20.1c-5.4-32.1,16.2-62.5,48.3-67.9
					C1664.5,715.2,1687.2,725.9,1699.7,744.6z"/>
				
					<ellipse transform="matrix(0.9867 -0.1626 0.1626 0.9867 -102.1929 274.4532)" class="st2" cx="1625.6" cy="761.6" rx="19.6" ry="19.6"/>
				<path class="st2" d="M1698.1,781c3.5,1.6,2.5,22.6-10.6,32.7c-11.6,9-29.4,6.7-30.4,3.1c-0.7-2.7,7.9-4.9,21.1-16.2
					C1692.1,788.7,1695.6,779.9,1698.1,781z"/>
			</g>
			<path class="st8" d="M1780.6,667.4c1.2,3.8-23.4,17.2-50.1,24.1c-43.2,11.3-85.7,4-85.9-1c-0.1-2.3,27.6-7.1,83-16.7
				C1772.1,666.1,1780,665.4,1780.6,667.4z"/>
			
				<ellipse transform="matrix(0.9417 -0.3365 0.3365 0.9417 -79.2508 476.997)" class="st8" cx="1336.6" cy="467.2" rx="22" ry="22"/>
			<g>
				<path class="st3" d="M1840.3,1005.9c-24.6,5.5-46.7-3.5-64.4-17.5c-31.8-25.1-49.4-66.5-41.6-69.2c12.1-4.2,46.7,11.7,80.2,4.2
					c38.4-8.6,61.2-29.2,80.7-34.9c0.9-0.3,1.7-0.5,2.6-0.7C1917.7,883.2,1915.7,988.9,1840.3,1005.9z"/>
				<path class="st4" d="M1840.3,1005.9c-24.6,5.5-46.7-3.5-64.4-17.5c31.9-14.2,93.4-47.2,119.2-100c0.9-0.3,1.7-0.5,2.6-0.7
					C1917.7,883.2,1915.7,988.9,1840.3,1005.9z"/>
			</g>
		</g>
	</g>
	<g>
		<path class="st9" d="M2486.5,523.6c0,0-120.5,163.6-355.1,148.9c0,0,12.1-0.3,31.3-6.7c38.1-12.7,104.1-49.4,159.1-155.2
			l116.3,9.2L2486.5,523.6z"/>
		<path class="st9" d="M3353.9,243.5c-232.5,375.2-973.1,258.8-1239.1,202.9c-41.7-43.5-65.3-98.1-62.7-156.6
			c3-68.4,41-129.3,100.2-172.5c59.1-43.3,139.3-68.9,226.7-66.5l683.4,18.2C3200.7,72.6,3315.3,145.4,3353.9,243.5z"/>
		<path class="st10" d="M2973.8,562l66.4,1.8l0.7,0c87.3,2.3,167.5-23.3,226.7-66.5c59.1-43.3,97.2-104.2,100.2-172.5
			c1.2-28.3-3.7-55.7-13.7-81.3c-232.5,375.2-973.1,258.8-1239.1,202.9c55.4,58,142.8,96.6,242.6,99.3l369.1,9.9l162.1,4.3
			L2973.8,562z"/>
		<path class="st11" d="M2729.5,204.5c6.8,82.8-124.2,156.9-292.7,165.3c-168.4,8.5-310.4-51.9-317.2-134.7
			c-6.8-82.8,124.2-156.9,292.7-165.3C2580.7,61.3,2722.8,121.6,2729.5,204.5z"/>
		<g>
			<path class="st3" d="M2293.9,349.9c-21.3-0.8-38-8.5-50.2-23c-12.2-14.5-17.8-33.7-16.8-57.6c0.9-23.9,8-42.6,21.2-56.1
				c13.2-13.5,30.5-19.8,51.8-19c16.4,0.6,30.1,5.6,41.3,14.9c11.2,9.3,17.2,21.2,18.1,35.7l-20.5-0.8c-0.5-9.5-4.3-17.3-11.5-23.2
				c-7.2-5.9-16.5-9.1-27.8-9.5c-15.3-0.6-27.5,4.2-36.9,14.4c-9.3,10.2-14.3,25-15.1,44.5c-0.8,19.4,3.1,34.6,11.5,45.5
				c8.4,10.9,20.2,16.6,35.3,17.2c11.8,0.5,21.4-2,28.9-7.5c7.5-5.5,11.9-13.5,13.3-24.2l20.5,0.8c-2.1,16-8.8,28.1-20.3,36.4
				C2325.2,346.7,2310.9,350.6,2293.9,349.9z"/>
			<path class="st3" d="M2449.7,342.1c-10.2,8.8-23.1,12.9-38.6,12.3c-10.8-0.4-19.6-3.7-26.4-9.8c-6.8-6.1-10-13.8-9.6-23
				c1-25.5,23.4-37.3,67.3-35.6l9.4,0.4c0.3-7.8,0.1-13.5-0.6-17c-0.7-3.6-2.9-6.6-6.5-9c-3.7-2.5-9.6-3.9-17.8-4.2
				c-17.2-0.7-26.4,5.2-27.4,17.4l-19.3-0.7c2.3-22.3,18.4-32.9,48.3-31.8c14,0.5,24.7,3.7,32.3,9.6c7.6,5.8,11.1,16.9,10.4,33.1
				l-2.7,70.4l-19.3-0.7L2449.7,342.1z M2450.3,324.7l0.9-24.1l-13.2-0.5c-28.1-1.1-42.4,6-43,21.3c-0.2,5.5,1.7,9.9,5.7,13
				c4,3.1,9.5,4.8,16.5,5.1c6.4,0.2,12.6-1,18.6-3.6C2441.9,333.2,2446.7,329.5,2450.3,324.7z"/>
			<path class="st3" d="M2520.3,260.9c10.1-10.5,21.1-15.5,33.2-15.1c24.6,0.9,36.3,14.8,35.3,41.6l-2.8,71.3l-19.4-0.8l2.7-70.4
				c0.3-8.9-1-15.4-4-19.4c-3-4-8.2-6.2-15.4-6.5c-9.9-0.4-19.9,5.1-30.2,16.3l-3,78l-19.4-0.7l4.2-108.9l19.4,0.7L2520.3,260.9z"/>
			<path class="st3" d="M2695,362.8l-20-0.8l5.8-150.5l20,0.8L2695,362.8z"/>
			<path class="st3" d="M2807.3,272c10.1-10.5,21.1-15.5,33.2-15.1c24.6,0.9,36.3,14.8,35.3,41.6l-2.8,71.3l-19.4-0.8l2.7-70.4
				c0.3-8.9-1-15.4-4-19.4c-3-4-8.2-6.2-15.4-6.5c-9.9-0.4-19.9,5.1-30.2,16.3l-3,78l-19.4-0.8l5.8-150.5l19.4,0.7L2807.3,272z"/>
			<path class="st3" d="M2947.4,375.2c-16-0.6-28.7-6.1-38-16.5c-9.3-10.4-13.7-24.6-13-42.5c0.7-17.8,5.9-31.6,15.7-41.3
				c9.8-9.7,22.3-14.3,37.5-13.7c15.5,0.6,27.8,6,36.6,16.3c8.9,10.3,13,24.5,12.3,42.6l-0.2,4.6l-82-3.2
				c0.3,12.6,3.4,22.1,9.3,28.4c5.9,6.3,13.3,9.7,22.3,10c6.8,0.3,13-1.2,18.5-4.5c5.6-3.2,8.6-8,9.1-14.4l20,0.8
				c-1.9,11.2-7.4,19.6-16.3,25.4C2970.5,373,2959.8,375.7,2947.4,375.2z M2978.5,308.7c-1.2-10.5-4.4-18.5-9.7-23.9
				c-5.3-5.4-11.9-8.3-19.8-8.6c-7.7-0.3-14.5,2-20.2,7c-5.7,5-9.6,12.7-11.5,23.2L2978.5,308.7z"/>
			<path class="st3" d="M3037.5,376.1l-19.4-0.8l5.8-150.5l19.4,0.7L3037.5,376.1z"/>
			<path class="st3" d="M3089.2,282c9-10,19.6-14.8,31.7-14.3c14.2,0.5,25.1,6,32.5,16.4c7.4,10.4,10.8,24.2,10.1,41.4
				c-0.7,17.9-5.6,31.8-14.7,41.8c-9.1,10-20.3,14.8-33.6,14.3c-11.8-0.5-21.6-4.5-29.3-12.1l-1.9,50.3l-19.4-0.8l5.8-150.8
				l19.4,0.8L3089.2,282z M3086.5,352.1c7.9,9.1,17.3,13.9,28,14.3c8.3,0.3,15.1-3,20.3-10c5.2-7,8.1-17.5,8.6-31.7
				c0.5-13.4-1.4-23.7-5.8-30.8c-4.4-7.1-10.8-10.9-19.1-11.2c-10.7-0.4-20.8,5.4-30.1,17.6L3086.5,352.1z"/>
			<path class="st3" d="M3182.6,272c1.7-13.3,7.1-23.7,16.3-31.2c9.2-7.5,20.6-11,34.2-10.5c14.4,0.6,26,4.9,34.6,12.9
				c8.6,8,12.7,18,12.2,29.9c-0.3,6.7-2,12.9-5.3,18.5c-3.3,5.6-9.2,11.8-17.9,18.4c-8.7,6.7-14.1,12-16.1,16.1
				c-2.1,4.1-3.3,10.9-3.7,20.6l-18.1-0.7c0.5-12.7,2.3-22,5.5-27.8c3.2-5.8,8.8-11.9,17-18.3c8.2-6.4,13.3-11.4,15.3-14.9
				c2.1-3.5,3.2-7.3,3.3-11.3c0.3-7.9-2-14.5-7.1-19.8c-5-5.3-11.7-8.1-20.1-8.4c-16.4-0.6-26.4,8.4-30,27.2L3182.6,272z
				 M3237.5,383.8l-21-0.8l0.8-21l21,0.8L3237.5,383.8z"/>
		</g>
		<path class="st10" d="M2486.5,523.6c0,0-120.5,163.6-355.1,148.9c0,0,11.9-2.1,31.3-6.7c63.6-15.2,207.6-58.1,275.4-146
			L2486.5,523.6z"/>
	</g>
	<ellipse class="st12" cx="1898" cy="1806.1" rx="318.4" ry="82.6"/>
</g>
</svg>
