<?xml version="1.0" encoding="utf-8"?>
<!-- Generator: Adobe Illustrator 21.0.2, SVG Export Plug-In . SVG Version: 6.00 Build 0)  -->
<svg version="1.1" id="Layer_2" xmlns="http://www.w3.org/2000/svg" xmlns:xlink="http://www.w3.org/1999/xlink" x="0px" y="0px"
	 viewBox="0 0 3857.2 2000" style="enable-background:new 0 0 3857.2 2000;" xml:space="preserve">
<style type="text/css">
	.st0{fill:#576BAE;}
	.st1{fill:#5776D2;}
	.st2{fill:#5B96DA;}
	.st3{fill:#D8E3FF;}
	.st4{fill:#E3EEFF;}
	.st5{fill:#5BACDA;}
	.st6{fill:#326BAB;}
	.st7{fill:#DEFFFF;}
	.st8{fill:#B2C6FA;}
	.st9{fill:#C2DDFF;}
	.st10{fill:#5FBBE8;}
	.st11{fill:#5FAEDE;}
	.st12{fill:#B1ECED;}
	.st13{fill:#294F81;}
	.st14{fill:#33487A;}
	.st15{fill:#296ABD;}
	.st16{fill:#393760;}
	.st17{fill:#46AED2;}
	.st18{fill:#2F4572;}
	.st19{fill:#C9EAFF;}
</style>
<g>
	<g>
		<path class="st0" d="M2093.3,1585.5l-657.3,37.8c-43.3,2.5-84.3-31-91.5-74.8l-187-1127.2c-7.3-43.8,21.9-81.3,65.2-83.8
			l657.3-37.8c43.3-2.5,84.3,31,91.5,74.8l187,1127.2C2165.8,1545.5,2136.6,1583,2093.3,1585.5z"/>
		<path class="st1" d="M2015.6,371.9l187,1127.3c7.3,43.8-22,81.3-65.2,83.8l-657.3,37.8c-43.3,2.5-84.3-31-91.5-74.8l-187-1127.3
			c-7.3-43.8,21.9-81.3,65.2-83.8l657.3-37.8C1967.4,294.6,2008.4,328.1,2015.6,371.9z"/>
		<path class="st2" d="M2015.6,371.9l2.5,15.2c-17.1,451.2-414.4,718.3-681.2,847.4l-135.3-815.9c-7.3-43.8,21.9-81.3,65.2-83.8
			l657.3-37.8C1967.4,294.6,2008.4,328.1,2015.6,371.9z"/>
		<path class="st3" d="M1970.5,403.9l159.3,960.4c6.3,37.9-19,70.3-56.4,72.5l-578.5,33.2c-37.5,2.2-72.9-26.8-79.2-64.7
			l-159.3-960.4c-6.3-37.9,19-70.3,56.5-72.5l578.5-33.2C1928.7,337,1964.2,366,1970.5,403.9z"/>
		<path class="st4" d="M1970.5,403.9l24.1,145.1c-150.1,505.5-611.4,660.6-611.4,660.6l-126.8-764.7c-6.3-37.9,19-70.3,56.5-72.5
			l578.5-33.2C1928.7,337,1964.2,366,1970.5,403.9z"/>
		<g>
			<path class="st5" d="M1843.6,1521.3c4.4,26.7-13.4,49.6-39.8,51.1c-26.4,1.5-51.4-18.9-55.8-45.6c-4.4-26.7,13.4-49.6,39.8-51.1
				C1814.2,1474.2,1839.1,1494.6,1843.6,1521.3z"/>
			<path class="st6" d="M1789.9,1488.6c19.3-1.1,37.6,13.9,40.9,33.4s-9.8,36.3-29.1,37.4c-19.3,1.1-37.6-13.9-40.9-33.4
				C1757.5,1506.5,1770.6,1489.7,1789.9,1488.6L1789.9,1488.6z M1787.1,1471.9c-28.5,1.6-47.7,26.3-42.9,55.2
				c4.8,28.8,31.8,50.9,60.3,49.2c28.5-1.6,47.7-26.3,42.9-55.2C1842.6,1492.3,1815.6,1470.2,1787.1,1471.9L1787.1,1471.9z"/>
		</g>
		<path class="st2" d="M1683.9,1512.6l-233.4,13.4c-6.6,0.4-12.9-4.7-14-11.4c-1.1-6.7,3.4-12.4,10-12.8l233.4-13.4
			c6.6-0.4,12.9,4.7,14,11.4C1695,1506.5,1690.5,1512.2,1683.9,1512.6z"/>
		<path class="st2" d="M2123.7,1487.3l-228.5,13.1c-6.6,0.4-12.9-4.7-14-11.4c-1.1-6.7,3.4-12.4,10-12.8l228.5-13.1
			c6.6-0.4,12.9,4.7,14,11.4C2134.8,1481.2,2130.3,1487,2123.7,1487.3z"/>
		<path class="st7" d="M2064.2,1402.4l-565.1,32.5c-18.1,1-35.2-13-38.3-31.3l0,0c-3-18.3,9.2-34,27.3-35l565.1-32.5
			c18.1-1,35.2,13,38.3,31.3l0,0C2094.5,1385.7,2082.2,1401.4,2064.2,1402.4z"/>
		<path class="st8" d="M1692.1,485.1c2.6,15.5-0.2,29.8-6.7,40.5c-6.5,10.6-16.9,17.6-29.4,18.3l-244.5,14l-71.4,48
			c1.5-2.5,8.2-30.1,13.5-52.8c-14.8-9.1-26.6-26.4-30-46.8c-2.6-15.5,0.2-29.8,6.7-40.5c6.6-10.6,16.9-17.6,29.4-18.3l277.6-16
			C1662.4,430.1,1687,454.1,1692.1,485.1z"/>
		<path class="st9" d="M1636,502.4l-256.6,14.7c-9,0.5-17.6-6.5-19.1-15.6l0,0c-1.5-9.2,4.6-17,13.6-17.5l256.6-14.7
			c9-0.5,17.6,6.5,19.1,15.6l0,0C1651.2,494.1,1645,501.9,1636,502.4z"/>
		<path class="st8" d="M1733.8,1052.4c2.6,15.5,8.9,29.3,17,39.1c8.1,9.8,18.1,15.5,28,15l192-11l68.9,39.9
			c-1.9-2.3-15.1-28.7-25.8-50.5c8.7-10.4,12.7-28.7,9.3-49.1c-2.6-15.5-8.9-29.3-17-39.1c-8.2-9.8-18.1-15.5-28-15l-218,12.5
			C1740.5,995.3,1728.7,1021.4,1733.8,1052.4z"/>
		<path class="st9" d="M1783.7,1063.7l198.2-11.4c8-0.5,13.4-7.4,12.1-15.5l-0.6-3.8c-1.3-8.1-8.9-14.3-16.9-13.9l-198.2,11.4
			c-8,0.5-13.4,7.4-12.1,15.5l0.6,3.8C1768.1,1057.9,1775.7,1064.1,1783.7,1063.7z"/>
		<path class="st8" d="M1691.1,892.6c3,18.2,1.6,34.9-3.1,47.2c-4.7,12.3-12.8,20.2-23,20.8l-199.4,11.5l-55.7,54.7
			c1.1-2.8,4.9-35,7.9-61.5c-12.7-10.9-23.4-31.5-27.3-55.4c-3-18.2-1.6-34.9,3.1-47.2c4.7-12.3,12.8-20.2,23-20.8l226.4-13
			C1663.5,827.7,1685,856.2,1691.1,892.6z"/>
		<path class="st9" d="M1640.5,886.4l-206.4,11.9c-8.2,0.5-15.9-5.9-17.3-14.1l-0.5-3.2c-1.4-8.3,4.1-15.3,12.3-15.8l206.4-11.9
			c8.2-0.5,15.9,5.9,17.3,14.1l0.5,3.2C1654.2,878.9,1648.7,886,1640.5,886.4z"/>
		<path class="st9" d="M1579.8,944.6l-139.2,8c-6.8,0.4-13.2-4.9-14.4-11.8l-1.4-8.2c-1.1-6.9,3.4-12.8,10.3-13.2l139.2-8
			c6.8-0.4,13.2,4.9,14.4,11.8l1.4,8.2C1591.2,938.3,1586.6,944.2,1579.8,944.6z"/>
		<path class="st8" d="M1948.7,739.7c12.7,31.7,30.3,75.5,31.9,78.6c1.7,3.3-72.2-33.2-119.5-56.8l-163.6,9.4
			c-38.9,2.2-75.7-27.8-82.2-67.2l-6.9-41.4c-6.5-39.3,19.7-73,58.6-75.2l208.8-12c38.9-2.2,75.7,27.8,82.2,67.2l6.9,41.4
			C1968.4,705.6,1961.9,725.8,1948.7,739.7z"/>
		<path class="st9" d="M1905,651.2l-241.8,13.9c-9,0.5-17.6-6.5-19.1-15.6v0c-1.5-9.2,4.6-17,13.6-17.5l241.8-13.9
			c9-0.5,17.6,6.5,19.1,15.6l0,0C1920.2,642.9,1914.1,650.7,1905,651.2z"/>
		<path class="st9" d="M1788.8,726.5l-114.8,6.6c-8.8,0.5-17.1-6.3-18.6-15.2l-3.7-22.4c-1.5-8.9,4.5-16.5,13.2-17l114.8-6.6
			c8.8-0.5,17.1,6.3,18.6,15.2l3.7,22.4C1803.5,718.4,1797.6,726,1788.8,726.5z"/>
		<path class="st9" d="M1916.8,719.1l-77.3,4.4c-8.8,0.5-17.1-6.3-18.6-15.2l-3.7-22.4c-1.5-8.9,4.5-16.5,13.2-17l77.3-4.4
			c8.8-0.5,17.1,6.3,18.6,15.2l3.7,22.4C1931.5,711,1925.5,718.6,1916.8,719.1z"/>
		<path class="st8" d="M2041.9,1245.6l15.8,57.9l-74.8-47.8l-102.3,5.9c-20.4,1.2-39.7-14.6-43.2-35.3l-3.3-19.9
			c-3.4-20.7,10.3-38.3,30.8-39.5l141.5-8.1c20.4-1.2,39.7,14.6,43.2,35.3l3.3,19.9C2054.9,1226.7,2050.4,1238.3,2041.9,1245.6z"/>
		<path class="st9" d="M1877.1,1228.6l137.1-7.9c9-0.5,15.1-8.4,13.6-17.5l0,0c-1.5-9.2-10.1-16.1-19.1-15.6l-137.1,7.9
			c-9,0.5-15.1,8.4-13.6,17.5l0,0C1859.5,1222.1,1868,1229.1,1877.1,1228.6z"/>
	</g>
	<g>
		<g>
			<path class="st10" d="M2523.4,1377.2c0,156.7-109.9,340.8-284.6,340.8c-108.2,0-197.3-66.3-249.4-154.9
				c-32-54.4-50.1-117.2-50.1-178.3c0-160.5,175.2-152.9,286.2-152.9c121.8,0,266.3-9.3,293.3,104.1
				C2521.9,1348.3,2523.4,1362,2523.4,1377.2z"/>
			<path class="st11" d="M2523.4,1377.2c0,156.7-109.9,340.8-284.6,340.8c-108.2,0-197.3-66.3-249.4-154.9
				c108.5,51.1,417.5,156.8,529.5-227.1C2521.9,1348.3,2523.4,1362,2523.4,1377.2z"/>
			<path class="st12" d="M2090.6,1294c-22.7,37-6.6,89.6,32.3,110.3c41.2,21.8,97.2,2.3,112.5-41.2c14.5-41.3-13.5-87.5-53.6-100.5
				C2149.6,1252.3,2109.4,1263.2,2090.6,1294z"/>
		</g>
		<g>
			<path class="st10" d="M1931.6,1395.8c83.2,12.6,137.1,2.2,120.5-57.4c-2.9-10.2-7.8-21.9-15-35.2
				c-24.2-44.5-322.9-272.4-346.9-152.8c-6.2,30.9,0.4,61.2,15.3,89.5C1748.3,1320.9,1859.3,1384.9,1931.6,1395.8z"/>
			<path class="st11" d="M1931.6,1395.8c83.2,12.6,137.1,2.2,120.5-57.4c-46.9,10.1-150.8,8-346.6-98.6
				C1748.3,1320.9,1859.3,1384.9,1931.6,1395.8z"/>
			<path class="st12" d="M1841.3,1213c47.6,31.3,131.3,80.2,137.4,71.4c5.5-7.9-51.5-63.7-122.1-100.8c-39.3-20.7-87-37.6-90.6-31.2
				C1761.6,1160.6,1826.5,1203.3,1841.3,1213z"/>
		</g>
		<g>
			<path class="st10" d="M2540.5,1027.3c-11.2,155.3-367.2,206.6-533.7,112.7c-46.3-26.1-77.9-63.4-83.5-112.7
				c-25.6-227,124.7-434.9,297.4-434.9c62.6,0,136.1,24,197,77C2495.8,737.4,2553.1,853.1,2540.5,1027.3z"/>
			<path class="st13" d="M2031.7,1056.2c-15.5-5.1-25.6-15-31.9-25.6c-11.2-19-9.8-40.2-4.6-39c8,1.9,20.2,27.2,41.3,34
				c24.2,7.9,46.1-2.4,58.7,1.1c0.6,0.1,1.1,0.3,1.7,0.5C2109.6,1031.4,2079.4,1071.7,2031.7,1056.2z"/>
			<path class="st11" d="M2540.5,1027.3c-11.2,155.3-367.2,206.6-533.7,112.7c101.7,16.9,404.6,54,459.1-91.9
				c46.9-125.5-11.1-292.9-48.2-378.6C2495.8,737.4,2553.1,853.1,2540.5,1027.3z"/>
			<g>
				<path class="st13" d="M2296.2,913.6c-6.5,30.5-40.2,42.9-80.9,45.8c-42.9,3.1-93.4-4.2-128.1-12
					c-49.6-11.2-143.4-41.3-170.4-84.2c-6.3-10-9-20.8-6.6-32.1c7-33,24-66.7,48.4-84.1c24.4-17.4,56.1-18.5,86.3-12.1l167.6,35.8
					c35,7.5,62.4,32.2,76.3,64.6C2299,858.7,2302.1,886,2296.2,913.6z"/>
				<path class="st14" d="M2296.2,913.6c-6.5,30.5-40.2,42.9-80.9,45.8c-42.9,3.1-93.4-4.2-128.1-12
					c-49.6-11.2-143.4-41.3-170.4-84.2c99.1,17.7,270.4,35.3,372-27.9C2299,858.7,2302.1,886,2296.2,913.6z"/>
				<path class="st15" d="M2152.3,773.1c-0.3,3.7-24.1,7.7-47.3,5.2c-37.6-4-68.6-24.4-67.1-28.9c0.7-2.1,24,2.7,70.7,12.2
					C2146.1,769.2,2152.5,771.1,2152.3,773.1z"/>
			</g>
			<g>
				<g>
					<path class="st16" d="M2045.6,814.8c0,28.1-22.8,50.9-50.9,50.9c-21.7,0-40.3-13.6-47.6-32.7c-2.2-5.6-3.3-11.8-3.3-18.1
						c0-28.1,22.8-50.9,50.9-50.9c20.7,0,38.5,12.3,46.4,30.1C2044,800.4,2045.6,807.4,2045.6,814.8z"/>
					<path class="st17" d="M1994.7,764c20.7,0,38.5,12.3,46.4,30.1c2.9,6.4,4.5,13.4,4.5,20.8c0,28.1-22.8,50.9-50.9,50.9
						c-21.7,0-40.3-13.6-47.6-32.7c-2.2-5.6-3.3-11.8-3.3-18.1C1943.8,786.7,1966.6,764,1994.7,764L1994.7,764z M1994.7,754.4
						c-33.4,0-60.5,27.1-60.5,60.5c0,7.4,1.3,14.7,4,21.6c8.9,23.3,31.6,38.9,56.5,38.9c33.3,0,60.5-27.1,60.5-60.5
						c0-8.6-1.8-17-5.3-24.8C2040.2,768.4,2018.5,754.4,1994.7,754.4L1994.7,754.4z"/>
				</g>
				<path class="st18" d="M2041.1,794c-19,45.9-66.1,44.5-93.8,39.2c-2.2-5.6-3.4-11.7-3.4-18.1c-0.1-28.1,22.6-51,50.7-51.1
					C2015.3,763.9,2033.1,776.3,2041.1,794z"/>
				<circle class="st12" cx="1975.6" cy="797.9" r="16.9"/>
				<path class="st12" d="M2034.6,824.7c2.8,1.9-1,19.6-13.6,26.4c-11.2,6-26,1.6-26.4-1.6c-0.3-2.4,7.4-3.1,20.3-10.8
					C2028.5,830.4,2032.7,823.4,2034.6,824.7z"/>
			</g>
			<g>
				<g>
					<path class="st16" d="M2237.2,865.7c0,28.1-22.8,50.9-50.9,50.9c-21.7,0-40.3-13.6-47.6-32.7c-2.1-5.6-3.3-11.8-3.3-18.1
						c0-28.1,22.8-50.9,50.9-50.9c20.7,0,38.5,12.3,46.4,30.1C2235.6,851.3,2237.2,858.3,2237.2,865.7z"/>
					<path class="st17" d="M2186.3,814.8c20.7,0,38.5,12.3,46.4,30.1c2.9,6.4,4.5,13.4,4.5,20.8c0,28.1-22.8,50.9-50.9,50.9
						c-21.7,0-40.3-13.6-47.6-32.7c-2.1-5.6-3.3-11.8-3.3-18.1C2135.4,837.6,2158.2,814.8,2186.3,814.8L2186.3,814.8z M2186.3,805.3
						c-33.4,0-60.5,27.1-60.5,60.5c0,7.4,1.3,14.7,4,21.6c8.9,23.3,31.6,38.9,56.5,38.9c33.3,0,60.5-27.1,60.5-60.5
						c0-8.6-1.8-17-5.3-24.8C2231.8,819.3,2210.1,805.3,2186.3,805.3L2186.3,805.3z"/>
				</g>
				<path class="st18" d="M2232.7,844.8c-19,45.9-66.1,44.6-93.8,39.2c-2.2-5.6-3.4-11.7-3.4-18.1c-0.1-28.1,22.6-51,50.7-51.1
					C2206.9,814.8,2224.7,827.1,2232.7,844.8z"/>
				<circle class="st12" cx="2167.2" cy="848.8" r="16.9"/>
				<path class="st12" d="M2226.2,875.6c2.8,1.9-1,19.6-13.6,26.4c-11.2,6-26,1.6-26.4-1.6c-0.3-2.4,7.4-3.1,20.3-10.8
					C2220.1,881.3,2224.3,874.3,2226.2,875.6z"/>
			</g>
			<g>
				<path class="st10" d="M2249.5,649.7c-0.2-1.4-5.1-35.3,11.5-77.2c15.2-38.3,52.1-90.8,141.3-123.5l5.8,15.8
					c-66.6,24.4-110.8,62.4-131.2,113.1c-15.2,37.8-10.9,69-10.9,69.3L2249.5,649.7z"/>
				
					<ellipse transform="matrix(0.8007 -0.5991 0.5991 0.8007 213.3503 1542.3389)" class="st13" cx="2424.5" cy="450.5" rx="39.1" ry="39.1"/>
				
					<ellipse transform="matrix(0.6806 -0.7327 0.7327 0.6806 453.7856 1920.5702)" class="st15" cx="2429.6" cy="439.8" rx="21" ry="21"/>
			</g>
			<path class="st12" d="M2320.2,658.3c5.5,33.2-55.2,77.5-113.5,82.9c-51.7,4.8-114.9-19.9-118.2-51.6
				c-3.5-33.7,60.7-72.5,118.2-76.7C2253.4,609.4,2315,627.5,2320.2,658.3z"/>
		</g>
	</g>
	<ellipse class="st19" cx="2227.1" cy="1843" rx="303.4" ry="78.7"/>
</g>
</svg>
