<?xml version="1.0" encoding="utf-8"?>
<!-- Generator: Adobe Illustrator 21.0.2, SVG Export Plug-In . SVG Version: 6.00 Build 0)  -->
<svg version="1.1" id="Layer_2" xmlns="http://www.w3.org/2000/svg" xmlns:xlink="http://www.w3.org/1999/xlink" x="0px" y="0px"
	 viewBox="0 0 3857.2 2000" style="enable-background:new 0 0 3857.2 2000;" xml:space="preserve">
<style type="text/css">
	.st0{fill:#5FBBE8;}
	.st1{fill:#5FAEDE;}
	.st2{fill:#B1ECED;}
	.st3{fill:#294F81;}
	.st4{fill:#33487A;}
	.st5{fill:#296ABD;}
	.st6{fill:#46AED2;}
	.st7{fill:#CAEFF9;}
	.st8{fill:#F6B35B;}
	.st9{fill:#EA4754;}
	.st10{fill:#92EF9A;}
	.st11{fill:#C9EAFF;}
</style>
<g>
	<g>
		<path class="st0" d="M1512,980.1c-14.2,38.6-59.7,26.1-118.3-10.7c-70-43.9-160.1-177.1-125.6-269.4c0,0,0,0,0,0
			c3.1-8.4,7.3-16.5,12.6-24.1c63.6-91.5,231.1,208.2,235.2,254.3C1517.8,952,1516.3,968.4,1512,980.1z"/>
		<path class="st1" d="M1512,980.1c-14.2,38.6-59.7,26.1-118.3-10.7c-70-43.9-160.1-177.1-125.6-269.4
			C1290.1,786.3,1350.4,927.9,1512,980.1z"/>
		<path class="st2" d="M1374.5,727.5c15.1,21.5,36.7,59.3,29.7,65.1c-7.2,5.9-44.4-21.6-67.4-57.8c-15.7-24.7-27.7-57.9-20.9-62.4
			C1323.6,667.4,1354.8,699.5,1374.5,727.5z"/>
	</g>
	<g>
		<path class="st0" d="M2180.3,1193.6c0,167.2-117.3,363.7-303.7,363.7c-115.5,0-210.6-70.7-266.1-165.3
			c-34.2-58-53.4-125.1-53.4-190.2c0-171.3,187-163.2,305.5-163.2c130,0,284.3-10,313,111.1
			C2178.6,1162.8,2180.3,1177.4,2180.3,1193.6z"/>
		<path class="st1" d="M2180.3,1193.6c0,167.2-117.3,363.7-303.7,363.7c-115.5,0-210.6-70.7-266.1-165.3
			c115.8,54.5,445.5,167.4,565.1-242.3C2178.6,1162.8,2180.3,1177.4,2180.3,1193.6z"/>
		<path class="st2" d="M1621.5,1135.4c-24.2,39.5-7.1,95.7,34.5,117.7c43.9,23.3,103.7,2.4,120.1-43.9c15.5-44-14.4-93.4-57.2-107.2
			C1684.5,1090.9,1641.6,1102.5,1621.5,1135.4z"/>
	</g>
	<g>
		<path class="st0" d="M2391.8,1070.3c-65.6,40.1-114.7,50.6-121.9-5.5c-1.2-9.6-1.2-21.2,0.1-35c4.6-46.1,175.2-344,237.8-251.8
			c16.2,23.8,21.4,51.7,18.9,80.8C2519.5,942.2,2448.8,1035.4,2391.8,1070.3z"/>
		<path class="st1" d="M2391.8,1070.3c-65.6,40.1-114.7,50.6-121.9-5.5c43.1-8.2,129.8-46.8,256.8-206
			C2519.5,942.2,2448.8,1035.4,2391.8,1070.3z"/>
		<path class="st2" d="M2402.9,884.3c-28.9,43.2-82.1,114.1-90.3,108.9c-7.4-4.7,20.7-71.9,67-128.2c25.8-31.4,59.9-62.6,65.2-58.4
			C2451.4,811.9,2411.9,870.8,2402.9,884.3z"/>
	</g>
	<g>
		<path class="st0" d="M1628.5,604.5c-8.1-13.3-13.4-27.7-15.9-42.3c-5.8-33.6,2.8-68.7,25-95.3c22.5-27,56.2-41.9,91.1-41.7
			c9.9,0,19.9,1.3,29.7,3.9C1749.5,563.3,1628.5,604.5,1628.5,604.5z"/>
		<path class="st1" d="M1628.5,604.5c-8.1-13.3-13.4-27.7-15.9-42.3c18.8-19.7,37.9-40.9,57.3-63.7c21.3-25,40.9-49.6,58.8-73.3
			c9.9,0,19.9,1.3,29.7,3.9C1715.1,487.5,1671.8,546,1628.5,604.5z"/>
		<path class="st0" d="M2233.2,889.7c-50.9,158.1-432.9,121.2-581.8-18.2c-41.4-38.7-64.7-85.4-58-138
			c30.9-241.8,239.4-419.3,418.4-375.6c64.9,15.8,135,59.3,184.7,129.7C2260.2,577.8,2290.4,712.2,2233.2,889.7z"/>
		<path class="st3" d="M2175.5,710.4c-7,28.8-46.8,37.9-95.1,37.3c-50.8-0.6-111.1-12-152.4-22.5c-59.2-15-171.3-52.1-204.4-95.6
			c-7.8-10.2-11.2-20.8-8.5-31.5c7.6-31.2,29.1-55.9,57.6-70.6c28.6-14.7,64.2-19.4,100.2-10.6l199.9,48.8
			c41.8,10.2,74.9,36.4,92.2,68.8C2177.6,657.7,2181.9,684.2,2175.5,710.4z"/>
		<path class="st4" d="M2175.5,710.4c-7,28.8-46.8,37.9-95.1,37.3c-50.8-0.6-111.1-12-152.4-22.5c-59.2-15-171.3-52.1-204.4-95.6
			c118.2,25.5,322.1,57.1,441.4,4.9C2177.6,657.7,2181.9,684.2,2175.5,710.4z"/>
		<path class="st1" d="M2233.2,889.7c-50.9,158.1-432.9,121.2-581.8-18.2c101.2,43.3,405.8,158.3,499.2,20.9
			c80.3-118.2,62.6-306.5,45.9-404.7C2260.2,577.8,2290.4,712.2,2233.2,889.7z"/>
		<path class="st2" d="M1766.8,465.9c6.5,14.9,71.5,2.9,118-16.5c44.5-18.6,93.8-53,88.3-67.4c-4.9-12.9-52-7.7-82.8,0.1
			C1821.5,399.6,1759.8,449.7,1766.8,465.9z"/>
		<path class="st2" d="M1620.2,695.5c-9.1,43.3,7.2,90.6,18.5,90.4c11.9-0.2,19.9-52.7,21.6-82.2c0.5-8.5,3.6-60.2-8.1-62.9
			C1643.1,638.8,1626.1,667.5,1620.2,695.5z"/>
		<path class="st5" d="M1987,558.7c-0.4,4-28.8,6.7-56.5,2.6c-44.9-6.7-81.8-30.4-80-35.1c0.8-2.2,28.7,4.3,84.3,17.5
			C1979.6,554.1,1987.2,556.6,1987,558.7z"/>
		<g>
			<path class="st0" d="M1633.4,488.2c-0.9-1.2-23.1-30.2-29.5-77.9c-5.8-43.6,1.2-111.7,67.3-188.7l13.6,11.7
				c-49.3,57.4-70.6,115.9-63.2,173.7c5.5,43.1,25.8,69.9,26,70.2L1633.4,488.2z"/>
			
				<ellipse transform="matrix(0.4061 -0.9138 0.9138 0.4061 811.847 1672.318)" class="st3" cx="1692.6" cy="211.5" rx="41.7" ry="41.7"/>
			
				<ellipse transform="matrix(0.2361 -0.9717 0.9717 0.2361 1098.9773 1795.8435)" class="st5" cx="1691.7" cy="198.9" rx="22.4" ry="22.4"/>
		</g>
		<g>
			<path class="st3" d="M1899,864.2c-28.1-6-47.1-24.3-59.2-45.1c-21.8-37.4-21.4-83.3-12-82.3c14.5,1.6,43.4,31.8,81.7,40
				c43.9,9.4,77.1,0.8,99.9,4.4c1,0.1,2,0.3,3,0.5C2035.3,786.6,1985.4,882.7,1899,864.2z"/>
			<path class="st4" d="M1899,864.2c-28.1-6-47.1-24.3-59.2-45.1c39.7,1.4,118.7-1.2,169.6-37.9c1,0.1,2,0.3,3,0.5
				C2035.3,786.6,1985.4,882.7,1899,864.2z"/>
		</g>
		<path class="st6" d="M1740.7,601.6c4.9-5.4,11.1-9.3,17.5-12.5c6.5-3.2,13.4-5.5,20.6-7c14.3-3,29.5-2.5,43.9,1.1
			c14.3,3.7,27.7,10.4,39,19.4c11.3,9,20.8,19.9,27,32.8c-13-6-24.7-12.2-36.5-17.4c-11.7-5.3-23.4-9.4-35.2-12.5
			c-11.9-3-24-4.9-36.6-5.5C1767.8,599.4,1754.8,599.9,1740.7,601.6z"/>
		<path class="st6" d="M2009.2,660.1c4.7-5.5,10.7-9.7,17-13.2c6.4-3.4,13.2-6,20.3-7.8c14.2-3.5,29.4-3.6,43.9-0.5
			c14.4,3.1,28.1,9.4,39.7,17.9c11.6,8.6,21.5,19.1,28.2,31.8c-13.2-5.5-25.1-11.3-37.1-16c-11.9-4.8-23.7-8.6-35.7-11.2
			c-12-2.6-24.2-4-36.8-4.1C2036.1,656.9,2023.2,657.9,2009.2,660.1z"/>
	</g>
	<path class="st7" d="M1433.9,497.5c-4.1,0-7.9-2.4-9.5-6.4c-0.5-1.3-53.6-131.1-146-222.8c-4-4-4-10.5,0-14.5c4-4,10.5-4,14.5,0
		c95.4,94.8,148.3,224.2,150.5,229.7c2.1,5.2-0.4,11.2-5.7,13.3C1436.5,497.3,1435.2,497.5,1433.9,497.5z"/>
	<path class="st7" d="M1538,367.9c-5.3,0-9.8-4.1-10.2-9.4c-0.1-1.4-11.6-141.2-71.9-256.5c-2.6-5-0.7-11.2,4.3-13.8
		c5-2.6,11.2-0.7,13.8,4.3c62.4,119.1,73.7,258.5,74.2,264.4c0.4,5.6-3.8,10.6-9.4,11C1538.5,367.9,1538.3,367.9,1538,367.9z"/>
	<path class="st7" d="M2376.5,610.1c-3.1,0-6.1-1.4-8.1-4c-3.5-4.5-2.7-10.9,1.8-14.4c4.6-3.6,115.4-89,245.4-123.2
		c5.5-1.4,11.1,1.8,12.5,7.3c1.4,5.5-1.8,11.1-7.3,12.5c-125.9,33-236.9,118.7-238.1,119.5C2380.9,609.4,2378.7,610.1,2376.5,610.1z
		"/>
	<path class="st7" d="M2351.4,445.8c-2,0-4-0.6-5.8-1.8c-4.7-3.2-5.8-9.6-2.6-14.2c3.3-4.9,83.1-119.7,196.8-191.5
		c4.8-3,11.1-1.6,14.1,3.2c3,4.8,1.6,11.1-3.2,14.1c-110.1,69.5-190.1,184.6-190.9,185.8C2357.9,444.2,2354.7,445.8,2351.4,445.8z"
		/>
	
		<rect x="1811.5" y="231.2" transform="matrix(0.9643 -0.2649 0.2649 0.9643 -7.7198 492.3773)" class="st8" width="20.5" height="87.3"/>
	
		<rect x="2334.8" y="993.4" transform="matrix(9.960685e-02 -0.995 0.995 9.960685e-02 1142.9097 3270.3315)" class="st8" width="87.3" height="20.5"/>
	
		<rect x="2040.1" y="557.6" transform="matrix(0.5879 -0.8089 0.8089 0.5879 399.4117 1919.6414)" class="st8" width="87.3" height="20.5"/>
	
		<rect x="1432.2" y="841.6" transform="matrix(0.5879 -0.8089 0.8089 0.5879 -80.8706 1544.9059)" class="st8" width="87.3" height="20.5"/>
	
		<rect x="2339.6" y="201.3" transform="matrix(0.41 -0.9121 0.9121 0.41 1210.3137 2294.1626)" class="st9" width="77.7" height="20.5"/>
	
		<rect x="2442.6" y="755.9" transform="matrix(0.41 -0.9121 0.9121 0.41 765.1963 2715.2966)" class="st9" width="77.7" height="20.5"/>
	
		<rect x="1538.6" y="421.7" transform="matrix(0.8229 -0.5682 0.5682 0.8229 12.6286 961.6168)" class="st9" width="20.5" height="77.7"/>
	
		<rect x="1629.1" y="925.1" transform="matrix(0.8229 -0.5682 0.5682 0.8229 -257.3736 1102.2057)" class="st9" width="20.5" height="77.7"/>
	
		<rect x="2211.2" y="273" transform="matrix(0.9652 -0.2616 0.2616 0.9652 -7.5374 592.3459)" class="st10" width="20.5" height="102.9"/>
	
		<rect x="2224.6" y="839" transform="matrix(0.9652 -0.2616 0.2616 0.9652 -155.1191 615.5759)" class="st10" width="20.5" height="102.9"/>
	
		<rect x="1894.8" y="236.7" transform="matrix(0.3613 -0.9324 0.9324 0.3613 1012.774 1972.5559)" class="st10" width="102.9" height="20.5"/>
	
		<rect x="1398.7" y="750.1" transform="matrix(0.3613 -0.9324 0.9324 0.3613 217.182 1837.785)" class="st10" width="102.9" height="20.5"/>
	<ellipse class="st11" cx="1869.9" cy="1724.7" rx="323.8" ry="84"/>
</g>
</svg>
