<?xml version="1.0" encoding="utf-8"?>
<!-- Generator: Adobe Illustrator 21.0.2, SVG Export Plug-In . SVG Version: 6.00 Build 0)  -->
<svg version="1.1" id="Layer_2" xmlns="http://www.w3.org/2000/svg" xmlns:xlink="http://www.w3.org/1999/xlink" x="0px" y="0px"
	 viewBox="0 0 3857.2 2000" style="enable-background:new 0 0 3857.2 2000;" xml:space="preserve">
<style type="text/css">
	.st0{fill:#5FBBE8;}
	.st1{fill:#5FAEDE;}
	.st2{fill:#B1ECED;}
	.st3{fill:#D7F5F6;}
	.st4{fill:#294F81;}
	.st5{fill:#33487A;}
	.st6{fill:#393760;}
	.st7{fill:#46AED2;}
	.st8{fill:#2F4572;}
	.st9{fill:#296ABD;}
	.st10{fill:#C9EAFF;}
</style>
<g>
	<g>
		<path class="st0" d="M2471.4,1396.7c-2.2,90-23.2,144.9-82.9,116.3c-10.2-4.9-21.7-12.3-34.3-22.4
			c-42.4-33.8-227-390.9-96.5-393.9c33.7-0.8,64.4,11.8,91.4,32.8C2426.6,1189.7,2473.3,1318.5,2471.4,1396.7z"/>
		<path class="st1" d="M2471.4,1396.7c-2.2,90-23.2,144.9-82.9,116.3c19.3-47.6,36.5-157.4-39.4-383.5
			C2426.6,1189.7,2473.3,1318.5,2471.4,1396.7z"/>
		<path class="st2" d="M2295.6,1267.6c24.1,55.9,60.1,153.3,49.7,158.1c-9.3,4.3-57.5-66.1-83.5-147.4
			c-14.4-45.3-23.5-98.7-16-101.2C2255.2,1173.9,2288.1,1250.2,2295.6,1267.6z"/>
	</g>
	<g>
		<path class="st0" d="M1498.6,1485.1c-12.6,10.1-24.1,17.4-34.3,22.4c-33.8,16.2-55.2,5.6-67.8-22.9c-9.6-21.9-14.1-54.3-15.1-93.4
			c-1.9-78.2,44.8-207,122.3-267.2c27-20.9,57.7-33.6,91.4-32.8c20.4,0.5,33.1,9.6,39.8,24.8
			C1671.3,1197.9,1534.3,1456.5,1498.6,1485.1z"/>
		<path class="st3" d="M1454.6,1226.5c-3.7,5.7-44.4,68-30.2,81.4c14.3,13.6,84.1-22.8,120.8-81.4c20.6-33,36.8-82.8,23.1-92.6
			C1551.4,1121.8,1490.5,1171.5,1454.6,1226.5z"/>
		<path class="st1" d="M1498.6,1485.1c-12.6,10.1-24.1,17.4-34.3,22.4c-33.8,16.2-55.2,5.6-67.8-22.9
			c51.8-21.4,137.1-101.4,238.4-368.6C1671.3,1197.9,1534.3,1456.5,1498.6,1485.1z"/>
	</g>
	<g>
		<path class="st0" d="M2283.9,1222.2c0,195.8-137.4,425.8-355.6,425.8c-135.2,0-246.5-82.8-311.6-193.5
			c-40-68-62.6-146.5-62.6-222.7c0-200.6,218.9-191,357.7-191c152.2,0,332.8-11.7,366.5,130.1
			C2281.9,1186.1,2283.9,1203.2,2283.9,1222.2z"/>
		<path class="st1" d="M2283.9,1222.2c0,195.8-137.4,425.8-355.6,425.8c-135.2,0-246.5-82.8-311.6-193.5
			c135.5,63.8,521.6,196,661.6-283.7C2281.9,1186.1,2283.9,1203.2,2283.9,1222.2z"/>
		<path class="st2" d="M1629.6,1154c-28.4,46.2-8.3,112,40.4,137.8c51.5,27.3,121.5,2.8,140.6-51.4c18.2-51.5-16.8-109.3-67-125.5
			C1703.3,1101.9,1653.2,1115.6,1629.6,1154z"/>
	</g>
	<g>
		<path class="st0" d="M1535.8,661.1c-12.9-12.8-23-27.7-30-43.7c-16.1-36.6-16.2-78.9,1.6-115.4c18-37,52.1-63.4,91.8-73
			c11.2-2.7,22.9-4.1,34.9-4C1661.8,580.3,1535.8,661.1,1535.8,661.1z"/>
		<path class="st1" d="M1535.8,661.1c-12.9-12.8-23-27.7-30-43.7c15.8-27.7,31.6-57.2,47.2-88.5c17.2-34.5,32.5-67.8,46.2-99.9
			c11.2-2.7,22.9-4.1,34.9-4C1601.4,503.7,1568.6,582.4,1535.8,661.1z"/>
		<path class="st0" d="M2303.4,815.2c-13.4,194.1-458,259.5-666.4,142.9c-57.9-32.4-97.6-78.9-104.7-140.5
			C1499.4,534,1686.4,273.7,1902.1,273c78.2-0.2,170.2,29.4,246.4,95.5C2246.3,453.1,2318.4,597.4,2303.4,815.2z"/>
		<path class="st1" d="M2303.4,815.2c-13.4,194.1-458,259.5-666.4,142.9c127.2,20.7,505.8,65.9,573.3-116.7
			c58.1-157-15-365.9-61.7-472.9C2246.3,453.1,2318.4,597.4,2303.4,815.2z"/>
		<path class="st2" d="M1654.1,464.7c11.5,15.1,82.1-16.8,129.5-51.9c45.4-33.6,91.7-86.6,81.4-101.5c-9.1-13.2-61.3,5.8-94,23.4
			C1697.5,373.9,1641.5,448.2,1654.1,464.7z"/>
		<path class="st2" d="M1552,766.9c1.8,51.8,33.7,100.9,46.5,97.5c13.4-3.6,7.8-65.4,1.5-99.5c-1.8-9.8-12.9-69.5-26.9-69.2
			C1562.1,696,1550.9,733.3,1552,766.9z"/>
		<g>
			<path class="st4" d="M2187.7,737.1c0.1,38.9-42.5,63-97.6,77.4c-58,15.2-129.7,19.6-179.6,19.3c-71.5-0.5-209.4-12.4-259.2-57.6
				c-11.7-10.6-18.5-23-18.6-37.5c-0.1-42.2,17.3-80.4,45.6-108.1c28.3-27.7,67.5-44.9,110.9-45.1l241-0.8
				c50.4-0.2,95.3,22.8,124.2,58.6C2175.2,669.3,2187.6,701.8,2187.7,737.1z"/>
			<path class="st5" d="M2187.7,737.1c0.1,38.9-42.5,63-97.6,77.4c-58,15.2-129.7,19.6-179.6,19.3c-71.5-0.5-209.4-12.4-259.2-57.6
				c141.6-4.7,382.1-28.7,503.1-132.8C2175.2,669.3,2187.6,701.8,2187.7,737.1z"/>
			<g>
				<g>
					<path class="st6" d="M2138.3,704.4c0.1,38.7-31.2,70.2-69.9,70.4c-29.9,0.1-55.6-18.6-65.7-44.9c-3-7.8-4.6-16.2-4.7-25
						c-0.1-38.7,31.2-70.2,69.9-70.4c28.5-0.1,53.1,16.9,64.1,41.2C2136.1,684.5,2138.3,694.2,2138.3,704.4z"/>
					<path class="st7" d="M2069.5,635.8c28.4,0,51.6,15.6,62.6,40c4,8.8,6.2,18.5,6.2,28.7c0.1,38.7-31.2,70.2-69.9,70.4
						c-0.1,0-0.2,0-0.2,0c-29.9,0-55.4-18.6-65.5-44.9c-3-7.8-4.6-16.2-4.7-25c-0.1-38.7,30.3-67.8,69-67.9L2069.5,635.8z
						 M2068.2,622.5L2068.2,622.5L2068.2,622.5l-0.3,0c-21.9,0.1-42.5,8.7-58,24.2c-15.5,15.6-23.9,36.2-23.9,58.1
						c0,10.1,1.9,19.9,5.5,29.3c12.1,31.5,42.9,52.6,76.7,52.6l0.3,0c21.9-0.1,42.5-8.7,58-24.2c15.5-15.6,23.9-36.2,23.9-58.1
						c0-11.7-2.5-23-7.3-33.6C2129.8,641.5,2100.4,622.5,2068.2,622.5L2068.2,622.5z"/>
				</g>
				<path class="st8" d="M2132,675.5c-26,63.4-91,61.8-129.2,54.5c-3-7.7-4.7-16.2-4.8-25c-0.3-38.7,30.9-70.3,69.7-70.6
					C2096.3,634.3,2121,651.2,2132,675.5z"/>
				
					<ellipse transform="matrix(1 -3.115361e-03 3.115361e-03 1 -2.113 6.3641)" class="st2" cx="2041.8" cy="681.4" rx="23.3" ry="23.3"/>
				<path class="st2" d="M2123.2,718.1c3.8,2.5-1.3,27-18.6,36.4c-15.4,8.4-35.9,2.3-36.3-2.2c-0.4-3.3,10.2-4.2,27.9-15
					C2114.8,726,2120.6,716.3,2123.2,718.1z"/>
			</g>
			<g>
				<g>
					<path class="st6" d="M1827.2,705.4c0.1,38.7-31.2,70.2-69.9,70.4c-29.9,0.1-55.6-18.6-65.7-44.9c-3-7.8-4.6-16.2-4.7-25
						c-0.1-38.7,31.2-70.2,69.9-70.4c28.5-0.1,53.1,16.9,64.1,41.2C1824.9,685.5,1827.1,695.2,1827.2,705.4z"/>
					<path class="st7" d="M1759,636.2c28.4,0,50.9,16.2,61.9,40.5c4,8.8,6.2,18.5,6.2,28.7c0.1,38.7-31.2,70.2-69.9,70.4
						c-0.1,0-0.2,0-0.2,0c-29.9,0-55.4-18.6-65.5-44.9c-3-7.8-4.6-16.2-4.7-25c-0.1-38.7,30.7-69.5,69.5-69.6H1759z M1757,623.5
						L1757,623.5L1757,623.5l-0.3,0c-21.9,0.1-42.5,8.7-58,24.2c-15.5,15.6-23.9,36.2-23.9,58.1c0,10.1,1.9,19.9,5.5,29.3
						c12.1,31.5,42.9,52.6,76.7,52.6l0.3,0c45.3-0.1,82-37.1,81.9-82.4c0-11.7-2.5-23-7.3-33.6
						C1818.6,642.4,1789.2,623.5,1757,623.5L1757,623.5z"/>
				</g>
				<path class="st8" d="M1820.9,676.6c-26,63.4-90.9,61.7-129.2,54.5c-3-7.7-4.7-16.2-4.8-25c-0.3-38.7,30.9-70.3,69.7-70.6
					C1785.2,635.3,1809.8,652.2,1820.9,676.6z"/>
				
					<ellipse transform="matrix(1 -3.115345e-03 3.115345e-03 1 -2.1481 5.4045)" class="st2" cx="1733.7" cy="692.2" rx="23.3" ry="23.3"/>
				<path class="st2" d="M1812.1,719.1c3.8,2.5-1.3,27-18.6,36.4c-15.4,8.4-35.9,2.3-36.3-2.2c-0.4-3.3,10.2-4.2,27.9-15
					C1803.6,726.9,1809.4,717.3,1812.1,719.1z"/>
			</g>
			<path class="st9" d="M1930.7,601.2c0.7,4.7-30.8,15.7-63.4,18.8c-52.9,5-101.5-11.6-100.8-17.4c0.3-2.7,33.8-3.1,100.8-3.9
				C1921,598.1,1930.3,598.7,1930.7,601.2z"/>
			<path class="st4" d="M1658.4,705.9c0,0,113.4-7,162.4-70.6c0,0-55.1-23.3-98.7-14S1658.4,705.9,1658.4,705.9z"/>
			<path class="st4" d="M2164.6,704.3c0,0-37.1-2.1-78.1-15.7c-30.7-10.2-63.6-26.9-84.8-54c0,0,54.9-23.6,98.6-14.5
				c17.5,3.6,31.2,17.8,41.4,33.5C2157.2,677.3,2164.6,704.3,2164.6,704.3z"/>
			<path class="st5" d="M2164.6,704.3c0,0-37.1-2.1-78.1-15.7c33-13.7,54.6-34.3,55.3-35C2157.2,677.3,2164.6,704.3,2164.6,704.3z"
				/>
		</g>
		<g>
			<path class="st0" d="M1513.3,499.7c-0.2-0.3-23.6-32-70.3-52.4c-62.5-27.4-135.2-22.8-216,13.7l-8.6-19.1
				c108.3-48.9,187.1-34.2,234.2-13.3c51.4,22.9,76.7,57.4,77.7,58.8L1513.3,499.7l8.5-6.2L1513.3,499.7z"/>
			
				<ellipse transform="matrix(0.9913 -0.132 0.132 0.9913 -50.5475 162.4217)" class="st4" cx="1200" cy="462.5" rx="48.8" ry="48.8"/>
			
				<ellipse transform="matrix(4.746921e-02 -0.9989 0.9989 4.746921e-02 672.899 1620.4602)" class="st9" cx="1186.1" cy="457.4" rx="26.2" ry="26.2"/>
		</g>
		<g>
			<path class="st4" d="M1911.3,895.9c23.7-0.1,42.2,4.5,55.6,10.3c24,10.5,31.7,25.4,24,25.8c-12,0.5-40.5-7.2-72.8-7.1
				c-37,0.1-62.3,5.3-81.3,5.8c-0.9,0-1.7,0-2.5,0C1815,930.8,1838.5,896.1,1911.3,895.9z"/>
		</g>
		<path class="st6" d="M2001.8,634.7c12.5,9.4,25,17.3,37.8,24.5c12.8,7.2,26,13.3,39.4,18.9l10.2,3.8c1.7,0.6,3.4,1.4,5.1,2
			c1.7,0.6,3.5,1.1,5.2,1.7c3.5,1.1,6.9,2.4,10.4,3.5c3.5,1,7.1,2,10.6,3.1l5.3,1.7c1.8,0.4,3.6,0.9,5.4,1.4c3.6,0.9,7.2,2,10.9,3
			c7.3,1.9,14.8,3.5,22.3,6.1c-3.8,0.8-7.7,1.5-11.6,2c-3.9,0.5-7.8,1.1-11.7,1.2c-3.9,0.1-7.8,0.1-11.7,0.1c-2,0-3.9-0.1-5.9-0.1
			c-2-0.2-3.9-0.4-5.9-0.6c-3.9-0.4-7.8-0.9-11.7-1.5c-3.9-0.6-7.7-1.7-11.6-2.5c-7.8-1.6-15.2-4.5-22.6-7.2
			c-14.7-6.1-28.6-14.1-40.8-24.3c-1.5-1.3-3-2.6-4.5-3.8c-1.4-1.4-2.9-2.7-4.3-4.1c-2.9-2.7-5.4-5.8-8-8.7
			C2009.4,648.6,2004.8,642,2001.8,634.7z"/>
		<path class="st6" d="M1821,634.7c-3,7.3-7.6,13.9-12.5,20c-2.6,3-5.1,6-8,8.7c-1.4,1.4-2.8,2.8-4.3,4.1c-1.5,1.3-3,2.6-4.5,3.8
			c-12.2,10.1-26.1,18.2-40.8,24.3c-7.5,2.6-14.9,5.6-22.6,7.2c-3.9,0.8-7.7,1.9-11.6,2.5c-3.9,0.6-7.8,1-11.7,1.5
			c-1.9,0.2-3.9,0.4-5.9,0.6c-2,0.1-3.9,0.1-5.9,0.1c-3.9,0.1-7.8,0-11.7-0.1c-3.9-0.1-7.8-0.7-11.7-1.2c-3.9-0.5-7.7-1.2-11.6-2
			c7.5-2.6,15-4.2,22.3-6.1c3.6-1.1,7.3-2.1,10.9-3c1.8-0.5,3.6-0.9,5.4-1.4l5.3-1.7c3.5-1.1,7.1-2.1,10.6-3.1
			c3.5-1.1,7-2.4,10.4-3.5c1.7-0.6,3.5-1.1,5.2-1.7c1.7-0.5,3.4-1.3,5.1-2l10.2-3.8c13.5-5.5,26.6-11.7,39.4-18.9
			C1796,652,1808.5,644.1,1821,634.7z"/>
	</g>
	<ellipse class="st10" cx="1916.9" cy="1816.1" rx="379.1" ry="98.3"/>
</g>
</svg>
